{"glyphs":{"0":{"ha":861,"x_min":0,"x_max":0,"o":"m 443 123 b 562 163 503 123 540 142 b 619 438 583 184 619 236 b 418 885 619 757 581 885 b 298 844 356 885 319 866 b 241 578 276 824 241 770 b 443 123 241 266 278 123 z m 67 513 b 449 1026 67 860 225 1026 b 794 501 736 1026 794 747 b 417 -13 794 153 640 -13 b 67 513 129 -13 67 267 z m 342 522 b 435 647 342 606 381 647 b 519 519 506 647 519 579 b 427 393 519 434 482 393 b 342 522 356 393 342 462 z "},"1":{"ha":861,"x_min":0,"x_max":0,"o":"m 115 0 l 765 0 l 788 151 l 530 151 l 530 1014 l 467 1014 l 108 936 l 94 785 l 349 834 l 349 151 l 92 151 z "},"2":{"ha":861,"x_min":0,"x_max":0,"o":"m 389 1030 b 729 744 593 1030 729 934 b 411 238 729 539 572 377 l 313 153 l 807 153 l 762 4 l 128 4 l 83 140 l 265 303 b 550 735 445 463 550 618 b 373 874 550 824 487 874 b 90 797 286 874 186 845 l 99 969 b 389 1030 188 1008 289 1030 z "},"3":{"ha":861,"x_min":0,"x_max":0,"o":"m 521 865 l 67 865 l 113 1014 l 676 1014 l 705 869 l 474 594 b 764 322 649 541 764 458 b 245 -11 764 156 592 -11 b 140 -5 196 -11 165 -8 l 103 163 b 252 151 140 157 186 151 b 606 303 435 151 606 196 b 249 503 606 401 472 456 l 244 523 z "},"4":{"ha":861,"x_min":0,"x_max":0,"o":"m 37 438 l 51 324 l 506 324 l 506 0 l 688 0 l 688 324 l 823 324 l 823 453 l 688 453 l 688 1021 l 506 1021 z m 190 438 l 506 819 l 506 438 z "},"5":{"ha":861,"x_min":0,"x_max":0,"o":"m 699 1014 l 730 865 l 318 865 l 292 656 b 751 333 581 592 751 520 b 232 -10 751 101 474 -10 b 149 -3 194 -10 170 -7 l 110 175 b 240 163 140 169 175 163 b 602 317 409 163 602 210 b 144 520 602 419 419 471 l 198 1014 z "},"6":{"ha":861,"x_min":0,"x_max":0,"o":"m 80 460 b 444 -16 80 149 213 -16 b 788 337 651 -16 788 136 b 537 599 788 524 671 599 b 275 494 449 599 361 567 l 255 494 b 299 761 257 606 269 723 b 708 867 333 803 453 858 l 669 1026 b 80 460 273 1013 80 844 z m 260 392 b 471 467 303 421 379 467 b 617 292 569 467 617 415 b 475 105 617 180 575 105 b 260 392 360 105 260 201 z "},"7":{"ha":861,"x_min":0,"x_max":0,"o":"m 760 874 l 727 1014 l 119 1014 l 74 858 l 586 858 b 202 1 458 660 281 333 l 415 -1 b 760 874 506 435 678 722 z "},"8":{"ha":861,"x_min":0,"x_max":0,"o":"m 456 1029 b 118 758 256 1029 118 925 b 283 495 118 653 172 567 b 69 246 177 450 69 377 b 415 -18 69 97 204 -18 b 808 266 622 -18 808 92 b 575 534 808 385 757 447 b 749 789 689 603 749 688 b 456 1029 749 919 658 1029 z m 248 290 b 356 454 248 355 284 408 b 403 433 371 447 386 440 b 633 236 588 353 633 306 b 592 156 633 194 608 169 b 456 118 572 138 530 118 b 248 290 335 118 248 178 z m 269 792 b 302 870 269 831 286 856 b 411 900 322 888 358 900 b 598 737 517 900 598 847 b 509 565 598 662 556 603 b 468 583 496 571 482 576 b 269 792 336 639 269 701 z "},"9":{"ha":861,"x_min":0,"x_max":0,"o":"m 781 552 b 417 1029 781 864 649 1029 b 74 676 210 1029 74 876 b 324 414 74 490 190 414 b 586 519 412 414 500 447 l 606 519 b 562 251 604 408 592 290 b 153 146 528 210 408 154 l 192 -12 b 781 552 588 0 781 169 z m 244 721 b 386 908 244 833 286 908 b 601 622 501 908 601 811 b 390 546 558 592 482 546 b 244 721 292 546 244 598 z "}," ":{"ha":861,"x_min":0,"x_max":0,"o":""}," ":{"ha":861,"x_min":0,"x_max":0,"o":""},"A":{"ha":861,"x_min":0,"x_max":0,"o":"m 836 0 l 527 1014 l 333 1014 l 26 0 l 209 0 l 278 247 l 574 247 l 644 0 z m 314 376 l 420 760 l 430 760 l 538 376 z "},"Á":{"ha":861,"x_min":0,"x_max":0,"o":"m 836 0 l 527 1014 l 333 1014 l 26 0 l 209 0 l 278 247 l 574 247 l 644 0 z m 314 376 l 420 760 l 430 760 l 538 376 z m 353 1131 l 490 1305 l 681 1305 l 508 1131 z "},"Ă":{"ha":861,"x_min":0,"x_max":0,"o":"m 836 0 l 527 1014 l 333 1014 l 26 0 l 209 0 l 278 247 l 574 247 l 644 0 z m 202 1306 b 431 1121 197 1189 274 1121 b 659 1306 588 1121 665 1189 l 547 1306 b 431 1211 547 1250 513 1211 b 315 1306 348 1211 315 1250 z m 314 376 l 420 760 l 430 760 l 538 376 z "},"Â":{"ha":861,"x_min":0,"x_max":0,"o":"m 836 0 l 527 1014 l 333 1014 l 26 0 l 209 0 l 278 247 l 574 247 l 644 0 z m 161 1132 l 323 1132 l 431 1254 l 538 1132 l 700 1132 l 533 1306 l 328 1306 z m 314 376 l 420 760 l 430 760 l 538 376 z "},"Ä":{"ha":861,"x_min":0,"x_max":0,"o":"m 836 0 l 527 1014 l 333 1014 l 26 0 l 209 0 l 278 247 l 574 247 l 644 0 z m 145 1228 b 244 1135 145 1171 185 1135 b 342 1228 303 1135 342 1171 b 244 1320 342 1285 303 1320 b 145 1228 185 1320 145 1285 z m 314 376 l 420 760 l 430 760 l 538 376 z m 519 1228 b 617 1135 519 1171 559 1135 b 717 1228 676 1135 717 1171 b 617 1320 717 1285 676 1320 b 519 1228 559 1320 519 1285 z "},"Ạ":{"ha":861,"x_min":0,"x_max":0,"o":"m 836 0 l 527 1014 l 333 1014 l 26 0 l 209 0 l 278 247 l 574 247 l 644 0 z m 310 -251 b 431 -362 310 -319 359 -362 b 551 -251 502 -362 551 -319 b 431 -142 551 -183 502 -142 b 310 -251 359 -142 310 -183 z m 314 376 l 420 760 l 430 760 l 538 376 z "},"À":{"ha":861,"x_min":0,"x_max":0,"o":"m 836 0 l 527 1014 l 333 1014 l 26 0 l 209 0 l 278 247 l 574 247 l 644 0 z m 180 1305 l 353 1131 l 508 1131 l 372 1305 z m 314 376 l 420 760 l 430 760 l 538 376 z "},"Ā":{"ha":861,"x_min":0,"x_max":0,"o":"m 836 0 l 527 1014 l 333 1014 l 26 0 l 209 0 l 278 247 l 574 247 l 644 0 z m 198 1183 l 663 1183 l 663 1296 l 198 1296 z m 314 376 l 420 760 l 430 760 l 538 376 z "},"Ą":{"ha":861,"x_min":0,"x_max":0,"o":"m 836 0 l 527 1014 l 333 1014 l 26 0 l 209 0 l 278 247 l 574 247 l 644 0 l 682 0 b 580 -171 613 -59 580 -110 b 773 -298 580 -235 617 -298 l 836 -298 l 836 -188 l 816 -188 b 737 -134 756 -188 737 -167 b 836 0 737 -98 762 -57 z m 314 376 l 420 760 l 430 760 l 538 376 z "},"Å":{"ha":861,"x_min":0,"x_max":0,"o":"m 836 0 l 529 1007 b 594 1144 570 1037 594 1086 b 431 1312 594 1241 527 1312 b 267 1144 334 1312 267 1241 b 331 1008 267 1086 291 1038 l 26 0 l 209 0 l 278 247 l 574 247 l 644 0 z m 314 376 l 420 760 l 430 760 l 538 376 z m 342 1144 b 431 1235 342 1197 376 1235 b 519 1144 485 1235 519 1197 b 431 1053 519 1092 485 1053 b 342 1144 376 1053 342 1092 z "},"Ã":{"ha":861,"x_min":0,"x_max":0,"o":"m 836 0 l 527 1014 l 333 1014 l 26 0 l 209 0 l 278 247 l 574 247 l 644 0 z m 144 1151 l 263 1127 b 340 1213 272 1184 301 1213 b 554 1121 410 1213 447 1121 b 717 1289 642 1121 703 1182 l 599 1313 b 522 1227 589 1256 560 1227 b 306 1319 451 1227 414 1319 b 144 1151 218 1319 158 1258 z m 314 376 l 420 760 l 430 760 l 538 376 z "},"Æ":{"ha":861,"x_min":0,"x_max":0,"o":"m 433 0 l 833 0 l 851 151 l 600 151 l 600 438 l 754 438 l 754 581 l 600 581 l 600 863 l 851 863 l 833 1014 l 244 1014 l 25 0 l 206 0 l 253 244 l 433 244 z m 278 376 l 372 863 l 433 863 l 433 376 z "},"Ǽ":{"ha":861,"x_min":0,"x_max":0,"o":"m 433 0 l 833 0 l 851 151 l 600 151 l 600 438 l 754 438 l 754 581 l 600 581 l 600 863 l 851 863 l 833 1014 l 244 1014 l 25 0 l 206 0 l 253 244 l 433 244 z m 278 376 l 372 863 l 433 863 l 433 376 z m 444 1131 l 580 1305 l 772 1305 l 599 1131 z "},"B":{"ha":861,"x_min":0,"x_max":0,"o":"m 110 0 l 417 0 b 808 297 650 0 808 106 b 530 556 808 468 682 527 l 530 562 b 756 806 635 595 756 658 b 444 1014 756 965 617 1015 l 110 1014 z m 294 132 l 294 481 l 317 480 b 622 294 480 473 622 422 b 404 132 622 212 563 132 z m 294 560 l 294 883 l 404 883 b 576 767 518 883 576 848 b 323 565 576 663 481 589 z "},"C":{"ha":861,"x_min":0,"x_max":0,"o":"m 602 1030 b 86 507 230 1030 86 836 b 567 -17 86 113 295 -17 b 763 8 651 -17 718 -3 l 771 163 b 591 136 718 146 653 136 b 270 569 429 136 270 208 b 355 822 270 735 323 795 b 550 867 393 856 446 867 b 772 846 640 867 711 856 l 769 1014 b 602 1030 720 1023 667 1030 z "},"Ć":{"ha":861,"x_min":0,"x_max":0,"o":"m 602 1030 b 86 507 230 1030 86 836 b 567 -17 86 113 295 -17 b 763 8 651 -17 718 -3 l 771 163 b 591 136 718 146 653 136 b 270 569 429 136 270 208 b 355 822 270 735 323 795 b 550 867 393 856 446 867 b 772 846 640 867 711 856 l 769 1014 b 602 1030 720 1023 667 1030 z m 423 1131 l 559 1305 l 751 1305 l 577 1131 z "},"Č":{"ha":861,"x_min":0,"x_max":0,"o":"m 602 1030 b 86 507 230 1030 86 836 b 567 -17 86 113 295 -17 b 763 8 651 -17 718 -3 l 771 163 b 591 136 718 146 653 136 b 270 569 429 136 270 208 b 355 822 270 735 323 795 b 550 867 393 856 446 867 b 772 846 640 867 711 856 l 769 1014 b 602 1030 720 1023 667 1030 z m 231 1306 l 392 1306 l 500 1183 l 608 1306 l 769 1306 l 603 1132 l 397 1132 z "},"Ç":{"ha":861,"x_min":0,"x_max":0,"o":"m 602 1030 b 86 507 230 1030 86 836 b 412 -1 86 192 219 46 l 412 -184 b 508 -261 469 -190 508 -209 b 407 -329 508 -304 481 -329 l 366 -329 l 366 -426 l 424 -426 b 640 -272 595 -426 640 -366 b 518 -113 640 -178 598 -133 l 517 -16 b 567 -17 533 -17 550 -17 b 763 8 651 -17 718 -3 l 771 163 b 591 136 718 146 653 136 b 270 569 429 136 270 208 b 355 822 270 735 323 795 b 550 867 393 856 446 867 b 772 846 640 867 711 856 l 769 1014 b 602 1030 720 1023 667 1030 z "},"Ĉ":{"ha":861,"x_min":0,"x_max":0,"o":"m 602 1030 b 86 507 230 1030 86 836 b 567 -17 86 113 295 -17 b 763 8 651 -17 718 -3 l 771 163 b 591 136 718 146 653 136 b 270 569 429 136 270 208 b 355 822 270 735 323 795 b 550 867 393 856 446 867 b 772 846 640 867 711 856 l 769 1014 b 602 1030 720 1023 667 1030 z m 231 1132 l 392 1132 l 500 1254 l 608 1132 l 769 1132 l 603 1306 l 397 1306 z "},"Ċ":{"ha":861,"x_min":0,"x_max":0,"o":"m 602 1030 b 86 507 230 1030 86 836 b 567 -17 86 113 295 -17 b 763 8 651 -17 718 -3 l 771 163 b 591 136 718 146 653 136 b 270 569 429 136 270 208 b 355 822 270 735 323 795 b 550 867 393 856 446 867 b 772 846 640 867 711 856 l 769 1014 b 602 1030 720 1023 667 1030 z m 397 1228 b 498 1135 397 1171 438 1135 b 599 1228 558 1135 599 1171 b 498 1320 599 1285 558 1320 b 397 1228 438 1320 397 1285 z "},"D":{"ha":861,"x_min":0,"x_max":0,"o":"m 109 0 l 320 0 b 781 540 636 0 781 207 b 306 1014 781 920 583 1014 l 109 1014 z m 290 155 l 290 873 l 340 873 b 591 510 510 873 591 813 b 522 197 591 289 558 224 b 336 155 485 169 424 155 z "},"Ð":{"ha":861,"x_min":0,"x_max":0,"o":"m 452 590 l 290 590 l 290 873 l 340 873 b 591 510 510 873 591 813 b 522 197 591 289 558 224 b 336 155 485 169 424 155 l 290 155 l 290 438 l 452 438 z m 15 438 l 109 438 l 109 0 l 320 0 b 781 540 636 0 781 207 b 306 1014 781 920 583 1014 l 109 1014 l 109 590 l 15 590 z "},"Ď":{"ha":861,"x_min":0,"x_max":0,"o":"m 109 0 l 320 0 b 781 540 636 0 781 207 b 306 1014 781 920 583 1014 l 109 1014 z m 161 1306 l 323 1306 l 431 1183 l 538 1306 l 700 1306 l 533 1132 l 328 1132 z m 290 155 l 290 873 l 340 873 b 591 510 510 873 591 813 b 522 197 591 289 558 224 b 336 155 485 169 424 155 z "},"Đ":{"ha":861,"x_min":0,"x_max":0,"o":"m 452 590 l 290 590 l 290 873 l 340 873 b 591 510 510 873 591 813 b 522 197 591 289 558 224 b 336 155 485 169 424 155 l 290 155 l 290 438 l 452 438 z m 15 438 l 109 438 l 109 0 l 320 0 b 781 540 636 0 781 207 b 306 1014 781 920 583 1014 l 109 1014 l 109 590 l 15 590 z "},"E":{"ha":861,"x_min":0,"x_max":0,"o":"m 116 0 l 748 0 l 766 151 l 297 151 l 297 438 l 669 438 l 669 581 l 297 581 l 297 863 l 766 863 l 748 1014 l 116 1014 z "},"É":{"ha":861,"x_min":0,"x_max":0,"o":"m 116 0 l 748 0 l 766 151 l 297 151 l 297 438 l 669 438 l 669 581 l 297 581 l 297 863 l 766 863 l 748 1014 l 116 1014 z m 353 1131 l 490 1305 l 681 1305 l 508 1131 z "},"Ĕ":{"ha":861,"x_min":0,"x_max":0,"o":"m 116 0 l 748 0 l 766 151 l 297 151 l 297 438 l 669 438 l 669 581 l 297 581 l 297 863 l 766 863 l 748 1014 l 116 1014 z m 202 1306 b 431 1121 197 1189 274 1121 b 659 1306 588 1121 665 1189 l 547 1306 b 431 1211 547 1250 513 1211 b 315 1306 348 1211 315 1250 z "},"Ě":{"ha":861,"x_min":0,"x_max":0,"o":"m 116 0 l 748 0 l 766 151 l 297 151 l 297 438 l 669 438 l 669 581 l 297 581 l 297 863 l 766 863 l 748 1014 l 116 1014 z m 161 1306 l 323 1306 l 431 1183 l 538 1306 l 700 1306 l 533 1132 l 328 1132 z "},"Ê":{"ha":861,"x_min":0,"x_max":0,"o":"m 116 0 l 748 0 l 766 151 l 297 151 l 297 438 l 669 438 l 669 581 l 297 581 l 297 863 l 766 863 l 748 1014 l 116 1014 z m 161 1132 l 323 1132 l 431 1254 l 538 1132 l 700 1132 l 533 1306 l 328 1306 z "},"Ë":{"ha":861,"x_min":0,"x_max":0,"o":"m 116 0 l 748 0 l 766 151 l 297 151 l 297 438 l 669 438 l 669 581 l 297 581 l 297 863 l 766 863 l 748 1014 l 116 1014 z m 145 1228 b 244 1135 145 1171 185 1135 b 342 1228 303 1135 342 1171 b 244 1320 342 1285 303 1320 b 145 1228 185 1320 145 1285 z m 519 1228 b 617 1135 519 1171 559 1135 b 717 1228 676 1135 717 1171 b 617 1320 717 1285 676 1320 b 519 1228 559 1320 519 1285 z "},"Ė":{"ha":861,"x_min":0,"x_max":0,"o":"m 116 0 l 748 0 l 766 151 l 297 151 l 297 438 l 669 438 l 669 581 l 297 581 l 297 863 l 766 863 l 748 1014 l 116 1014 z m 328 1228 b 428 1135 328 1171 369 1135 b 530 1228 489 1135 530 1171 b 428 1320 530 1285 489 1320 b 328 1228 369 1320 328 1285 z "},"Ẹ":{"ha":861,"x_min":0,"x_max":0,"o":"m 116 0 l 748 0 l 766 151 l 297 151 l 297 438 l 669 438 l 669 581 l 297 581 l 297 863 l 766 863 l 748 1014 l 116 1014 z m 310 -251 b 431 -362 310 -319 359 -362 b 551 -251 502 -362 551 -319 b 431 -142 551 -183 502 -142 b 310 -251 359 -142 310 -183 z "},"È":{"ha":861,"x_min":0,"x_max":0,"o":"m 116 0 l 748 0 l 766 151 l 297 151 l 297 438 l 669 438 l 669 581 l 297 581 l 297 863 l 766 863 l 748 1014 l 116 1014 z m 180 1305 l 353 1131 l 508 1131 l 372 1305 z "},"Ē":{"ha":861,"x_min":0,"x_max":0,"o":"m 116 0 l 748 0 l 766 151 l 297 151 l 297 438 l 669 438 l 669 581 l 297 581 l 297 863 l 766 863 l 748 1014 l 116 1014 z m 198 1183 l 663 1183 l 663 1296 l 198 1296 z "},"Ę":{"ha":861,"x_min":0,"x_max":0,"o":"m 116 0 l 594 0 b 492 -171 524 -59 492 -110 b 684 -298 492 -235 529 -298 l 748 -298 l 748 -188 l 728 -188 b 649 -134 668 -188 649 -167 b 748 0 649 -98 674 -57 l 766 151 l 297 151 l 297 438 l 669 438 l 669 581 l 297 581 l 297 863 l 766 863 l 748 1014 l 116 1014 z "},"Ẽ":{"ha":861,"x_min":0,"x_max":0,"o":"m 116 0 l 748 0 l 766 151 l 297 151 l 297 438 l 669 438 l 669 581 l 297 581 l 297 863 l 766 863 l 748 1014 l 116 1014 z m 144 1151 l 263 1127 b 340 1213 272 1184 301 1213 b 554 1121 410 1213 447 1121 b 717 1289 642 1121 703 1182 l 599 1313 b 522 1227 589 1256 560 1227 b 306 1319 451 1227 414 1319 b 144 1151 218 1319 158 1258 z "},"Ə":{"ha":861,"x_min":0,"x_max":0,"o":"m 417 -13 b 789 515 636 -13 789 158 b 367 1031 789 907 653 1031 b 95 988 242 1031 155 1009 l 91 856 b 317 889 145 874 218 889 b 608 575 570 889 608 769 l 608 551 l 71 551 b 417 -13 71 267 133 -13 z m 258 410 l 605 410 b 556 164 597 217 573 181 b 435 125 535 142 497 125 b 258 410 300 125 265 242 z "},"F":{"ha":861,"x_min":0,"x_max":0,"o":"m 304 0 l 304 403 l 681 403 l 685 547 l 304 547 l 304 864 l 781 864 l 762 1014 l 123 1014 l 123 0 z "},"G":{"ha":861,"x_min":0,"x_max":0,"o":"m 769 849 l 764 1015 b 608 1030 720 1024 669 1030 b 81 497 229 1030 81 838 b 540 -17 81 121 261 -17 b 776 15 636 -17 715 0 l 776 551 l 474 551 l 456 410 l 622 410 l 622 133 b 535 126 594 128 567 126 b 265 539 381 126 265 215 b 342 818 265 704 301 784 b 560 867 380 851 433 867 b 769 849 640 867 709 858 z "},"Ğ":{"ha":861,"x_min":0,"x_max":0,"o":"m 769 849 l 764 1015 b 608 1030 720 1024 669 1030 b 81 497 229 1030 81 838 b 540 -17 81 121 261 -17 b 776 15 636 -17 715 0 l 776 551 l 474 551 l 456 410 l 622 410 l 622 133 b 535 126 594 128 567 126 b 265 539 381 126 265 215 b 342 818 265 704 301 784 b 560 867 380 851 433 867 b 769 849 640 867 709 858 z m 276 1306 b 505 1121 270 1189 348 1121 b 733 1306 661 1121 739 1189 l 621 1306 b 505 1211 621 1250 587 1211 b 389 1306 422 1211 389 1250 z "},"Ǧ":{"ha":861,"x_min":0,"x_max":0,"o":"m 769 849 l 764 1015 b 608 1030 720 1024 669 1030 b 81 497 229 1030 81 838 b 540 -17 81 121 261 -17 b 776 15 636 -17 715 0 l 776 551 l 474 551 l 456 410 l 622 410 l 622 133 b 535 126 594 128 567 126 b 265 539 381 126 265 215 b 342 818 265 704 301 784 b 560 867 380 851 433 867 b 769 849 640 867 709 858 z m 235 1306 l 397 1306 l 505 1183 l 613 1306 l 774 1306 l 608 1132 l 402 1132 z "},"Ĝ":{"ha":861,"x_min":0,"x_max":0,"o":"m 769 849 l 764 1015 b 608 1030 720 1024 669 1030 b 81 497 229 1030 81 838 b 540 -17 81 121 261 -17 b 776 15 636 -17 715 0 l 776 551 l 474 551 l 456 410 l 622 410 l 622 133 b 535 126 594 128 567 126 b 265 539 381 126 265 215 b 342 818 265 704 301 784 b 560 867 380 851 433 867 b 769 849 640 867 709 858 z m 235 1132 l 397 1132 l 505 1253 l 613 1132 l 774 1132 l 608 1306 l 402 1306 z "},"Ģ":{"ha":861,"x_min":0,"x_max":0,"o":"m 769 849 l 764 1015 b 608 1030 720 1024 669 1030 b 81 497 229 1030 81 838 b 540 -17 81 121 261 -17 b 776 15 636 -17 715 0 l 776 551 l 474 551 l 456 410 l 622 410 l 622 133 b 535 126 594 128 567 126 b 265 539 381 126 265 215 b 342 818 265 704 301 784 b 560 867 380 851 433 867 b 769 849 640 867 709 858 z m 368 -470 l 422 -537 b 620 -285 522 -492 620 -412 b 493 -142 620 -187 564 -142 b 378 -247 426 -142 378 -182 b 493 -353 378 -313 427 -353 b 514 -352 500 -353 507 -353 b 368 -470 489 -404 430 -437 z "},"Ġ":{"ha":861,"x_min":0,"x_max":0,"o":"m 769 849 l 764 1015 b 608 1030 720 1024 669 1030 b 81 497 229 1030 81 838 b 540 -17 81 121 261 -17 b 776 15 636 -17 715 0 l 776 551 l 474 551 l 456 410 l 622 410 l 622 133 b 535 126 594 128 567 126 b 265 539 381 126 265 215 b 342 818 265 704 301 784 b 560 867 380 851 433 867 b 769 849 640 867 709 858 z m 402 1228 b 503 1135 402 1171 443 1135 b 603 1228 563 1135 603 1171 b 503 1320 603 1285 563 1320 b 402 1228 443 1320 402 1285 z "},"H":{"ha":861,"x_min":0,"x_max":0,"o":"m 294 0 l 294 438 l 567 438 l 567 0 l 752 0 l 752 1014 l 567 1014 l 567 587 l 294 587 l 294 1014 l 109 1014 l 109 0 z "},"Ħ":{"ha":861,"x_min":0,"x_max":0,"o":"m 833 879 l 752 879 l 752 1014 l 567 1014 l 567 879 l 294 879 l 294 1014 l 109 1014 l 109 879 l 28 879 l 28 756 l 109 756 l 109 0 l 294 0 l 294 438 l 567 438 l 567 0 l 752 0 l 752 756 l 833 756 z m 294 587 l 294 756 l 567 756 l 567 587 z "},"Ĥ":{"ha":861,"x_min":0,"x_max":0,"o":"m 294 0 l 294 438 l 567 438 l 567 0 l 752 0 l 752 1014 l 567 1014 l 567 587 l 294 587 l 294 1014 l 109 1014 l 109 0 z m 161 1132 l 323 1132 l 431 1254 l 538 1132 l 700 1132 l 533 1306 l 328 1306 z "},"I":{"ha":861,"x_min":0,"x_max":0,"o":"m 110 0 l 749 0 l 763 151 l 520 151 l 520 863 l 763 863 l 749 1014 l 110 1014 l 97 863 l 339 863 l 339 151 l 97 151 z "},"Ĳ":{"ha":861,"x_min":0,"x_max":0,"o":"m 705 323 l 705 1014 l 423 1014 l 404 870 l 527 870 l 527 277 b 496 168 527 216 516 185 b 356 137 476 152 430 137 b 108 173 250 137 181 154 l 131 9 b 334 -16 185 -6 244 -16 b 705 323 583 -16 705 73 z m 120 385 l 292 385 l 292 1014 l 120 1014 z "},"Í":{"ha":861,"x_min":0,"x_max":0,"o":"m 110 0 l 749 0 l 763 151 l 520 151 l 520 863 l 763 863 l 749 1014 l 110 1014 l 97 863 l 339 863 l 339 151 l 97 151 z m 353 1131 l 490 1305 l 681 1305 l 508 1131 z "},"Ĭ":{"ha":861,"x_min":0,"x_max":0,"o":"m 110 0 l 749 0 l 763 151 l 520 151 l 520 863 l 763 863 l 749 1014 l 110 1014 l 97 863 l 339 863 l 339 151 l 97 151 z m 202 1306 b 431 1121 197 1189 274 1121 b 659 1306 588 1121 665 1189 l 547 1306 b 431 1211 547 1250 513 1211 b 315 1306 348 1211 315 1250 z "},"Î":{"ha":861,"x_min":0,"x_max":0,"o":"m 110 0 l 749 0 l 763 151 l 520 151 l 520 863 l 763 863 l 749 1014 l 110 1014 l 97 863 l 339 863 l 339 151 l 97 151 z m 161 1132 l 323 1132 l 431 1254 l 538 1132 l 700 1132 l 533 1306 l 328 1306 z "},"Ï":{"ha":861,"x_min":0,"x_max":0,"o":"m 110 0 l 749 0 l 763 151 l 520 151 l 520 863 l 763 863 l 749 1014 l 110 1014 l 97 863 l 339 863 l 339 151 l 97 151 z m 145 1228 b 244 1135 145 1171 185 1135 b 342 1228 303 1135 342 1171 b 244 1320 342 1285 303 1320 b 145 1228 185 1320 145 1285 z m 519 1228 b 617 1135 519 1171 559 1135 b 717 1228 676 1135 717 1171 b 617 1320 717 1285 676 1320 b 519 1228 559 1320 519 1285 z "},"İ":{"ha":861,"x_min":0,"x_max":0,"o":"m 110 0 l 749 0 l 763 151 l 520 151 l 520 863 l 763 863 l 749 1014 l 110 1014 l 97 863 l 339 863 l 339 151 l 97 151 z m 328 1228 b 428 1135 328 1171 369 1135 b 530 1228 489 1135 530 1171 b 428 1320 530 1285 489 1320 b 328 1228 369 1320 328 1285 z "},"Ị":{"ha":861,"x_min":0,"x_max":0,"o":"m 110 0 l 749 0 l 763 151 l 520 151 l 520 863 l 763 863 l 749 1014 l 110 1014 l 97 863 l 339 863 l 339 151 l 97 151 z m 310 -251 b 431 -362 310 -319 359 -362 b 551 -251 502 -362 551 -319 b 431 -142 551 -183 502 -142 b 310 -251 359 -142 310 -183 z "},"Ì":{"ha":861,"x_min":0,"x_max":0,"o":"m 110 0 l 749 0 l 763 151 l 520 151 l 520 863 l 763 863 l 749 1014 l 110 1014 l 97 863 l 339 863 l 339 151 l 97 151 z m 180 1305 l 353 1131 l 508 1131 l 372 1305 z "},"Ī":{"ha":861,"x_min":0,"x_max":0,"o":"m 110 0 l 749 0 l 763 151 l 520 151 l 520 863 l 763 863 l 749 1014 l 110 1014 l 97 863 l 339 863 l 339 151 l 97 151 z m 198 1183 l 663 1183 l 663 1296 l 198 1296 z "},"Į":{"ha":861,"x_min":0,"x_max":0,"o":"m 110 1014 l 97 863 l 339 863 l 339 151 l 97 151 l 110 0 l 367 0 b 265 -171 299 -59 265 -110 b 458 -298 265 -235 303 -298 l 522 -298 l 522 -188 l 501 -188 b 422 -134 442 -188 422 -167 b 522 0 422 -98 447 -57 l 749 0 l 763 151 l 520 151 l 520 863 l 763 863 l 749 1014 z "},"Ĩ":{"ha":861,"x_min":0,"x_max":0,"o":"m 110 0 l 749 0 l 763 151 l 520 151 l 520 863 l 763 863 l 749 1014 l 110 1014 l 97 863 l 339 863 l 339 151 l 97 151 z m 144 1151 l 263 1127 b 340 1213 272 1184 301 1213 b 554 1121 410 1213 447 1121 b 717 1289 642 1121 703 1182 l 599 1313 b 522 1227 589 1256 560 1227 b 306 1319 451 1227 414 1319 b 144 1151 218 1319 158 1258 z "},"J":{"ha":861,"x_min":0,"x_max":0,"o":"m 705 323 l 705 1014 l 156 1014 l 137 870 l 517 870 l 517 277 b 486 168 517 216 507 185 b 356 137 467 152 420 137 b 108 173 250 137 181 154 l 131 9 b 334 -16 185 -6 244 -16 b 705 323 583 -16 705 73 z "},"Ĵ":{"ha":861,"x_min":0,"x_max":0,"o":"m 705 323 l 705 1014 l 156 1014 l 137 870 l 517 870 l 517 277 b 486 168 517 216 507 185 b 356 137 467 152 420 137 b 108 173 250 137 181 154 l 131 9 b 334 -16 185 -6 244 -16 b 705 323 583 -16 705 73 z m 168 1132 l 330 1132 l 438 1253 l 545 1132 l 707 1132 l 540 1306 l 335 1306 z "},"K":{"ha":861,"x_min":0,"x_max":0,"o":"m 294 0 l 294 435 l 378 435 b 631 0 467 306 549 175 l 851 0 b 526 519 744 225 628 390 l 526 531 b 799 1014 646 697 729 848 l 606 1014 b 378 584 539 860 472 733 l 294 584 l 294 1014 l 109 1014 l 109 0 z "},"Ķ":{"ha":861,"x_min":0,"x_max":0,"o":"m 294 0 l 294 435 l 378 435 b 631 0 467 306 549 175 l 851 0 b 526 519 744 225 628 390 l 526 531 b 799 1014 646 697 729 848 l 606 1014 b 378 584 539 860 472 733 l 294 584 l 294 1014 l 109 1014 l 109 0 z m 303 -470 l 357 -537 b 555 -285 458 -492 555 -412 b 428 -142 555 -187 499 -142 b 313 -247 362 -142 313 -182 b 428 -353 313 -313 362 -353 b 449 -352 435 -353 442 -353 b 303 -470 424 -404 365 -437 z "},"L":{"ha":861,"x_min":0,"x_max":0,"o":"m 314 0 l 767 1 l 790 151 l 314 151 l 314 1014 l 133 1014 l 133 0 z "},"Ĺ":{"ha":861,"x_min":0,"x_max":0,"o":"m 314 0 l 767 1 l 790 151 l 314 151 l 314 1014 l 133 1014 l 133 0 z m 142 1131 l 278 1305 l 469 1305 l 296 1131 z "},"Ľ":{"ha":861,"x_min":0,"x_max":0,"o":"m 314 0 l 767 1 l 790 151 l 314 151 l 314 1014 l 133 1014 l 133 0 z m 431 856 l 567 856 l 596 1117 l 442 1117 z "},"Ļ":{"ha":861,"x_min":0,"x_max":0,"o":"m 314 0 l 767 1 l 790 151 l 314 151 l 314 1014 l 133 1014 l 133 0 z m 303 -470 l 357 -537 b 555 -285 458 -492 555 -412 b 428 -142 555 -187 499 -142 b 313 -247 362 -142 313 -182 b 428 -353 313 -313 362 -353 b 449 -352 435 -353 442 -353 b 303 -470 424 -404 365 -437 z "},"Ŀ":{"ha":861,"x_min":0,"x_max":0,"o":"m 651 481 b 749 580 709 481 749 519 b 651 678 749 641 709 678 b 554 580 594 678 554 641 b 651 481 554 519 594 481 z m 133 0 l 314 0 l 767 1 l 790 151 l 314 151 l 314 1014 l 133 1014 z "},"Ł":{"ha":861,"x_min":0,"x_max":0,"o":"m 563 805 l 314 684 l 314 1014 l 133 1014 l 133 596 l 5 533 l 5 378 l 133 440 l 133 0 l 314 0 l 767 1 l 790 151 l 314 151 l 314 528 l 563 649 z "},"M":{"ha":861,"x_min":0,"x_max":0,"o":"m 108 1013 l 68 0 l 218 0 l 235 724 l 244 724 l 403 272 l 455 272 l 608 724 l 618 724 l 640 0 l 793 0 l 753 1013 l 610 1013 l 436 574 l 428 574 l 265 1013 z "},"N":{"ha":861,"x_min":0,"x_max":0,"o":"m 109 0 l 258 0 l 258 719 l 267 719 l 566 0 l 752 0 l 752 1015 l 603 1015 l 603 297 l 594 297 l 296 1014 l 109 1014 z "},"Ń":{"ha":861,"x_min":0,"x_max":0,"o":"m 109 0 l 258 0 l 258 719 l 267 719 l 566 0 l 752 0 l 752 1015 l 603 1015 l 603 297 l 594 297 l 296 1014 l 109 1014 z m 353 1131 l 490 1305 l 681 1305 l 508 1131 z "},"Ň":{"ha":861,"x_min":0,"x_max":0,"o":"m 109 0 l 258 0 l 258 719 l 267 719 l 566 0 l 752 0 l 752 1015 l 603 1015 l 603 297 l 594 297 l 296 1014 l 109 1014 z m 161 1306 l 323 1306 l 431 1183 l 538 1306 l 700 1306 l 533 1132 l 328 1132 z "},"Ņ":{"ha":861,"x_min":0,"x_max":0,"o":"m 109 0 l 258 0 l 258 719 l 267 719 l 566 0 l 752 0 l 752 1015 l 603 1015 l 603 297 l 594 297 l 296 1014 l 109 1014 z m 303 -470 l 357 -537 b 555 -285 458 -492 555 -412 b 428 -142 555 -187 499 -142 b 313 -247 362 -142 313 -182 b 428 -353 313 -313 362 -353 b 449 -352 435 -353 442 -353 b 303 -470 424 -404 365 -437 z "},"Ɲ":{"ha":861,"x_min":0,"x_max":0,"o":"m 61 -277 b 258 -25 179 -277 258 -172 l 258 719 l 267 719 l 566 0 l 752 0 l 752 1015 l 603 1015 l 603 297 l 594 297 l 296 1014 l 109 1014 l 109 0 b 92 -113 109 -67 110 -96 b 38 -131 75 -130 50 -131 b -52 -109 8 -131 -22 -122 l -29 -258 b 61 -277 -6 -268 26 -277 z "},"Ñ":{"ha":861,"x_min":0,"x_max":0,"o":"m 109 0 l 258 0 l 258 719 l 267 719 l 566 0 l 752 0 l 752 1015 l 603 1015 l 603 297 l 594 297 l 296 1014 l 109 1014 z m 144 1151 l 263 1127 b 340 1213 272 1184 301 1213 b 554 1121 410 1213 447 1121 b 717 1289 642 1121 703 1182 l 599 1313 b 522 1227 589 1256 560 1227 b 306 1319 451 1227 414 1319 b 144 1151 218 1319 158 1258 z "},"Ŋ":{"ha":861,"x_min":0,"x_max":0,"o":"m 527 -277 b 752 -25 659 -277 752 -172 l 752 1015 l 603 1015 l 603 297 l 594 297 l 296 1014 l 109 1014 l 109 0 l 258 0 l 258 719 l 267 719 l 573 -17 b 556 -113 573 -72 572 -97 b 499 -131 539 -130 514 -131 b 412 -109 469 -131 438 -122 l 434 -258 b 527 -277 459 -268 491 -277 z "},"O":{"ha":861,"x_min":0,"x_max":0,"o":"m 417 -13 b 790 501 636 -13 790 158 b 449 1026 790 747 731 1026 b 71 513 230 1026 71 855 b 417 -13 71 267 133 -13 z m 258 600 b 305 844 258 767 283 823 b 426 883 326 865 363 883 b 603 422 576 883 603 751 b 556 164 603 236 577 185 b 435 125 535 142 497 125 b 258 600 285 125 258 269 z "},"Ó":{"ha":861,"x_min":0,"x_max":0,"o":"m 417 -13 b 790 501 636 -13 790 158 b 449 1026 790 747 731 1026 b 71 513 230 1026 71 855 b 417 -13 71 267 133 -13 z m 258 600 b 305 844 258 767 283 823 b 426 883 326 865 363 883 b 603 422 576 883 603 751 b 556 164 603 236 577 185 b 435 125 535 142 497 125 b 258 600 285 125 258 269 z m 353 1131 l 490 1305 l 681 1305 l 508 1131 z "},"Ŏ":{"ha":861,"x_min":0,"x_max":0,"o":"m 417 -13 b 790 501 636 -13 790 158 b 449 1026 790 747 731 1026 b 71 513 230 1026 71 855 b 417 -13 71 267 133 -13 z m 202 1306 b 431 1121 197 1189 274 1121 b 659 1306 588 1121 665 1189 l 547 1306 b 431 1211 547 1250 513 1211 b 315 1306 348 1211 315 1250 z m 258 600 b 305 844 258 767 283 823 b 426 883 326 865 363 883 b 603 422 576 883 603 751 b 556 164 603 236 577 185 b 435 125 535 142 497 125 b 258 600 285 125 258 269 z "},"Ô":{"ha":861,"x_min":0,"x_max":0,"o":"m 417 -13 b 790 501 636 -13 790 158 b 449 1026 790 747 731 1026 b 71 513 230 1026 71 855 b 417 -13 71 267 133 -13 z m 161 1132 l 323 1132 l 431 1254 l 538 1132 l 700 1132 l 533 1306 l 328 1306 z m 258 600 b 305 844 258 767 283 823 b 426 883 326 865 363 883 b 603 422 576 883 603 751 b 556 164 603 236 577 185 b 435 125 535 142 497 125 b 258 600 285 125 258 269 z "},"Ö":{"ha":861,"x_min":0,"x_max":0,"o":"m 417 -13 b 790 501 636 -13 790 158 b 449 1026 790 747 731 1026 b 71 513 230 1026 71 855 b 417 -13 71 267 133 -13 z m 145 1228 b 244 1135 145 1171 185 1135 b 342 1228 303 1135 342 1171 b 244 1320 342 1285 303 1320 b 145 1228 185 1320 145 1285 z m 258 600 b 305 844 258 767 283 823 b 426 883 326 865 363 883 b 603 422 576 883 603 751 b 556 164 603 236 577 185 b 435 125 535 142 497 125 b 258 600 285 125 258 269 z m 519 1228 b 617 1135 519 1171 559 1135 b 717 1228 676 1135 717 1171 b 617 1320 717 1285 676 1320 b 519 1228 559 1320 519 1285 z "},"Ọ":{"ha":861,"x_min":0,"x_max":0,"o":"m 417 -13 b 790 501 636 -13 790 158 b 449 1026 790 747 731 1026 b 71 513 230 1026 71 855 b 417 -13 71 267 133 -13 z m 258 600 b 305 844 258 767 283 823 b 426 883 326 865 363 883 b 603 422 576 883 603 751 b 556 164 603 236 577 185 b 435 125 535 142 497 125 b 258 600 285 125 258 269 z m 310 -251 b 431 -362 310 -319 359 -362 b 551 -251 502 -362 551 -319 b 431 -142 551 -183 502 -142 b 310 -251 359 -142 310 -183 z "},"Ò":{"ha":861,"x_min":0,"x_max":0,"o":"m 417 -13 b 790 501 636 -13 790 158 b 449 1026 790 747 731 1026 b 71 513 230 1026 71 855 b 417 -13 71 267 133 -13 z m 180 1305 l 353 1131 l 508 1131 l 372 1305 z m 258 600 b 305 844 258 767 283 823 b 426 883 326 865 363 883 b 603 422 576 883 603 751 b 556 164 603 236 577 185 b 435 125 535 142 497 125 b 258 600 285 125 258 269 z "},"Ő":{"ha":861,"x_min":0,"x_max":0,"o":"m 417 -13 b 790 501 636 -13 790 158 b 449 1026 790 747 731 1026 b 71 513 230 1026 71 855 b 417 -13 71 267 133 -13 z m 229 1131 l 348 1131 l 465 1305 l 322 1305 z m 258 600 b 305 844 258 767 283 823 b 426 883 326 865 363 883 b 603 422 576 883 603 751 b 556 164 603 236 577 185 b 435 125 535 142 497 125 b 258 600 285 125 258 269 z m 508 1131 l 626 1131 l 744 1305 l 601 1305 z "},"Ō":{"ha":861,"x_min":0,"x_max":0,"o":"m 417 -13 b 790 501 636 -13 790 158 b 449 1026 790 747 731 1026 b 71 513 230 1026 71 855 b 417 -13 71 267 133 -13 z m 198 1183 l 663 1183 l 663 1296 l 198 1296 z m 258 600 b 305 844 258 767 283 823 b 426 883 326 865 363 883 b 603 422 576 883 603 751 b 556 164 603 236 577 185 b 435 125 535 142 497 125 b 258 600 285 125 258 269 z "},"Ǫ":{"ha":861,"x_min":0,"x_max":0,"o":"m 435 125 b 258 600 285 125 258 269 b 305 844 258 767 283 823 b 426 883 326 865 363 883 b 603 422 576 883 603 751 b 556 164 603 236 577 185 b 435 125 535 142 497 125 z m 71 513 b 353 -8 71 286 124 31 b 260 -171 290 -64 260 -113 b 452 -298 260 -235 297 -298 l 516 -298 l 516 -188 l 496 -188 b 417 -134 436 -188 417 -167 b 515 0 417 -98 442 -57 b 790 501 681 45 790 213 b 449 1026 790 747 731 1026 b 71 513 230 1026 71 855 z "},"Ø":{"ha":861,"x_min":0,"x_max":0,"o":"m 417 -13 b 790 501 636 -13 790 158 b 697 905 790 645 770 801 l 799 1128 l 651 1195 l 565 1007 b 449 1026 531 1019 492 1026 b 71 513 230 1026 71 855 b 166 110 71 369 92 215 l 63 -115 l 211 -181 l 297 7 b 417 -13 332 -6 372 -13 z m 258 600 b 305 844 258 767 283 823 b 426 883 326 865 363 883 b 515 858 463 883 492 875 l 276 291 b 258 600 262 367 258 469 z m 345 152 l 585 722 b 603 422 599 650 603 551 b 556 164 603 236 577 185 b 435 125 535 142 497 125 b 345 152 398 125 369 134 z "},"Ǿ":{"ha":861,"x_min":0,"x_max":0,"o":"m 417 -13 b 790 501 636 -13 790 158 b 697 905 790 645 770 801 l 799 1128 l 651 1195 l 565 1007 b 449 1026 531 1019 492 1026 b 71 513 230 1026 71 855 b 166 110 71 369 92 215 l 63 -115 l 211 -181 l 297 7 b 417 -13 332 -6 372 -13 z m 258 600 b 305 844 258 767 283 823 b 426 883 326 865 363 883 b 515 858 463 883 492 875 l 276 291 b 258 600 262 367 258 469 z m 319 1131 l 455 1305 l 647 1305 l 473 1131 z m 345 152 l 585 722 b 603 422 599 650 603 551 b 556 164 603 236 577 185 b 435 125 535 142 497 125 b 345 152 398 125 369 134 z "},"Õ":{"ha":861,"x_min":0,"x_max":0,"o":"m 417 -13 b 790 501 636 -13 790 158 b 449 1026 790 747 731 1026 b 71 513 230 1026 71 855 b 417 -13 71 267 133 -13 z m 144 1151 l 263 1127 b 340 1213 272 1184 301 1213 b 554 1121 410 1213 447 1121 b 717 1289 642 1121 703 1182 l 599 1313 b 522 1227 589 1256 560 1227 b 306 1319 451 1227 414 1319 b 144 1151 218 1319 158 1258 z m 258 600 b 305 844 258 767 283 823 b 426 883 326 865 363 883 b 603 422 576 883 603 751 b 556 164 603 236 577 185 b 435 125 535 142 497 125 b 258 600 285 125 258 269 z "},"Œ":{"ha":861,"x_min":0,"x_max":0,"o":"m 417 0 l 833 0 l 851 151 l 612 151 l 612 438 l 763 438 l 763 581 l 612 581 l 612 863 l 851 863 l 833 1014 l 444 1014 b 71 513 228 1012 71 840 b 417 0 71 280 133 0 z m 258 600 b 305 831 258 754 283 810 b 426 870 326 853 363 870 l 444 870 l 444 138 l 435 138 b 258 600 285 138 258 283 z "},"P":{"ha":861,"x_min":0,"x_max":0,"o":"m 294 0 l 294 341 l 317 344 b 791 736 615 378 791 500 b 468 1014 791 935 656 1014 l 110 1014 l 110 0 z m 294 477 l 294 879 l 413 879 b 606 717 549 879 606 819 b 311 479 606 567 484 497 z "},"Þ":{"ha":861,"x_min":0,"x_max":0,"o":"m 294 0 l 294 184 l 317 187 b 791 578 615 220 791 342 b 468 856 791 778 656 856 l 294 856 l 294 1014 l 110 1014 l 110 0 z m 294 320 l 294 722 l 413 722 b 606 559 549 722 606 662 b 311 322 606 409 484 340 z "},"Q":{"ha":861,"x_min":0,"x_max":0,"o":"m 444 1026 b 794 598 719 1026 794 797 b 488 69 794 314 646 151 b 428 42 468 59 448 50 l 351 117 b 397 140 367 124 382 132 b 488 69 423 113 453 90 b 860 -56 583 12 707 -25 l 790 -194 b 68 551 337 -128 68 122 b 444 1026 68 860 210 1026 z m 252 586 b 397 140 252 375 300 236 b 608 590 515 208 608 329 b 418 873 608 747 571 873 b 308 837 365 873 328 858 b 252 586 285 818 252 759 z "},"R":{"ha":861,"x_min":0,"x_max":0,"o":"m 294 0 l 294 878 l 429 878 b 596 745 539 878 596 841 b 347 485 596 633 514 552 l 347 460 l 612 2 l 828 2 l 545 451 b 789 775 698 525 789 635 b 463 1015 789 960 638 1016 l 109 1014 l 109 0 z "},"Ŕ":{"ha":861,"x_min":0,"x_max":0,"o":"m 294 0 l 294 878 l 429 878 b 596 745 539 878 596 841 b 347 485 596 633 514 552 l 347 460 l 612 2 l 828 2 l 545 451 b 789 775 698 525 789 635 b 463 1015 789 960 638 1016 l 109 1014 l 109 0 z m 353 1131 l 490 1305 l 681 1305 l 508 1131 z "},"Ř":{"ha":861,"x_min":0,"x_max":0,"o":"m 294 0 l 294 878 l 429 878 b 596 745 539 878 596 841 b 347 485 596 633 514 552 l 347 460 l 612 2 l 828 2 l 545 451 b 789 775 698 525 789 635 b 463 1015 789 960 638 1016 l 109 1014 l 109 0 z m 161 1306 l 323 1306 l 431 1183 l 538 1306 l 700 1306 l 533 1132 l 328 1132 z "},"Ŗ":{"ha":861,"x_min":0,"x_max":0,"o":"m 294 0 l 294 878 l 429 878 b 596 745 539 878 596 841 b 347 485 596 633 514 552 l 347 460 l 612 2 l 828 2 l 545 451 b 789 775 698 525 789 635 b 463 1015 789 960 638 1016 l 109 1014 l 109 0 z m 303 -470 l 357 -537 b 555 -285 458 -492 555 -412 b 428 -142 555 -187 499 -142 b 313 -247 362 -142 313 -182 b 428 -353 313 -313 362 -353 b 449 -352 435 -353 442 -353 b 303 -470 424 -404 365 -437 z "},"S":{"ha":861,"x_min":0,"x_max":0,"o":"m 740 851 l 732 1011 b 544 1032 667 1026 606 1032 b 112 734 329 1032 112 959 b 363 440 112 585 208 515 b 595 244 541 354 595 327 b 566 172 595 209 582 185 b 415 138 542 151 495 138 b 93 188 309 138 189 157 l 99 29 b 353 -14 164 8 253 -14 b 768 297 609 -14 768 107 b 481 593 762 470 631 524 b 276 774 367 647 276 692 b 304 840 276 808 288 827 b 495 875 326 858 372 875 b 740 851 570 875 651 869 z "},"Ś":{"ha":861,"x_min":0,"x_max":0,"o":"m 740 851 l 732 1011 b 544 1032 667 1026 606 1032 b 112 734 329 1032 112 959 b 363 440 112 585 208 515 b 595 244 541 354 595 327 b 566 172 595 209 582 185 b 415 138 542 151 495 138 b 93 188 309 138 189 157 l 99 29 b 353 -14 164 8 253 -14 b 768 297 609 -14 768 107 b 481 593 762 470 631 524 b 276 774 367 647 276 692 b 304 840 276 808 288 827 b 495 875 326 858 372 875 b 740 851 570 875 651 869 z m 353 1131 l 490 1305 l 681 1305 l 508 1131 z "},"Š":{"ha":861,"x_min":0,"x_max":0,"o":"m 740 851 l 732 1011 b 544 1032 667 1026 606 1032 b 112 734 329 1032 112 959 b 363 440 112 585 208 515 b 595 244 541 354 595 327 b 566 172 595 209 582 185 b 415 138 542 151 495 138 b 93 188 309 138 189 157 l 99 29 b 353 -14 164 8 253 -14 b 768 297 609 -14 768 107 b 481 593 762 470 631 524 b 276 774 367 647 276 692 b 304 840 276 808 288 827 b 495 875 326 858 372 875 b 740 851 570 875 651 869 z m 161 1306 l 323 1306 l 431 1183 l 538 1306 l 700 1306 l 533 1132 l 328 1132 z "},"Ş":{"ha":861,"x_min":0,"x_max":0,"o":"m 740 851 l 732 1011 b 544 1032 667 1026 606 1032 b 112 734 329 1032 112 959 b 363 440 112 585 208 515 b 595 244 541 354 595 327 b 566 172 595 209 582 185 b 415 138 542 151 495 138 b 93 188 309 138 189 157 l 99 29 b 353 -14 164 8 253 -14 b 377 -13 361 -14 369 -14 l 377 -184 b 474 -261 435 -190 474 -209 b 372 -329 474 -304 447 -329 l 331 -329 l 331 -426 l 390 -426 b 606 -272 560 -426 606 -366 b 483 -113 606 -178 563 -133 l 482 -2 b 768 297 661 32 768 141 b 481 593 762 470 631 524 b 276 774 367 647 276 692 b 304 840 276 808 288 827 b 495 875 326 858 372 875 b 740 851 570 875 651 869 z "},"Ŝ":{"ha":861,"x_min":0,"x_max":0,"o":"m 740 851 l 732 1011 b 544 1032 667 1026 606 1032 b 112 734 329 1032 112 959 b 363 440 112 585 208 515 b 595 244 541 354 595 327 b 566 172 595 209 582 185 b 415 138 542 151 495 138 b 93 188 309 138 189 157 l 99 29 b 353 -14 164 8 253 -14 b 768 297 609 -14 768 107 b 481 593 762 470 631 524 b 276 774 367 647 276 692 b 304 840 276 808 288 827 b 495 875 326 858 372 875 b 740 851 570 875 651 869 z m 161 1132 l 323 1132 l 431 1254 l 538 1132 l 700 1132 l 533 1306 l 328 1306 z "},"Ș":{"ha":861,"x_min":0,"x_max":0,"o":"m 740 851 l 732 1011 b 544 1032 667 1026 606 1032 b 112 734 329 1032 112 959 b 363 440 112 585 208 515 b 595 244 541 354 595 327 b 566 172 595 209 582 185 b 415 138 542 151 495 138 b 93 188 309 138 189 157 l 99 29 b 353 -14 164 8 253 -14 b 768 297 609 -14 768 107 b 481 593 762 470 631 524 b 276 774 367 647 276 692 b 304 840 276 808 288 827 b 495 875 326 858 372 875 b 740 851 570 875 651 869 z m 303 -470 l 357 -537 b 555 -285 458 -492 555 -412 b 428 -142 555 -187 499 -142 b 313 -247 362 -142 313 -182 b 428 -353 313 -313 362 -353 b 449 -352 435 -353 442 -353 b 303 -470 424 -404 365 -437 z "},"ẞ":{"ha":861,"x_min":0,"x_max":0,"o":"m 281 0 l 281 874 l 567 874 l 471 601 l 471 518 b 635 321 547 485 635 431 b 465 132 635 226 565 147 l 415 122 l 442 -14 l 472 -9 b 817 321 677 31 817 145 b 625 572 817 458 730 535 l 747 904 l 747 1014 l 105 1014 l 105 0 z "},"T":{"ha":861,"x_min":0,"x_max":0,"o":"m 520 0 l 520 863 l 801 863 l 788 1014 l 73 1014 l 59 863 l 339 863 l 339 0 z "},"Ŧ":{"ha":861,"x_min":0,"x_max":0,"o":"m 177 438 l 339 438 l 339 0 l 520 0 l 520 438 l 684 438 l 684 588 l 520 588 l 520 863 l 801 863 l 788 1014 l 73 1014 l 59 863 l 339 863 l 339 588 l 177 588 z "},"Ť":{"ha":861,"x_min":0,"x_max":0,"o":"m 520 0 l 520 863 l 801 863 l 788 1014 l 73 1014 l 59 863 l 339 863 l 339 0 z m 161 1306 l 323 1306 l 431 1183 l 538 1306 l 700 1306 l 533 1132 l 328 1132 z "},"Ţ":{"ha":861,"x_min":0,"x_max":0,"o":"m 520 0 l 520 863 l 801 863 l 788 1014 l 73 1014 l 59 863 l 339 863 l 339 0 l 378 0 l 378 -184 b 474 -261 435 -190 474 -209 b 372 -329 474 -304 447 -329 l 331 -329 l 331 -426 l 390 -426 b 606 -272 561 -426 606 -366 b 484 -113 606 -178 563 -133 l 483 0 z "},"Ț":{"ha":861,"x_min":0,"x_max":0,"o":"m 520 0 l 520 863 l 801 863 l 788 1014 l 73 1014 l 59 863 l 339 863 l 339 0 z m 303 -470 l 357 -537 b 556 -285 458 -492 556 -412 b 428 -142 556 -187 499 -142 b 313 -247 362 -142 313 -182 b 428 -353 313 -313 363 -353 b 449 -352 435 -353 442 -353 b 303 -470 424 -404 365 -437 z "},"U":{"ha":861,"x_min":0,"x_max":0,"o":"m 408 -13 b 772 318 608 -13 772 68 l 772 1014 l 590 1014 l 590 285 b 553 167 590 209 572 183 b 440 140 534 150 494 140 b 274 319 327 140 274 198 l 274 1014 l 89 1014 l 89 298 b 408 -13 89 103 201 -13 z "},"Ú":{"ha":861,"x_min":0,"x_max":0,"o":"m 408 -13 b 772 318 608 -13 772 68 l 772 1014 l 590 1014 l 590 285 b 553 167 590 209 572 183 b 440 140 534 150 494 140 b 274 319 327 140 274 198 l 274 1014 l 89 1014 l 89 298 b 408 -13 89 103 201 -13 z m 353 1131 l 490 1305 l 681 1305 l 508 1131 z "},"Ŭ":{"ha":861,"x_min":0,"x_max":0,"o":"m 408 -13 b 772 318 608 -13 772 68 l 772 1014 l 590 1014 l 590 285 b 553 167 590 209 572 183 b 440 140 534 150 494 140 b 274 319 327 140 274 198 l 274 1014 l 89 1014 l 89 298 b 408 -13 89 103 201 -13 z m 202 1306 b 431 1121 197 1189 274 1121 b 659 1306 588 1121 665 1189 l 547 1306 b 431 1211 547 1250 513 1211 b 315 1306 348 1211 315 1250 z "},"Û":{"ha":861,"x_min":0,"x_max":0,"o":"m 408 -13 b 772 318 608 -13 772 68 l 772 1014 l 590 1014 l 590 285 b 553 167 590 209 572 183 b 440 140 534 150 494 140 b 274 319 327 140 274 198 l 274 1014 l 89 1014 l 89 298 b 408 -13 89 103 201 -13 z m 161 1132 l 323 1132 l 431 1254 l 538 1132 l 700 1132 l 533 1306 l 328 1306 z "},"Ü":{"ha":861,"x_min":0,"x_max":0,"o":"m 408 -13 b 772 318 608 -13 772 68 l 772 1014 l 590 1014 l 590 285 b 553 167 590 209 572 183 b 440 140 534 150 494 140 b 274 319 327 140 274 198 l 274 1014 l 89 1014 l 89 298 b 408 -13 89 103 201 -13 z m 145 1228 b 244 1135 145 1171 185 1135 b 342 1228 303 1135 342 1171 b 244 1320 342 1285 303 1320 b 145 1228 185 1320 145 1285 z m 519 1228 b 617 1135 519 1171 559 1135 b 717 1228 676 1135 717 1171 b 617 1320 717 1285 676 1320 b 519 1228 559 1320 519 1285 z "},"Ụ":{"ha":861,"x_min":0,"x_max":0,"o":"m 408 -13 b 772 318 608 -13 772 68 l 772 1014 l 590 1014 l 590 285 b 553 167 590 209 572 183 b 440 140 534 150 494 140 b 274 319 327 140 274 198 l 274 1014 l 89 1014 l 89 298 b 408 -13 89 103 201 -13 z m 310 -251 b 431 -362 310 -319 359 -362 b 551 -251 502 -362 551 -319 b 431 -142 551 -183 502 -142 b 310 -251 359 -142 310 -183 z "},"Ù":{"ha":861,"x_min":0,"x_max":0,"o":"m 408 -13 b 772 318 608 -13 772 68 l 772 1014 l 590 1014 l 590 285 b 553 167 590 209 572 183 b 440 140 534 150 494 140 b 274 319 327 140 274 198 l 274 1014 l 89 1014 l 89 298 b 408 -13 89 103 201 -13 z m 180 1305 l 353 1131 l 508 1131 l 372 1305 z "},"Ű":{"ha":861,"x_min":0,"x_max":0,"o":"m 408 -13 b 772 318 608 -13 772 68 l 772 1014 l 590 1014 l 590 285 b 553 167 590 209 572 183 b 440 140 534 150 494 140 b 274 319 327 140 274 198 l 274 1014 l 89 1014 l 89 298 b 408 -13 89 103 201 -13 z m 229 1131 l 348 1131 l 465 1305 l 322 1305 z m 508 1131 l 626 1131 l 744 1305 l 601 1305 z "},"Ū":{"ha":861,"x_min":0,"x_max":0,"o":"m 408 -13 b 772 318 608 -13 772 68 l 772 1014 l 590 1014 l 590 285 b 553 167 590 209 572 183 b 440 140 534 150 494 140 b 274 319 327 140 274 198 l 274 1014 l 89 1014 l 89 298 b 408 -13 89 103 201 -13 z m 198 1183 l 663 1183 l 663 1296 l 198 1296 z "},"Ų":{"ha":861,"x_min":0,"x_max":0,"o":"m 89 298 b 367 -12 89 116 187 3 b 278 -171 306 -66 278 -115 b 470 -298 278 -235 315 -298 l 534 -298 l 534 -188 l 514 -188 b 435 -134 454 -188 435 -167 b 533 -1 435 -98 460 -57 b 772 318 672 31 772 123 l 772 1014 l 590 1014 l 590 285 b 553 167 590 209 572 183 b 440 140 534 150 494 140 b 274 319 327 140 274 198 l 274 1014 l 89 1014 z "},"Ů":{"ha":861,"x_min":0,"x_max":0,"o":"m 408 -13 b 772 318 608 -13 772 68 l 772 1014 l 590 1014 l 590 285 b 553 167 590 209 572 183 b 440 140 534 150 494 140 b 274 319 327 140 274 198 l 274 1014 l 89 1014 l 89 298 b 408 -13 89 103 201 -13 z m 267 1144 b 431 976 267 1047 334 976 b 594 1144 527 976 594 1047 b 431 1312 594 1241 527 1312 b 267 1144 334 1312 267 1241 z m 342 1144 b 431 1235 342 1197 376 1235 b 519 1144 485 1235 519 1197 b 431 1053 519 1092 485 1053 b 342 1144 376 1053 342 1092 z "},"Ũ":{"ha":861,"x_min":0,"x_max":0,"o":"m 408 -13 b 772 318 608 -13 772 68 l 772 1014 l 590 1014 l 590 285 b 553 167 590 209 572 183 b 440 140 534 150 494 140 b 274 319 327 140 274 198 l 274 1014 l 89 1014 l 89 298 b 408 -13 89 103 201 -13 z m 144 1151 l 263 1127 b 340 1213 272 1184 301 1213 b 554 1121 410 1213 447 1121 b 717 1289 642 1121 703 1182 l 599 1313 b 522 1227 589 1256 560 1227 b 306 1319 451 1227 414 1319 b 144 1151 218 1319 158 1258 z "},"V":{"ha":861,"x_min":0,"x_max":0,"o":"m 251 1014 l 64 1014 b 349 0 108 671 184 342 l 519 0 b 797 1014 678 338 757 676 l 626 1014 b 447 228 595 736 540 464 l 432 228 b 251 1014 339 464 283 736 z "},"W":{"ha":861,"x_min":0,"x_max":0,"o":"m 556 0 l 671 1 b 840 1014 763 328 820 667 l 684 1014 b 599 364 669 798 639 570 l 583 364 b 492 845 543 531 513 703 l 383 845 b 285 364 360 703 329 531 l 272 364 b 190 1014 232 575 203 798 l 22 1014 b 192 1 42 667 99 328 l 297 0 b 424 583 354 194 394 400 l 436 583 b 556 0 465 401 502 195 z "},"Ẃ":{"ha":861,"x_min":0,"x_max":0,"o":"m 556 0 l 671 1 b 840 1014 763 328 820 667 l 684 1014 b 599 364 669 798 639 570 l 583 364 b 492 845 543 531 513 703 l 383 845 b 285 364 360 703 329 531 l 272 364 b 190 1014 232 575 203 798 l 22 1014 b 192 1 42 667 99 328 l 297 0 b 424 583 354 194 394 400 l 436 583 b 556 0 465 401 502 195 z m 353 1131 l 490 1305 l 681 1305 l 508 1131 z "},"Ŵ":{"ha":861,"x_min":0,"x_max":0,"o":"m 556 0 l 671 1 b 840 1014 763 328 820 667 l 684 1014 b 599 364 669 798 639 570 l 583 364 b 492 845 543 531 513 703 l 383 845 b 285 364 360 703 329 531 l 272 364 b 190 1014 232 575 203 798 l 22 1014 b 192 1 42 667 99 328 l 297 0 b 424 583 354 194 394 400 l 436 583 b 556 0 465 401 502 195 z m 161 1132 l 323 1132 l 431 1254 l 538 1132 l 700 1132 l 533 1306 l 328 1306 z "},"Ẅ":{"ha":861,"x_min":0,"x_max":0,"o":"m 556 0 l 671 1 b 840 1014 763 328 820 667 l 684 1014 b 599 364 669 798 639 570 l 583 364 b 492 845 543 531 513 703 l 383 845 b 285 364 360 703 329 531 l 272 364 b 190 1014 232 575 203 798 l 22 1014 b 192 1 42 667 99 328 l 297 0 b 424 583 354 194 394 400 l 436 583 b 556 0 465 401 502 195 z m 145 1228 b 244 1135 145 1171 185 1135 b 342 1228 303 1135 342 1171 b 244 1320 342 1285 303 1320 b 145 1228 185 1320 145 1285 z m 519 1228 b 617 1135 519 1171 559 1135 b 717 1228 676 1135 717 1171 b 617 1320 717 1285 676 1320 b 519 1228 559 1320 519 1285 z "},"Ẁ":{"ha":861,"x_min":0,"x_max":0,"o":"m 556 0 l 671 1 b 840 1014 763 328 820 667 l 684 1014 b 599 364 669 798 639 570 l 583 364 b 492 845 543 531 513 703 l 383 845 b 285 364 360 703 329 531 l 272 364 b 190 1014 232 575 203 798 l 22 1014 b 192 1 42 667 99 328 l 297 0 b 424 583 354 194 394 400 l 436 583 b 556 0 465 401 502 195 z m 180 1305 l 353 1131 l 508 1131 l 372 1305 z "},"X":{"ha":861,"x_min":0,"x_max":0,"o":"m 47 1014 l 325 521 l 38 1 l 233 1 l 414 363 l 618 1 l 817 1 l 528 511 l 813 1014 l 628 1012 l 447 656 l 244 1012 z "},"Y":{"ha":861,"x_min":0,"x_max":0,"o":"m 521 0 l 521 437 b 823 1014 664 628 765 824 l 650 1014 b 447 590 605 857 527 713 l 432 590 b 228 1014 351 713 274 857 l 38 1014 b 340 441 99 822 197 633 l 340 0 z "},"Ý":{"ha":861,"x_min":0,"x_max":0,"o":"m 521 0 l 521 437 b 823 1014 664 628 765 824 l 650 1014 b 447 590 605 857 527 713 l 432 590 b 228 1014 351 713 274 857 l 38 1014 b 340 441 99 822 197 633 l 340 0 z m 353 1131 l 490 1305 l 681 1305 l 508 1131 z "},"Ŷ":{"ha":861,"x_min":0,"x_max":0,"o":"m 521 0 l 521 437 b 823 1014 664 628 765 824 l 650 1014 b 447 590 605 857 527 713 l 432 590 b 228 1014 351 713 274 857 l 38 1014 b 340 441 99 822 197 633 l 340 0 z m 161 1132 l 323 1132 l 431 1254 l 538 1132 l 700 1132 l 533 1306 l 328 1306 z "},"Ÿ":{"ha":861,"x_min":0,"x_max":0,"o":"m 521 0 l 521 437 b 823 1014 664 628 765 824 l 650 1014 b 447 590 605 857 527 713 l 432 590 b 228 1014 351 713 274 857 l 38 1014 b 340 441 99 822 197 633 l 340 0 z m 145 1228 b 244 1135 145 1171 185 1135 b 342 1228 303 1135 342 1171 b 244 1320 342 1285 303 1320 b 145 1228 185 1320 145 1285 z m 519 1228 b 617 1135 519 1171 559 1135 b 717 1228 676 1135 717 1171 b 617 1320 717 1285 676 1320 b 519 1228 559 1320 519 1285 z "},"Ỳ":{"ha":861,"x_min":0,"x_max":0,"o":"m 521 0 l 521 437 b 823 1014 664 628 765 824 l 650 1014 b 447 590 605 857 527 713 l 432 590 b 228 1014 351 713 274 857 l 38 1014 b 340 441 99 822 197 633 l 340 0 z m 180 1305 l 353 1131 l 508 1131 l 372 1305 z "},"Ȳ":{"ha":861,"x_min":0,"x_max":0,"o":"m 521 0 l 521 437 b 823 1014 664 628 765 824 l 650 1014 b 447 590 605 857 527 713 l 432 590 b 228 1014 351 713 274 857 l 38 1014 b 340 441 99 822 197 633 l 340 0 z m 198 1183 l 663 1183 l 663 1296 l 198 1296 z "},"Ỹ":{"ha":861,"x_min":0,"x_max":0,"o":"m 521 0 l 521 437 b 823 1014 664 628 765 824 l 650 1014 b 447 590 605 857 527 713 l 432 590 b 228 1014 351 713 274 857 l 38 1014 b 340 441 99 822 197 633 l 340 0 z m 144 1151 l 263 1127 b 340 1213 272 1184 301 1213 b 554 1121 410 1213 447 1121 b 717 1289 642 1121 703 1182 l 599 1313 b 522 1227 589 1256 560 1227 b 306 1319 451 1227 414 1319 b 144 1151 218 1319 158 1258 z "},"Z":{"ha":861,"x_min":0,"x_max":0,"o":"m 122 1013 l 72 867 l 512 867 l 95 96 l 110 1 l 740 1 l 797 157 l 326 157 l 739 924 l 722 1014 z "},"Ź":{"ha":861,"x_min":0,"x_max":0,"o":"m 122 1013 l 72 867 l 512 867 l 95 96 l 110 1 l 740 1 l 797 157 l 326 157 l 739 924 l 722 1014 z m 353 1131 l 490 1305 l 681 1305 l 508 1131 z "},"Ž":{"ha":861,"x_min":0,"x_max":0,"o":"m 122 1013 l 72 867 l 512 867 l 95 96 l 110 1 l 740 1 l 797 157 l 326 157 l 739 924 l 722 1014 z m 161 1306 l 323 1306 l 431 1183 l 538 1306 l 700 1306 l 533 1132 l 328 1132 z "},"Ż":{"ha":861,"x_min":0,"x_max":0,"o":"m 122 1013 l 72 867 l 512 867 l 95 96 l 110 1 l 740 1 l 797 157 l 326 157 l 739 924 l 722 1014 z m 328 1228 b 428 1135 328 1171 369 1135 b 530 1228 489 1135 530 1171 b 428 1320 530 1285 489 1320 b 328 1228 369 1320 328 1285 z "},"a":{"ha":861,"x_min":0,"x_max":0,"o":"m 742 0 l 742 537 b 451 749 742 684 649 749 b 128 697 337 749 222 726 l 109 531 b 431 594 238 575 349 594 b 562 503 506 594 562 571 l 562 424 b 82 176 367 415 82 371 b 303 -16 82 64 163 -16 b 549 61 372 -16 464 5 l 562 61 l 562 0 z m 265 208 b 337 290 265 248 283 275 b 562 305 403 308 499 307 l 562 156 b 390 111 506 128 442 111 b 265 208 315 111 265 147 z "},"á":{"ha":861,"x_min":0,"x_max":0,"o":"m 742 0 l 742 537 b 451 749 742 684 649 749 b 128 697 337 749 222 726 l 109 531 b 431 594 238 575 349 594 b 562 503 506 594 562 571 l 562 424 b 82 176 367 415 82 371 b 303 -16 82 64 163 -16 b 549 61 372 -16 464 5 l 562 61 l 562 0 z m 265 208 b 337 290 265 248 283 275 b 562 305 403 308 499 307 l 562 156 b 390 111 506 128 442 111 b 265 208 315 111 265 147 z m 353 885 l 490 1131 l 681 1131 l 508 885 z "},"ă":{"ha":861,"x_min":0,"x_max":0,"o":"m 742 0 l 742 537 b 451 749 742 684 649 749 b 128 697 337 749 222 726 l 109 531 b 431 594 238 575 349 594 b 562 503 506 594 562 571 l 562 424 b 82 176 367 415 82 371 b 303 -16 82 64 163 -16 b 549 61 372 -16 464 5 l 562 61 l 562 0 z m 202 1131 b 431 878 197 967 274 878 b 659 1131 588 878 665 967 l 547 1131 b 431 990 547 1041 513 990 b 315 1131 348 990 315 1041 z m 265 208 b 337 290 265 248 283 275 b 562 305 403 308 499 307 l 562 156 b 390 111 506 128 442 111 b 265 208 315 111 265 147 z "},"â":{"ha":861,"x_min":0,"x_max":0,"o":"m 742 0 l 742 537 b 451 749 742 684 649 749 b 128 697 337 749 222 726 l 109 531 b 431 594 238 575 349 594 b 562 503 506 594 562 571 l 562 424 b 82 176 367 415 82 371 b 303 -16 82 64 163 -16 b 549 61 372 -16 464 5 l 562 61 l 562 0 z m 161 885 l 316 885 l 431 1063 l 545 885 l 700 885 l 531 1131 l 330 1131 z m 265 208 b 337 290 265 248 283 275 b 562 305 403 308 499 307 l 562 156 b 390 111 506 128 442 111 b 265 208 315 111 265 147 z "},"ä":{"ha":861,"x_min":0,"x_max":0,"o":"m 742 0 l 742 537 b 451 749 742 684 649 749 b 128 697 337 749 222 726 l 109 531 b 431 594 238 575 349 594 b 562 503 506 594 562 571 l 562 424 b 82 176 367 415 82 371 b 303 -16 82 64 163 -16 b 549 61 372 -16 464 5 l 562 61 l 562 0 z m 135 983 b 244 872 135 915 179 872 b 352 983 308 872 352 915 b 244 1092 352 1051 308 1092 b 135 983 179 1092 135 1051 z m 265 208 b 337 290 265 248 283 275 b 562 305 403 308 499 307 l 562 156 b 390 111 506 128 442 111 b 265 208 315 111 265 147 z m 509 983 b 617 872 509 915 553 872 b 726 983 682 872 726 915 b 617 1092 726 1051 682 1092 b 509 983 553 1092 509 1051 z "},"à":{"ha":861,"x_min":0,"x_max":0,"o":"m 742 0 l 742 537 b 451 749 742 684 649 749 b 128 697 337 749 222 726 l 109 531 b 431 594 238 575 349 594 b 562 503 506 594 562 571 l 562 424 b 82 176 367 415 82 371 b 303 -16 82 64 163 -16 b 549 61 372 -16 464 5 l 562 61 l 562 0 z m 180 1131 l 353 885 l 508 885 l 372 1131 z m 265 208 b 337 290 265 248 283 275 b 562 305 403 308 499 307 l 562 156 b 390 111 506 128 442 111 b 265 208 315 111 265 147 z "},"ā":{"ha":861,"x_min":0,"x_max":0,"o":"m 742 0 l 742 537 b 451 749 742 684 649 749 b 128 697 337 749 222 726 l 109 531 b 431 594 238 575 349 594 b 562 503 506 594 562 571 l 562 424 b 82 176 367 415 82 371 b 303 -16 82 64 163 -16 b 549 61 372 -16 464 5 l 562 61 l 562 0 z m 198 911 l 663 911 l 663 1024 l 198 1024 z m 265 208 b 337 290 265 248 283 275 b 562 305 403 308 499 307 l 562 156 b 390 111 506 128 442 111 b 265 208 315 111 265 147 z "},"ą":{"ha":861,"x_min":0,"x_max":0,"o":"m 742 0 l 742 537 b 451 749 742 684 649 749 b 128 697 337 749 222 726 l 109 531 b 431 594 238 575 349 594 b 562 503 506 594 562 571 l 562 424 b 82 176 367 415 82 371 b 303 -16 82 64 163 -16 b 549 61 372 -16 464 5 l 562 61 l 562 0 l 588 0 b 486 -171 519 -59 486 -110 b 678 -298 486 -235 524 -298 l 742 -298 l 742 -188 l 722 -188 b 643 -134 663 -188 643 -167 b 742 0 643 -98 668 -57 z m 265 208 b 337 290 265 248 283 275 b 562 305 403 308 499 307 l 562 156 b 390 111 506 128 442 111 b 265 208 315 111 265 147 z "},"å":{"ha":861,"x_min":0,"x_max":0,"o":"m 742 0 l 742 537 b 451 749 742 684 649 749 b 128 697 337 749 222 726 l 109 531 b 431 594 238 575 349 594 b 562 503 506 594 562 571 l 562 424 b 82 176 367 415 82 371 b 303 -16 82 64 163 -16 b 549 61 372 -16 464 5 l 562 61 l 562 0 z m 265 208 b 337 290 265 248 283 275 b 562 305 403 308 499 307 l 562 156 b 390 111 506 128 442 111 b 265 208 315 111 265 147 z m 267 1010 b 431 842 267 913 334 842 b 594 1010 527 842 594 913 b 431 1178 594 1107 527 1178 b 267 1010 334 1178 267 1107 z m 342 1010 b 431 1101 342 1062 376 1101 b 519 1010 485 1101 519 1062 b 431 919 519 958 485 919 b 342 1010 376 919 342 958 z "},"ã":{"ha":861,"x_min":0,"x_max":0,"o":"m 742 0 l 742 537 b 451 749 742 684 649 749 b 128 697 337 749 222 726 l 109 531 b 431 594 238 575 349 594 b 562 503 506 594 562 571 l 562 424 b 82 176 367 415 82 371 b 303 -16 82 64 163 -16 b 549 61 372 -16 464 5 l 562 61 l 562 0 z m 140 906 l 258 874 b 335 994 268 950 294 994 b 551 865 403 994 443 865 b 713 1092 638 865 699 948 l 594 1125 b 519 1004 585 1047 558 1004 b 301 1133 449 1004 409 1133 b 140 906 214 1133 153 1050 z m 265 208 b 337 290 265 248 283 275 b 562 305 403 308 499 307 l 562 156 b 390 111 506 128 442 111 b 265 208 315 111 265 147 z "},"æ":{"ha":861,"x_min":0,"x_max":0,"o":"m 619 -17 b 792 26 683 -17 744 4 l 796 158 b 656 125 745 140 698 125 b 508 344 554 125 515 219 l 820 344 l 820 440 b 620 748 820 630 758 748 b 454 660 560 748 498 722 b 265 748 414 722 341 748 b 81 697 199 748 135 729 l 63 535 b 253 598 129 576 199 598 b 370 494 307 598 370 575 l 370 423 b 37 171 218 413 37 348 b 222 -17 37 54 113 -17 b 416 66 298 -17 368 16 l 444 66 b 619 -17 485 11 544 -17 z m 181 205 b 253 292 181 248 198 274 b 376 306 295 304 338 306 b 406 138 378 239 389 183 b 285 106 367 119 324 106 b 181 205 215 106 181 147 z m 508 444 b 543 597 512 533 527 578 b 599 620 558 615 580 620 b 693 466 658 620 693 564 b 692 444 693 458 693 451 z "},"ǽ":{"ha":861,"x_min":0,"x_max":0,"o":"m 619 -17 b 792 26 683 -17 744 4 l 796 158 b 656 125 745 140 698 125 b 508 344 554 125 515 219 l 820 344 l 820 440 b 620 748 820 630 758 748 b 454 660 560 748 498 722 b 265 748 414 722 341 748 b 81 697 199 748 135 729 l 63 535 b 253 598 129 576 199 598 b 370 494 307 598 370 575 l 370 423 b 37 171 218 413 37 348 b 222 -17 37 54 113 -17 b 416 66 298 -17 368 16 l 444 66 b 619 -17 485 11 544 -17 z m 181 205 b 253 292 181 248 198 274 b 376 306 295 304 338 306 b 406 138 378 239 389 183 b 285 106 367 119 324 106 b 181 205 215 106 181 147 z m 353 885 l 490 1131 l 681 1131 l 508 885 z m 508 444 b 543 597 512 533 527 578 b 599 620 558 615 580 620 b 693 466 658 620 693 564 b 692 444 693 458 693 451 z "},"b":{"ha":861,"x_min":0,"x_max":0,"o":"m 797 405 b 513 747 797 622 691 747 b 282 652 414 747 340 708 l 272 652 l 272 1063 l 90 1063 l 90 -7 l 131 -7 l 183 29 b 394 -16 249 -1 319 -16 b 797 405 615 -16 797 118 z m 272 149 l 272 572 b 431 609 326 594 381 609 b 608 362 579 609 608 486 b 538 147 608 219 572 169 b 425 117 503 125 469 117 b 272 149 371 117 321 128 z "},"c":{"ha":861,"x_min":0,"x_max":0,"o":"m 543 748 b 100 352 310 748 100 642 b 503 -17 100 113 245 -17 b 757 32 626 -17 709 10 l 762 172 b 535 138 691 153 609 138 b 281 390 391 138 281 208 b 343 549 281 488 316 529 b 492 581 374 570 414 581 b 759 558 559 581 663 573 l 745 721 b 543 748 686 737 619 748 z "},"ć":{"ha":861,"x_min":0,"x_max":0,"o":"m 543 748 b 100 352 310 748 100 642 b 503 -17 100 113 245 -17 b 757 32 626 -17 709 10 l 762 172 b 535 138 691 153 609 138 b 281 390 391 138 281 208 b 343 549 281 488 316 529 b 492 581 374 570 414 581 b 759 558 559 581 663 573 l 745 721 b 543 748 686 737 619 748 z m 397 885 l 533 1131 l 726 1131 l 551 885 z "},"č":{"ha":861,"x_min":0,"x_max":0,"o":"m 543 748 b 100 352 310 748 100 642 b 503 -17 100 113 245 -17 b 757 32 626 -17 709 10 l 762 172 b 535 138 691 153 609 138 b 281 390 391 138 281 208 b 343 549 281 488 316 529 b 492 581 374 570 414 581 b 759 558 559 581 663 573 l 745 721 b 543 748 686 737 619 748 z m 205 1131 l 360 1131 l 474 952 l 589 1131 l 744 1131 l 575 885 l 374 885 z "},"ç":{"ha":861,"x_min":0,"x_max":0,"o":"m 543 748 b 100 352 310 748 100 642 b 377 -5 100 155 199 33 l 377 -184 b 474 -261 435 -190 474 -209 b 372 -329 474 -304 447 -329 l 331 -329 l 331 -426 l 390 -426 b 606 -272 560 -426 606 -366 b 483 -113 606 -178 563 -133 l 482 -17 l 503 -17 b 757 32 626 -17 709 10 l 762 172 b 535 138 691 153 609 138 b 281 390 391 138 281 208 b 343 549 281 488 316 529 b 492 581 374 570 414 581 b 759 558 559 581 663 573 l 745 721 b 543 748 686 737 619 748 z "},"ĉ":{"ha":861,"x_min":0,"x_max":0,"o":"m 543 748 b 100 352 310 748 100 642 b 503 -17 100 113 245 -17 b 757 32 626 -17 709 10 l 762 172 b 535 138 691 153 609 138 b 281 390 391 138 281 208 b 343 549 281 488 316 529 b 492 581 374 570 414 581 b 759 558 559 581 663 573 l 745 721 b 543 748 686 737 619 748 z m 205 885 l 360 885 l 474 1063 l 589 885 l 744 885 l 575 1131 l 374 1131 z "},"ċ":{"ha":861,"x_min":0,"x_max":0,"o":"m 543 748 b 100 352 310 748 100 642 b 503 -17 100 113 245 -17 b 757 32 626 -17 709 10 l 762 172 b 535 138 691 153 609 138 b 281 390 391 138 281 208 b 343 549 281 488 316 529 b 492 581 374 570 414 581 b 759 558 559 581 663 573 l 745 721 b 543 748 686 737 619 748 z m 355 985 b 474 874 355 917 403 874 b 594 985 546 874 594 917 b 474 1094 594 1053 546 1094 b 355 985 403 1094 355 1053 z "},"d":{"ha":861,"x_min":0,"x_max":0,"o":"m 64 327 b 348 -16 64 109 170 -16 b 579 79 447 -16 521 24 l 599 79 l 599 0 l 770 0 l 770 1063 l 590 1063 l 590 733 b 467 747 550 742 510 747 b 64 327 247 747 64 613 z m 253 369 b 324 585 253 513 290 563 b 436 615 358 607 392 615 b 590 582 490 615 540 603 l 590 159 b 431 122 535 137 481 122 b 253 369 282 122 253 246 z "},"ð":{"ha":861,"x_min":0,"x_max":0,"o":"m 706 1070 l 507 997 b 426 1078 479 1027 451 1055 l 269 1022 b 345 937 292 995 318 969 l 166 871 l 196 785 l 406 863 l 435 823 b 533 669 472 772 505 722 b 418 688 499 681 460 688 b 70 330 260 688 70 584 b 424 -17 70 101 222 -17 b 788 389 600 -17 788 88 b 590 898 788 599 684 775 l 570 923 l 736 984 z m 247 349 b 303 531 247 456 276 513 b 417 558 331 549 371 558 b 594 517 483 558 542 546 b 616 351 608 466 616 411 b 553 142 616 218 581 161 b 439 115 528 124 492 115 b 247 349 267 115 247 242 z "},"ď":{"ha":861,"x_min":0,"x_max":0,"o":"m 67 327 b 319 -16 67 109 165 -16 b 514 79 404 -16 461 24 l 531 79 l 531 0 l 697 0 l 697 1063 l 521 1063 l 521 735 b 429 747 489 743 458 747 b 67 327 240 747 67 611 z m 241 370 b 304 583 241 513 273 558 b 426 615 334 606 384 615 b 521 594 456 615 487 608 l 521 157 b 389 122 472 135 427 122 b 241 370 272 122 241 245 z m 778 904 l 901 904 l 927 1165 l 790 1165 z "},"đ":{"ha":861,"x_min":0,"x_max":0,"o":"m 64 327 b 348 -16 64 109 170 -16 b 579 79 447 -16 521 24 l 599 79 l 599 0 l 770 0 l 770 871 l 833 871 l 833 967 l 770 967 l 770 1063 l 590 1063 l 590 967 l 286 967 l 286 871 l 590 871 l 590 733 b 467 747 550 742 510 747 b 64 327 247 747 64 613 z m 253 369 b 324 585 253 513 290 563 b 436 615 358 607 392 615 b 590 582 490 615 540 603 l 590 159 b 431 122 535 137 481 122 b 253 369 282 122 253 246 z "},"e":{"ha":861,"x_min":0,"x_max":0,"o":"m 333 588 b 445 620 353 605 388 620 b 603 466 550 620 603 572 b 603 449 603 460 603 454 l 269 449 b 333 588 276 529 308 569 z m 91 345 b 481 -17 91 107 226 -17 b 735 26 588 -17 674 5 l 739 158 b 531 125 685 141 612 125 b 270 348 338 125 282 215 l 769 348 l 769 440 b 483 748 769 623 686 748 b 91 345 288 748 91 631 z "},"é":{"ha":861,"x_min":0,"x_max":0,"o":"m 333 588 b 445 620 353 605 388 620 b 603 466 550 620 603 572 b 603 449 603 460 603 454 l 269 449 b 333 588 276 529 308 569 z m 91 345 b 481 -17 91 107 226 -17 b 735 26 588 -17 674 5 l 739 158 b 531 125 685 141 612 125 b 270 348 338 125 282 215 l 769 348 l 769 440 b 483 748 769 623 686 748 b 91 345 288 748 91 631 z m 372 885 l 508 1131 l 700 1131 l 526 885 z "},"ĕ":{"ha":861,"x_min":0,"x_max":0,"o":"m 333 588 b 445 620 353 605 388 620 b 603 466 550 620 603 572 b 603 449 603 460 603 454 l 269 449 b 333 588 276 529 308 569 z m 91 345 b 481 -17 91 107 226 -17 b 735 26 588 -17 674 5 l 739 158 b 531 125 685 141 612 125 b 270 348 338 125 282 215 l 769 348 l 769 440 b 483 748 769 623 686 748 b 91 345 288 748 91 631 z m 221 1131 b 449 878 215 967 292 878 b 678 1131 606 878 683 967 l 565 1131 b 449 990 565 1041 531 990 b 333 1131 367 990 333 1041 z "},"ě":{"ha":861,"x_min":0,"x_max":0,"o":"m 333 588 b 445 620 353 605 388 620 b 603 466 550 620 603 572 b 603 449 603 460 603 454 l 269 449 b 333 588 276 529 308 569 z m 91 345 b 481 -17 91 107 226 -17 b 735 26 588 -17 674 5 l 739 158 b 531 125 685 141 612 125 b 270 348 338 125 282 215 l 769 348 l 769 440 b 483 748 769 623 686 748 b 91 345 288 748 91 631 z m 180 1131 l 335 1131 l 449 952 l 564 1131 l 719 1131 l 549 885 l 349 885 z "},"ê":{"ha":861,"x_min":0,"x_max":0,"o":"m 333 588 b 445 620 353 605 388 620 b 603 466 550 620 603 572 b 603 449 603 460 603 454 l 269 449 b 333 588 276 529 308 569 z m 91 345 b 481 -17 91 107 226 -17 b 735 26 588 -17 674 5 l 739 158 b 531 125 685 141 612 125 b 270 348 338 125 282 215 l 769 348 l 769 440 b 483 748 769 623 686 748 b 91 345 288 748 91 631 z m 180 885 l 335 885 l 449 1063 l 564 885 l 719 885 l 549 1131 l 349 1131 z "},"ë":{"ha":861,"x_min":0,"x_max":0,"o":"m 333 588 b 445 620 353 605 388 620 b 603 466 550 620 603 572 b 603 449 603 460 603 454 l 269 449 b 333 588 276 529 308 569 z m 91 345 b 481 -17 91 107 226 -17 b 735 26 588 -17 674 5 l 739 158 b 531 125 685 141 612 125 b 270 348 338 125 282 215 l 769 348 l 769 440 b 483 748 769 623 686 748 b 91 345 288 748 91 631 z m 154 983 b 263 872 154 915 198 872 b 370 983 326 872 370 915 b 263 1092 370 1051 326 1092 b 154 983 198 1092 154 1051 z m 528 983 b 636 872 528 915 572 872 b 744 983 700 872 744 915 b 636 1092 744 1051 700 1092 b 528 983 572 1092 528 1051 z "},"ė":{"ha":861,"x_min":0,"x_max":0,"o":"m 333 588 b 445 620 353 605 388 620 b 603 466 550 620 603 572 b 603 449 603 460 603 454 l 269 449 b 333 588 276 529 308 569 z m 91 345 b 481 -17 91 107 226 -17 b 735 26 588 -17 674 5 l 739 158 b 531 125 685 141 612 125 b 270 348 338 125 282 215 l 769 348 l 769 440 b 483 748 769 623 686 748 b 91 345 288 748 91 631 z m 329 985 b 449 874 329 917 378 874 b 569 985 520 874 569 917 b 449 1094 569 1053 520 1094 b 329 985 378 1094 329 1053 z "},"ẹ":{"ha":861,"x_min":0,"x_max":0,"o":"m 333 588 b 445 620 353 605 388 620 b 603 466 550 620 603 572 b 603 449 603 460 603 454 l 269 449 b 333 588 276 529 308 569 z m 91 345 b 481 -17 91 107 226 -17 b 735 26 588 -17 674 5 l 739 158 b 531 125 685 141 612 125 b 270 348 338 125 282 215 l 769 348 l 769 440 b 483 748 769 623 686 748 b 91 345 288 748 91 631 z m 310 -251 b 431 -362 310 -319 359 -362 b 551 -251 502 -362 551 -319 b 431 -142 551 -183 502 -142 b 310 -251 359 -142 310 -183 z "},"è":{"ha":861,"x_min":0,"x_max":0,"o":"m 333 588 b 445 620 353 605 388 620 b 603 466 550 620 603 572 b 603 449 603 460 603 454 l 269 449 b 333 588 276 529 308 569 z m 91 345 b 481 -17 91 107 226 -17 b 735 26 588 -17 674 5 l 739 158 b 531 125 685 141 612 125 b 270 348 338 125 282 215 l 769 348 l 769 440 b 483 748 769 623 686 748 b 91 345 288 748 91 631 z m 198 1131 l 372 885 l 526 885 l 390 1131 z "},"ē":{"ha":861,"x_min":0,"x_max":0,"o":"m 333 588 b 445 620 353 605 388 620 b 603 466 550 620 603 572 b 603 449 603 460 603 454 l 269 449 b 333 588 276 529 308 569 z m 91 345 b 481 -17 91 107 226 -17 b 735 26 588 -17 674 5 l 739 158 b 531 125 685 141 612 125 b 270 348 338 125 282 215 l 769 348 l 769 440 b 483 748 769 623 686 748 b 91 345 288 748 91 631 z m 217 911 l 682 911 l 682 1024 l 217 1024 z "},"ę":{"ha":861,"x_min":0,"x_max":0,"o":"m 333 588 b 445 620 353 605 388 620 b 603 466 550 620 603 572 b 603 449 603 460 603 454 l 269 449 b 333 588 276 529 308 569 z m 91 345 b 405 -12 91 132 199 10 b 308 -179 339 -70 308 -120 b 501 -306 308 -243 345 -306 l 564 -306 l 564 -197 l 544 -197 b 465 -142 484 -197 465 -175 b 558 -13 465 -107 488 -67 b 735 26 630 -6 690 10 l 739 158 b 531 125 685 141 612 125 b 270 348 338 125 282 215 l 769 348 l 769 440 b 483 748 769 623 686 748 b 91 345 288 748 91 631 z "},"ẽ":{"ha":861,"x_min":0,"x_max":0,"o":"m 333 588 b 445 620 353 605 388 620 b 603 466 550 620 603 572 b 603 449 603 460 603 454 l 269 449 b 333 588 276 529 308 569 z m 91 345 b 481 -17 91 107 226 -17 b 735 26 588 -17 674 5 l 739 158 b 531 125 685 141 612 125 b 270 348 338 125 282 215 l 769 348 l 769 440 b 483 748 769 623 686 748 b 91 345 288 748 91 631 z m 159 906 l 277 874 b 353 994 287 950 313 994 b 569 865 422 994 462 865 b 731 1092 657 865 717 948 l 613 1125 b 537 1004 603 1047 577 1004 b 319 1133 468 1004 428 1133 b 159 906 232 1133 172 1050 z "},"ə":{"ha":861,"x_min":0,"x_max":0,"o":"m 528 143 b 416 112 508 126 474 112 b 258 266 311 112 258 160 b 258 283 258 272 258 278 l 592 283 b 528 143 585 202 553 163 z m 92 291 b 378 -17 92 108 175 -17 b 770 386 574 -17 770 100 b 381 748 770 624 635 748 b 126 705 274 748 187 726 l 122 573 b 330 606 176 591 249 606 b 591 383 524 606 579 517 l 92 383 z "},"f":{"ha":861,"x_min":0,"x_max":0,"o":"m 826 952 l 799 1110 b 681 1123 767 1117 728 1123 b 301 738 417 1123 309 956 l 67 674 l 67 593 l 301 593 l 301 138 l 124 138 l 142 0 l 685 0 l 705 138 l 484 138 l 484 593 l 776 593 l 803 731 l 484 731 l 484 853 b 513 943 484 899 494 926 b 624 974 531 960 567 974 b 826 952 709 974 774 966 z "},"g":{"ha":861,"x_min":0,"x_max":0,"o":"m 370 262 b 714 504 555 262 714 355 b 658 630 714 563 688 602 l 824 640 l 800 757 b 607 698 728 753 652 721 b 409 749 555 731 488 749 b 71 495 226 749 71 650 b 252 279 71 397 141 314 l 233 235 b 197 122 219 200 197 157 b 224 65 197 101 206 81 l 138 12 b 32 -134 65 -33 32 -80 b 364 -303 32 -253 185 -303 b 813 -44 603 -303 813 -215 b 624 119 813 80 703 105 l 372 164 b 335 219 345 169 324 175 l 349 263 b 370 262 356 262 363 262 z m 206 -98 b 303 24 206 -42 256 -4 b 344 14 316 20 330 17 l 535 -22 b 649 -89 608 -35 649 -52 b 398 -188 649 -148 544 -188 b 206 -98 290 -188 206 -165 z m 242 521 b 267 607 242 572 252 594 b 372 630 283 619 311 630 b 547 485 506 630 547 569 b 521 399 547 435 536 412 b 417 376 506 387 477 376 b 242 521 283 376 242 438 z "},"ğ":{"ha":861,"x_min":0,"x_max":0,"o":"m 370 262 b 714 504 555 262 714 355 b 658 630 714 563 688 602 l 824 640 l 800 757 b 607 698 728 753 652 721 b 409 749 555 731 488 749 b 71 495 226 749 71 650 b 252 279 71 397 141 314 l 233 235 b 197 122 219 200 197 157 b 224 65 197 101 206 81 l 138 12 b 32 -134 65 -33 32 -80 b 364 -303 32 -253 185 -303 b 813 -44 603 -303 813 -215 b 624 119 813 80 703 105 l 372 164 b 335 219 345 169 324 175 l 349 263 b 370 262 356 262 363 262 z m 202 1131 b 431 878 197 967 274 878 b 659 1131 588 878 665 967 l 547 1131 b 431 990 547 1041 513 990 b 315 1131 348 990 315 1041 z m 206 -98 b 303 24 206 -42 256 -4 b 344 14 316 20 330 17 l 535 -22 b 649 -89 608 -35 649 -52 b 398 -188 649 -148 544 -188 b 206 -98 290 -188 206 -165 z m 242 521 b 267 607 242 572 252 594 b 372 630 283 619 311 630 b 547 485 506 630 547 569 b 521 399 547 435 536 412 b 417 376 506 387 477 376 b 242 521 283 376 242 438 z "},"ǧ":{"ha":861,"x_min":0,"x_max":0,"o":"m 370 262 b 714 504 555 262 714 355 b 658 630 714 563 688 602 l 824 640 l 800 757 b 607 698 728 753 652 721 b 409 749 555 731 488 749 b 71 495 226 749 71 650 b 252 279 71 397 141 314 l 233 235 b 197 122 219 200 197 157 b 224 65 197 101 206 81 l 138 12 b 32 -134 65 -33 32 -80 b 364 -303 32 -253 185 -303 b 813 -44 603 -303 813 -215 b 624 119 813 80 703 105 l 372 164 b 335 219 345 169 324 175 l 349 263 b 370 262 356 262 363 262 z m 161 1131 l 316 1131 l 431 952 l 545 1131 l 700 1131 l 531 885 l 330 885 z m 206 -98 b 303 24 206 -42 256 -4 b 344 14 316 20 330 17 l 535 -22 b 649 -89 608 -35 649 -52 b 398 -188 649 -148 544 -188 b 206 -98 290 -188 206 -165 z m 242 521 b 267 607 242 572 252 594 b 372 630 283 619 311 630 b 547 485 506 630 547 569 b 521 399 547 435 536 412 b 417 376 506 387 477 376 b 242 521 283 376 242 438 z "},"ĝ":{"ha":861,"x_min":0,"x_max":0,"o":"m 370 262 b 714 504 555 262 714 355 b 658 630 714 563 688 602 l 824 640 l 800 757 b 607 698 728 753 652 721 b 409 749 555 731 488 749 b 71 495 226 749 71 650 b 252 279 71 397 141 314 l 233 235 b 197 122 219 200 197 157 b 224 65 197 101 206 81 l 138 12 b 32 -134 65 -33 32 -80 b 364 -303 32 -253 185 -303 b 813 -44 603 -303 813 -215 b 624 119 813 80 703 105 l 372 164 b 335 219 345 169 324 175 l 349 263 b 370 262 356 262 363 262 z m 161 885 l 316 885 l 431 1063 l 545 885 l 700 885 l 531 1131 l 330 1131 z m 206 -98 b 303 24 206 -42 256 -4 b 344 14 316 20 330 17 l 535 -22 b 649 -89 608 -35 649 -52 b 398 -188 649 -148 544 -188 b 206 -98 290 -188 206 -165 z m 242 521 b 267 607 242 572 252 594 b 372 630 283 619 311 630 b 547 485 506 630 547 569 b 521 399 547 435 536 412 b 417 376 506 387 477 376 b 242 521 283 376 242 438 z "},"ģ":{"ha":861,"x_min":0,"x_max":0,"o":"m 370 262 b 714 504 555 262 714 355 b 658 630 714 563 688 602 l 824 640 l 800 757 b 607 698 728 753 652 721 b 409 749 555 731 488 749 b 71 495 226 749 71 650 b 252 279 71 397 141 314 l 233 235 b 197 122 219 200 197 157 b 224 65 197 101 206 81 l 138 12 b 32 -134 65 -33 32 -80 b 364 -303 32 -253 185 -303 b 813 -44 603 -303 813 -215 b 624 119 813 80 703 105 l 372 164 b 335 219 345 169 324 175 l 349 263 b 370 262 356 262 363 262 z m 206 -98 b 303 24 206 -42 256 -4 b 344 14 316 20 330 17 l 535 -22 b 649 -89 608 -35 649 -52 b 398 -188 649 -148 544 -188 b 206 -98 290 -188 206 -165 z m 242 521 b 267 607 242 572 252 594 b 372 630 283 619 311 630 b 547 485 506 630 547 569 b 521 399 547 435 536 412 b 417 376 506 387 477 376 b 242 521 283 376 242 438 z m 306 1018 b 433 874 306 920 362 874 b 549 980 499 874 549 914 b 433 1086 549 1046 499 1086 b 413 1085 426 1086 419 1085 b 558 1203 438 1137 496 1169 l 504 1269 b 306 1018 403 1224 306 1144 z "},"ġ":{"ha":861,"x_min":0,"x_max":0,"o":"m 370 262 b 714 504 555 262 714 355 b 658 630 714 563 688 602 l 824 640 l 800 757 b 607 698 728 753 652 721 b 409 749 555 731 488 749 b 71 495 226 749 71 650 b 252 279 71 397 141 314 l 233 235 b 197 122 219 200 197 157 b 224 65 197 101 206 81 l 138 12 b 32 -134 65 -33 32 -80 b 364 -303 32 -253 185 -303 b 813 -44 603 -303 813 -215 b 624 119 813 80 703 105 l 372 164 b 335 219 345 169 324 175 l 349 263 b 370 262 356 262 363 262 z m 206 -98 b 303 24 206 -42 256 -4 b 344 14 316 20 330 17 l 535 -22 b 649 -89 608 -35 649 -52 b 398 -188 649 -148 544 -188 b 206 -98 290 -188 206 -165 z m 242 521 b 267 607 242 572 252 594 b 372 630 283 619 311 630 b 547 485 506 630 547 569 b 521 399 547 435 536 412 b 417 376 506 387 477 376 b 242 521 283 376 242 438 z m 310 985 b 431 874 310 917 359 874 b 551 985 502 874 551 917 b 431 1094 551 1053 502 1094 b 310 985 359 1094 310 1053 z "},"h":{"ha":861,"x_min":0,"x_max":0,"o":"m 756 0 l 753 553 b 547 747 752 674 678 747 b 294 632 443 747 352 703 l 286 632 l 286 1063 l 106 1063 l 106 0 l 286 0 l 286 544 b 465 607 339 581 399 607 b 573 503 532 607 573 581 l 573 0 z "},"ħ":{"ha":861,"x_min":0,"x_max":0,"o":"m 756 0 l 753 553 b 547 747 752 674 678 747 b 294 632 443 747 352 703 l 286 632 l 286 871 l 575 871 l 575 967 l 286 967 l 286 1063 l 106 1063 l 106 967 l 28 967 l 28 871 l 106 871 l 106 0 l 286 0 l 286 544 b 465 607 339 581 399 607 b 573 503 532 607 573 581 l 573 0 z "},"ĥ":{"ha":861,"x_min":0,"x_max":0,"o":"m 756 0 l 753 553 b 547 747 752 674 678 747 b 294 632 443 747 352 703 l 286 632 l 286 1063 l 106 1063 l 106 0 l 286 0 l 286 544 b 465 607 339 581 399 607 b 573 503 532 607 573 581 l 573 0 z m -72 1181 l 90 1181 l 198 1302 l 306 1181 l 467 1181 l 301 1354 l 95 1354 z "},"i":{"ha":861,"x_min":0,"x_max":0,"o":"m 117 731 l 103 589 l 344 589 l 344 143 l 98 143 l 112 0 l 757 0 l 771 143 l 525 143 l 525 731 z m 284 985 b 404 874 284 917 333 874 b 524 985 476 874 524 917 b 404 1094 524 1053 476 1094 b 284 985 333 1094 284 1053 z "},"ı":{"ha":861,"x_min":0,"x_max":0,"o":"m 117 731 l 103 589 l 344 589 l 344 143 l 98 143 l 112 0 l 757 0 l 771 143 l 525 143 l 525 731 z "},"í":{"ha":861,"x_min":0,"x_max":0,"o":"m 117 731 l 103 589 l 344 589 l 344 143 l 98 143 l 112 0 l 757 0 l 771 143 l 525 143 l 525 731 z m 327 885 l 463 1131 l 655 1131 l 481 885 z "},"ĭ":{"ha":861,"x_min":0,"x_max":0,"o":"m 117 731 l 103 589 l 344 589 l 344 143 l 98 143 l 112 0 l 757 0 l 771 143 l 525 143 l 525 731 z m 176 1131 b 404 878 170 967 247 878 b 633 1131 561 878 638 967 l 520 1131 b 404 990 520 1041 487 990 b 288 1131 322 990 288 1041 z "},"î":{"ha":861,"x_min":0,"x_max":0,"o":"m 117 731 l 103 589 l 344 589 l 344 143 l 98 143 l 112 0 l 757 0 l 771 143 l 525 143 l 525 731 z m 135 885 l 290 885 l 404 1063 l 519 885 l 674 885 l 505 1131 l 303 1131 z "},"ï":{"ha":861,"x_min":0,"x_max":0,"o":"m 117 731 l 103 589 l 344 589 l 344 143 l 98 143 l 112 0 l 757 0 l 771 143 l 525 143 l 525 731 z m 109 983 b 217 872 109 915 153 872 b 326 983 281 872 326 915 b 217 1092 326 1051 281 1092 b 109 983 153 1092 109 1051 z m 483 983 b 591 872 483 915 527 872 b 699 983 656 872 699 915 b 591 1092 699 1051 656 1092 b 483 983 527 1092 483 1051 z "},"ị":{"ha":861,"x_min":0,"x_max":0,"o":"m 117 731 l 103 589 l 344 589 l 344 143 l 98 143 l 112 0 l 757 0 l 771 143 l 525 143 l 525 731 z m 284 985 b 404 874 284 917 333 874 b 524 985 476 874 524 917 b 404 1094 524 1053 476 1094 b 284 985 333 1094 284 1053 z m 310 -251 b 431 -362 310 -319 359 -362 b 551 -251 502 -362 551 -319 b 431 -142 551 -183 502 -142 b 310 -251 359 -142 310 -183 z "},"ì":{"ha":861,"x_min":0,"x_max":0,"o":"m 117 731 l 103 589 l 344 589 l 344 143 l 98 143 l 112 0 l 757 0 l 771 143 l 525 143 l 525 731 z m 153 1131 l 327 885 l 481 885 l 345 1131 z "},"ĳ":{"ha":861,"x_min":0,"x_max":0,"o":"m 64 731 l 50 589 l 171 589 l 171 143 l 45 143 l 59 0 l 463 0 l 477 143 l 352 143 l 352 731 z m 111 985 b 231 874 111 917 160 874 b 351 985 303 874 351 917 b 231 1094 351 1053 303 1094 b 111 985 160 1094 111 1053 z m 230 -140 l 258 -299 b 381 -313 290 -307 326 -313 b 769 49 642 -313 769 -208 l 769 731 l 483 731 l 464 589 l 585 589 l 585 -28 b 549 -130 585 -91 567 -116 b 410 -163 522 -149 464 -163 b 230 -140 339 -163 279 -153 z m 534 985 b 654 874 534 917 583 874 b 774 985 726 874 774 917 b 654 1094 774 1053 726 1094 b 534 985 583 1094 534 1053 z "},"ī":{"ha":861,"x_min":0,"x_max":0,"o":"m 117 731 l 103 589 l 344 589 l 344 143 l 98 143 l 112 0 l 757 0 l 771 143 l 525 143 l 525 731 z m 172 911 l 637 911 l 637 1024 l 172 1024 z "},"į":{"ha":861,"x_min":0,"x_max":0,"o":"m 117 731 l 103 589 l 344 589 l 344 143 l 98 143 l 112 0 l 365 0 b 263 -171 296 -59 263 -110 b 456 -298 263 -235 300 -298 l 519 -298 l 519 -188 l 499 -188 b 420 -134 439 -188 420 -167 b 519 0 420 -98 444 -57 l 757 0 l 771 143 l 525 143 l 525 731 z m 284 985 b 404 874 284 917 333 874 b 524 985 476 874 524 917 b 404 1094 524 1053 476 1094 b 284 985 333 1094 284 1053 z "},"j":{"ha":861,"x_min":0,"x_max":0,"o":"m 129 731 l 110 589 l 465 589 l 465 -28 b 428 -130 465 -91 447 -116 b 267 -163 402 -149 344 -163 b 87 -140 196 -163 136 -153 l 115 -299 b 238 -313 147 -307 183 -313 b 649 49 522 -313 649 -208 l 649 731 z m 415 985 b 534 874 415 917 463 874 b 654 985 606 874 654 917 b 534 1094 654 1053 606 1094 b 415 985 463 1094 415 1053 z "},"ȷ":{"ha":861,"x_min":0,"x_max":0,"o":"m 129 731 l 110 589 l 465 589 l 465 -28 b 428 -130 465 -91 447 -116 b 267 -163 402 -149 344 -163 b 87 -140 196 -163 136 -153 l 115 -299 b 238 -313 147 -307 183 -313 b 649 49 522 -313 649 -208 l 649 731 z "},"ĵ":{"ha":861,"x_min":0,"x_max":0,"o":"m 129 731 l 110 589 l 465 589 l 465 -28 b 428 -130 465 -91 447 -116 b 267 -163 402 -149 344 -163 b 87 -140 196 -163 136 -153 l 115 -299 b 238 -313 147 -307 183 -313 b 649 49 522 -313 649 -208 l 649 731 z m 265 885 l 419 885 l 534 1063 l 649 885 l 803 885 l 635 1131 l 434 1131 z "},"k":{"ha":861,"x_min":0,"x_max":0,"o":"m 106 1063 l 106 0 l 286 0 l 286 318 l 388 318 b 631 0 478 219 556 119 l 853 0 b 524 403 744 174 621 304 l 524 413 b 801 731 626 512 712 605 l 604 731 b 382 459 546 642 476 556 l 286 459 l 286 1063 z "},"ķ":{"ha":861,"x_min":0,"x_max":0,"o":"m 106 1063 l 106 0 l 286 0 l 286 318 l 388 318 b 631 0 478 219 556 119 l 853 0 b 524 403 744 174 621 304 l 524 413 b 801 731 626 512 712 605 l 604 731 b 382 459 546 642 476 556 l 286 459 l 286 1063 z m 303 -470 l 357 -537 b 555 -285 458 -492 555 -412 b 428 -142 555 -187 499 -142 b 313 -247 362 -142 313 -182 b 428 -353 313 -313 362 -353 b 449 -352 435 -353 442 -353 b 303 -470 424 -404 365 -437 z "},"ĸ":{"ha":861,"x_min":0,"x_max":0,"o":"m 286 0 l 286 318 l 388 318 b 631 0 478 219 556 119 l 853 0 b 524 403 744 174 621 304 l 524 413 b 801 731 626 512 712 605 l 604 731 b 382 459 546 642 476 556 l 286 459 l 286 733 l 106 733 l 106 0 z "},"l":{"ha":861,"x_min":0,"x_max":0,"o":"m 112 0 l 748 0 l 762 143 l 520 143 l 520 1063 l 117 1063 l 103 919 l 339 919 l 339 143 l 98 143 z "},"ĺ":{"ha":861,"x_min":0,"x_max":0,"o":"m 112 0 l 748 0 l 762 143 l 520 143 l 520 1063 l 117 1063 l 103 919 l 339 919 l 339 143 l 98 143 z m 353 1180 l 490 1353 l 681 1353 l 508 1180 z "},"ľ":{"ha":861,"x_min":0,"x_max":0,"o":"m 112 0 l 748 0 l 762 143 l 520 143 l 520 1063 l 117 1063 l 103 919 l 339 919 l 339 143 l 98 143 z m 642 904 l 779 904 l 808 1165 l 654 1165 z "},"ļ":{"ha":861,"x_min":0,"x_max":0,"o":"m 112 0 l 748 0 l 762 143 l 520 143 l 520 1063 l 117 1063 l 103 919 l 339 919 l 339 143 l 98 143 z m 303 -470 l 357 -537 b 555 -285 458 -492 555 -412 b 428 -142 555 -187 499 -142 b 313 -247 362 -142 313 -182 b 428 -353 313 -313 362 -353 b 449 -352 435 -353 442 -353 b 303 -470 424 -404 365 -437 z "},"ŀ":{"ha":861,"x_min":0,"x_max":0,"o":"m 759 481 b 856 580 817 481 856 519 b 759 678 856 641 817 678 b 662 580 702 678 662 641 b 759 481 662 519 702 481 z m 98 143 l 112 0 l 748 0 l 762 143 l 520 143 l 520 1063 l 117 1063 l 103 919 l 339 919 l 339 143 z "},"ł":{"ha":861,"x_min":0,"x_max":0,"o":"m 710 815 l 520 722 l 520 1063 l 117 1063 l 103 919 l 339 919 l 339 634 l 151 542 l 151 387 l 339 478 l 339 143 l 98 143 l 112 0 l 748 0 l 762 143 l 520 143 l 520 566 l 710 658 z "},"m":{"ha":861,"x_min":0,"x_max":0,"o":"m 508 0 l 506 568 b 576 599 526 586 549 599 b 623 542 602 599 623 586 l 623 0 l 777 0 l 776 602 b 665 747 776 703 738 747 b 512 633 585 747 537 691 l 504 633 b 395 747 497 713 460 747 b 239 633 315 747 264 691 l 228 633 l 228 732 l 84 732 l 84 0 l 237 0 l 237 569 b 306 599 257 586 280 599 b 353 542 332 599 353 586 l 353 0 z "},"n":{"ha":861,"x_min":0,"x_max":0,"o":"m 756 0 l 753 553 b 547 747 752 674 678 747 b 285 632 443 747 344 703 l 276 632 l 276 732 l 106 732 l 106 0 l 286 0 l 286 544 b 465 607 339 581 399 607 b 573 503 532 607 573 581 l 573 0 z "},"ń":{"ha":861,"x_min":0,"x_max":0,"o":"m 756 0 l 753 553 b 547 747 752 674 678 747 b 285 632 443 747 344 703 l 276 632 l 276 732 l 106 732 l 106 0 l 286 0 l 286 544 b 465 607 339 581 399 607 b 573 503 532 607 573 581 l 573 0 z m 353 885 l 490 1131 l 681 1131 l 508 885 z "},"ň":{"ha":861,"x_min":0,"x_max":0,"o":"m 756 0 l 753 553 b 547 747 752 674 678 747 b 285 632 443 747 344 703 l 276 632 l 276 732 l 106 732 l 106 0 l 286 0 l 286 544 b 465 607 339 581 399 607 b 573 503 532 607 573 581 l 573 0 z m 161 1131 l 316 1131 l 431 952 l 545 1131 l 700 1131 l 531 885 l 330 885 z "},"ņ":{"ha":861,"x_min":0,"x_max":0,"o":"m 756 0 l 753 553 b 547 747 752 674 678 747 b 285 632 443 747 344 703 l 276 632 l 276 732 l 106 732 l 106 0 l 286 0 l 286 544 b 465 607 339 581 399 607 b 573 503 532 607 573 581 l 573 0 z m 303 -470 l 357 -537 b 555 -285 458 -492 555 -412 b 428 -142 555 -187 499 -142 b 313 -247 362 -142 313 -182 b 428 -353 313 -313 362 -353 b 449 -352 435 -353 442 -353 b 303 -470 424 -404 365 -437 z "},"ɲ":{"ha":861,"x_min":0,"x_max":0,"o":"m 60 -277 b 286 -25 193 -277 286 -172 l 286 544 b 465 607 339 581 399 607 b 573 503 532 607 573 581 l 573 0 l 756 0 l 753 553 b 547 747 752 674 678 747 b 285 632 443 747 344 703 l 276 632 l 276 732 l 106 732 l 106 0 b 88 -113 106 -71 105 -97 b 31 -131 72 -130 47 -131 b -56 -109 2 -131 -28 -122 l -33 -258 b 60 -277 -8 -268 24 -277 z "},"ñ":{"ha":861,"x_min":0,"x_max":0,"o":"m 756 0 l 753 553 b 547 747 752 674 678 747 b 285 632 443 747 344 703 l 276 632 l 276 732 l 106 732 l 106 0 l 286 0 l 286 544 b 465 607 339 581 399 607 b 573 503 532 607 573 581 l 573 0 z m 140 906 l 258 874 b 335 994 268 950 294 994 b 551 865 403 994 443 865 b 713 1092 638 865 699 948 l 594 1125 b 519 1004 585 1047 558 1004 b 301 1133 449 1004 409 1133 b 140 906 214 1133 153 1050 z "},"ŋ":{"ha":861,"x_min":0,"x_max":0,"o":"m 529 -277 b 756 -25 663 -277 756 -172 l 756 14 l 753 553 b 547 747 752 674 678 747 b 285 632 443 747 344 703 l 276 632 l 276 732 l 106 732 l 106 0 l 286 0 l 286 544 b 465 607 339 581 399 607 b 573 503 532 607 573 581 l 573 0 b 556 -113 573 -71 572 -97 b 494 -131 539 -130 514 -131 b 413 -109 471 -131 440 -122 l 436 -258 b 529 -277 461 -268 492 -277 z "},"o":{"ha":861,"x_min":0,"x_max":0,"o":"m 424 -17 b 788 369 600 -17 788 88 b 442 748 788 617 640 748 b 70 363 265 748 70 644 b 424 -17 70 115 222 -17 z m 247 405 b 303 592 247 516 276 573 b 419 618 331 609 366 618 b 611 329 591 618 611 481 b 553 142 611 218 581 161 b 439 115 528 124 492 115 b 247 405 267 115 247 252 z "},"ó":{"ha":861,"x_min":0,"x_max":0,"o":"m 424 -17 b 788 369 600 -17 788 88 b 442 748 788 617 640 748 b 70 363 265 748 70 644 b 424 -17 70 115 222 -17 z m 247 405 b 303 592 247 516 276 573 b 419 618 331 609 366 618 b 611 329 591 618 611 481 b 553 142 611 218 581 161 b 439 115 528 124 492 115 b 247 405 267 115 247 252 z m 353 885 l 490 1131 l 681 1131 l 508 885 z "},"ŏ":{"ha":861,"x_min":0,"x_max":0,"o":"m 424 -17 b 788 369 600 -17 788 88 b 442 748 788 617 640 748 b 70 363 265 748 70 644 b 424 -17 70 115 222 -17 z m 202 1131 b 431 878 197 967 274 878 b 659 1131 588 878 665 967 l 547 1131 b 431 990 547 1041 513 990 b 315 1131 348 990 315 1041 z m 247 405 b 303 592 247 516 276 573 b 419 618 331 609 366 618 b 611 329 591 618 611 481 b 553 142 611 218 581 161 b 439 115 528 124 492 115 b 247 405 267 115 247 252 z "},"ô":{"ha":861,"x_min":0,"x_max":0,"o":"m 424 -17 b 788 369 600 -17 788 88 b 442 748 788 617 640 748 b 70 363 265 748 70 644 b 424 -17 70 115 222 -17 z m 161 885 l 316 885 l 431 1063 l 545 885 l 700 885 l 531 1131 l 330 1131 z m 247 405 b 303 592 247 516 276 573 b 419 618 331 609 366 618 b 611 329 591 618 611 481 b 553 142 611 218 581 161 b 439 115 528 124 492 115 b 247 405 267 115 247 252 z "},"ö":{"ha":861,"x_min":0,"x_max":0,"o":"m 424 -17 b 788 369 600 -17 788 88 b 442 748 788 617 640 748 b 70 363 265 748 70 644 b 424 -17 70 115 222 -17 z m 135 983 b 244 872 135 915 179 872 b 352 983 308 872 352 915 b 244 1092 352 1051 308 1092 b 135 983 179 1092 135 1051 z m 247 405 b 303 592 247 516 276 573 b 419 618 331 609 366 618 b 611 329 591 618 611 481 b 553 142 611 218 581 161 b 439 115 528 124 492 115 b 247 405 267 115 247 252 z m 509 983 b 617 872 509 915 553 872 b 726 983 682 872 726 915 b 617 1092 726 1051 682 1092 b 509 983 553 1092 509 1051 z "},"ọ":{"ha":861,"x_min":0,"x_max":0,"o":"m 424 -17 b 788 369 600 -17 788 88 b 442 748 788 617 640 748 b 70 363 265 748 70 644 b 424 -17 70 115 222 -17 z m 247 405 b 303 592 247 516 276 573 b 419 618 331 609 366 618 b 611 329 591 618 611 481 b 553 142 611 218 581 161 b 439 115 528 124 492 115 b 247 405 267 115 247 252 z m 310 -251 b 431 -362 310 -319 359 -362 b 551 -251 502 -362 551 -319 b 431 -142 551 -183 502 -142 b 310 -251 359 -142 310 -183 z "},"ò":{"ha":861,"x_min":0,"x_max":0,"o":"m 424 -17 b 788 369 600 -17 788 88 b 442 748 788 617 640 748 b 70 363 265 748 70 644 b 424 -17 70 115 222 -17 z m 180 1131 l 353 885 l 508 885 l 372 1131 z m 247 405 b 303 592 247 516 276 573 b 419 618 331 609 366 618 b 611 329 591 618 611 481 b 553 142 611 218 581 161 b 439 115 528 124 492 115 b 247 405 267 115 247 252 z "},"ő":{"ha":861,"x_min":0,"x_max":0,"o":"m 424 -17 b 788 369 600 -17 788 88 b 442 748 788 617 640 748 b 70 363 265 748 70 644 b 424 -17 70 115 222 -17 z m 229 885 l 348 885 l 465 1131 l 322 1131 z m 247 405 b 303 592 247 516 276 573 b 419 618 331 609 366 618 b 611 329 591 618 611 481 b 553 142 611 218 581 161 b 439 115 528 124 492 115 b 247 405 267 115 247 252 z m 508 885 l 626 885 l 744 1131 l 601 1131 z "},"ō":{"ha":861,"x_min":0,"x_max":0,"o":"m 424 -17 b 788 369 600 -17 788 88 b 442 748 788 617 640 748 b 70 363 265 748 70 644 b 424 -17 70 115 222 -17 z m 198 911 l 663 911 l 663 1024 l 198 1024 z m 247 405 b 303 592 247 516 276 573 b 419 618 331 609 366 618 b 611 329 591 618 611 481 b 553 142 611 218 581 161 b 439 115 528 124 492 115 b 247 405 267 115 247 252 z "},"ǫ":{"ha":861,"x_min":0,"x_max":0,"o":"m 439 115 b 247 405 267 115 247 252 b 303 592 247 516 276 573 b 419 618 331 609 366 618 b 611 329 591 618 611 481 b 553 142 611 218 581 161 b 439 115 528 124 492 115 z m 70 363 b 382 -15 70 132 201 2 b 297 -171 324 -68 297 -116 b 490 -298 297 -235 334 -298 l 553 -298 l 553 -188 l 533 -188 b 453 -134 473 -188 453 -167 b 553 0 453 -98 478 -57 l 547 1 b 788 369 677 42 788 153 b 442 748 788 617 640 748 b 70 363 265 748 70 644 z "},"ø":{"ha":861,"x_min":0,"x_max":0,"o":"m 424 -17 b 788 369 600 -17 788 88 b 707 631 788 481 758 569 l 818 796 l 684 886 l 575 725 b 442 748 535 740 490 748 b 70 363 265 748 70 644 b 153 100 70 251 101 163 l 42 -63 l 177 -154 l 286 7 b 424 -17 328 -9 374 -17 z m 247 405 b 303 592 247 516 276 573 b 419 618 331 609 366 618 b 517 597 460 618 492 610 l 268 227 b 247 405 250 277 247 340 z m 343 135 l 591 503 b 611 329 608 453 611 392 b 553 142 611 218 581 161 b 439 115 528 124 492 115 b 343 135 399 115 368 122 z "},"ǿ":{"ha":861,"x_min":0,"x_max":0,"o":"m 424 -17 b 788 369 600 -17 788 88 b 707 631 788 481 758 569 l 818 796 l 684 886 l 575 725 b 442 748 535 740 490 748 b 70 363 265 748 70 644 b 153 100 70 251 101 163 l 42 -63 l 177 -154 l 286 7 b 424 -17 328 -9 374 -17 z m 247 405 b 303 592 247 516 276 573 b 419 618 331 609 366 618 b 517 597 460 618 492 610 l 268 227 b 247 405 250 277 247 340 z m 343 135 l 591 503 b 611 329 608 453 611 392 b 553 142 611 218 581 161 b 439 115 528 124 492 115 b 343 135 399 115 368 122 z m 353 885 l 490 1131 l 681 1131 l 508 885 z "},"õ":{"ha":861,"x_min":0,"x_max":0,"o":"m 424 -17 b 788 369 600 -17 788 88 b 442 748 788 617 640 748 b 70 363 265 748 70 644 b 424 -17 70 115 222 -17 z m 140 906 l 258 874 b 335 994 268 950 294 994 b 551 865 403 994 443 865 b 713 1092 638 865 699 948 l 594 1125 b 519 1004 585 1047 558 1004 b 301 1133 449 1004 409 1133 b 140 906 214 1133 153 1050 z m 247 405 b 303 592 247 516 276 573 b 419 618 331 609 366 618 b 611 329 591 618 611 481 b 553 142 611 218 581 161 b 439 115 528 124 492 115 b 247 405 267 115 247 252 z "},"œ":{"ha":861,"x_min":0,"x_max":0,"o":"m 619 -17 b 792 26 683 -17 744 4 l 794 158 b 656 125 744 140 698 125 b 508 344 554 125 515 219 l 820 344 l 820 440 b 620 748 820 630 758 748 b 433 624 549 748 476 712 b 267 748 396 710 336 748 b 37 363 147 748 37 653 b 258 -17 37 92 113 -17 b 426 94 326 -17 387 14 b 619 -17 467 20 533 -17 z m 179 407 b 211 597 180 518 194 578 b 267 617 226 613 248 617 b 358 328 343 617 360 478 b 326 136 357 216 342 154 b 267 114 312 121 290 114 b 179 407 192 114 178 253 z m 508 444 b 543 597 512 533 527 578 b 599 620 558 615 580 620 b 693 466 658 620 693 564 b 692 444 693 458 693 451 z "},"p":{"ha":861,"x_min":0,"x_max":0,"o":"m 797 405 b 513 747 797 622 691 747 b 282 652 414 747 340 708 l 262 652 l 262 732 l 90 732 l 90 -256 l 272 -256 l 272 -2 b 394 -16 311 -11 351 -16 b 797 405 615 -16 797 118 z m 272 149 l 272 572 b 431 609 326 594 381 609 b 608 362 579 609 608 486 b 538 147 608 219 572 169 b 425 117 503 125 469 117 b 272 149 371 117 321 128 z "},"þ":{"ha":861,"x_min":0,"x_max":0,"o":"m 286 1063 l 109 1063 l 109 -259 l 286 -259 l 286 -6 b 392 -16 320 -12 356 -16 b 796 405 613 -16 796 118 b 512 747 796 622 690 747 b 286 657 416 747 344 710 z m 286 143 l 286 578 b 429 609 335 597 384 609 b 607 362 578 609 607 486 b 536 147 607 219 570 169 b 424 117 502 125 468 117 b 286 143 375 117 331 126 z "},"q":{"ha":861,"x_min":0,"x_max":0,"o":"m 64 327 b 348 -16 64 110 170 -16 b 579 80 447 -16 521 24 l 590 80 l 590 -256 l 770 -256 l 770 744 l 744 744 l 678 703 b 467 748 612 733 542 748 b 64 327 247 748 64 614 z m 253 370 b 324 585 253 513 290 563 b 436 615 358 607 392 615 b 590 582 490 615 540 603 l 590 160 b 431 122 535 137 481 122 b 253 370 282 122 253 246 z "},"r":{"ha":861,"x_min":0,"x_max":0,"o":"m 428 731 l 92 731 l 74 588 l 262 588 l 262 143 l 78 143 l 97 0 l 659 0 l 678 143 l 443 143 l 443 486 b 795 576 554 547 660 579 l 789 741 b 731 747 769 746 751 747 b 440 560 607 747 485 674 l 428 560 z "},"ŕ":{"ha":861,"x_min":0,"x_max":0,"o":"m 428 731 l 92 731 l 74 588 l 262 588 l 262 143 l 78 143 l 97 0 l 659 0 l 678 143 l 443 143 l 443 486 b 795 576 554 547 660 579 l 789 741 b 731 747 769 746 751 747 b 440 560 607 747 485 674 l 428 560 z m 353 885 l 490 1131 l 681 1131 l 508 885 z "},"ř":{"ha":861,"x_min":0,"x_max":0,"o":"m 428 731 l 92 731 l 74 588 l 262 588 l 262 143 l 78 143 l 97 0 l 659 0 l 678 143 l 443 143 l 443 486 b 795 576 554 547 660 579 l 789 741 b 731 747 769 746 751 747 b 440 560 607 747 485 674 l 428 560 z m 161 1131 l 316 1131 l 431 952 l 545 1131 l 700 1131 l 531 885 l 330 885 z "},"ŗ":{"ha":861,"x_min":0,"x_max":0,"o":"m 428 731 l 92 731 l 74 588 l 262 588 l 262 143 l 78 143 l 97 0 l 659 0 l 678 143 l 443 143 l 443 486 b 795 576 554 547 660 579 l 789 741 b 731 747 769 746 751 747 b 440 560 607 747 485 674 l 428 560 z m 267 -470 l 320 -537 b 519 -285 421 -492 519 -412 b 392 -142 519 -187 463 -142 b 276 -247 325 -142 276 -182 b 392 -353 276 -313 326 -353 b 413 -352 399 -353 406 -353 b 267 -470 388 -404 328 -437 z "},"s":{"ha":861,"x_min":0,"x_max":0,"o":"m 513 748 b 119 507 297 748 119 670 b 335 310 119 394 207 344 b 589 190 491 270 589 260 b 569 147 589 171 581 156 b 458 122 551 133 518 122 b 115 180 360 122 228 149 l 128 13 b 363 -15 189 -1 267 -15 b 749 235 622 -15 749 92 b 485 444 749 372 638 407 b 278 543 341 478 278 496 b 297 581 278 559 284 571 b 426 606 317 594 354 606 b 721 572 518 606 606 594 l 715 722 b 513 748 656 738 590 748 z "},"ś":{"ha":861,"x_min":0,"x_max":0,"o":"m 513 748 b 119 507 297 748 119 670 b 335 310 119 394 207 344 b 589 190 491 270 589 260 b 569 147 589 171 581 156 b 458 122 551 133 518 122 b 115 180 360 122 228 149 l 128 13 b 363 -15 189 -1 267 -15 b 749 235 622 -15 749 92 b 485 444 749 372 638 407 b 278 543 341 478 278 496 b 297 581 278 559 284 571 b 426 606 317 594 354 606 b 721 572 518 606 606 594 l 715 722 b 513 748 656 738 590 748 z m 353 885 l 490 1131 l 681 1131 l 508 885 z "},"š":{"ha":861,"x_min":0,"x_max":0,"o":"m 513 748 b 119 507 297 748 119 670 b 335 310 119 394 207 344 b 589 190 491 270 589 260 b 569 147 589 171 581 156 b 458 122 551 133 518 122 b 115 180 360 122 228 149 l 128 13 b 363 -15 189 -1 267 -15 b 749 235 622 -15 749 92 b 485 444 749 372 638 407 b 278 543 341 478 278 496 b 297 581 278 559 284 571 b 426 606 317 594 354 606 b 721 572 518 606 606 594 l 715 722 b 513 748 656 738 590 748 z m 161 1131 l 316 1131 l 431 952 l 545 1131 l 700 1131 l 531 885 l 330 885 z "},"ş":{"ha":861,"x_min":0,"x_max":0,"o":"m 513 748 b 119 507 297 748 119 670 b 335 310 119 394 207 344 b 589 190 491 270 589 260 b 569 147 589 171 581 156 b 458 122 551 133 518 122 b 115 180 360 122 228 149 l 128 13 b 363 -15 189 -1 267 -15 l 377 -15 l 377 -184 b 474 -261 435 -190 474 -209 b 372 -329 474 -304 447 -329 l 331 -329 l 331 -426 l 390 -426 b 606 -272 560 -426 606 -366 b 483 -113 606 -178 563 -133 l 482 -7 b 749 235 661 22 749 116 b 485 444 749 372 638 407 b 278 543 341 478 278 496 b 297 581 278 559 284 571 b 426 606 317 594 354 606 b 721 572 518 606 606 594 l 715 722 b 513 748 656 738 590 748 z "},"ŝ":{"ha":861,"x_min":0,"x_max":0,"o":"m 513 748 b 119 507 297 748 119 670 b 335 310 119 394 207 344 b 589 190 491 270 589 260 b 569 147 589 171 581 156 b 458 122 551 133 518 122 b 115 180 360 122 228 149 l 128 13 b 363 -15 189 -1 267 -15 b 749 235 622 -15 749 92 b 485 444 749 372 638 407 b 278 543 341 478 278 496 b 297 581 278 559 284 571 b 426 606 317 594 354 606 b 721 572 518 606 606 594 l 715 722 b 513 748 656 738 590 748 z m 161 885 l 316 885 l 431 1063 l 545 885 l 700 885 l 531 1131 l 330 1131 z "},"ș":{"ha":861,"x_min":0,"x_max":0,"o":"m 513 748 b 119 507 297 748 119 670 b 335 310 119 394 207 344 b 589 190 491 270 589 260 b 569 147 589 171 581 156 b 458 122 551 133 518 122 b 115 180 360 122 228 149 l 128 13 b 363 -15 189 -1 267 -15 b 749 235 622 -15 749 92 b 485 444 749 372 638 407 b 278 543 341 478 278 496 b 297 581 278 559 284 571 b 426 606 317 594 354 606 b 721 572 518 606 606 594 l 715 722 b 513 748 656 738 590 748 z m 303 -470 l 357 -537 b 555 -285 458 -492 555 -412 b 428 -142 555 -187 499 -142 b 313 -247 362 -142 313 -182 b 428 -353 313 -313 362 -353 b 449 -352 435 -353 442 -353 b 303 -470 424 -404 365 -437 z "},"ß":{"ha":861,"x_min":0,"x_max":0,"o":"m 442 940 b 580 812 524 940 580 903 b 399 576 580 711 509 610 l 399 502 b 636 299 494 488 636 431 b 451 132 636 212 576 132 l 399 132 l 399 0 l 440 0 b 808 301 655 0 808 106 b 551 565 808 477 691 537 l 551 572 b 756 842 644 604 756 696 b 465 1079 756 1006 615 1079 b 107 544 232 1079 107 922 l 107 0 l 283 0 l 283 624 b 324 902 283 824 302 879 b 442 940 344 924 388 940 z "},"t":{"ha":861,"x_min":0,"x_max":0,"o":"m 63 592 l 256 592 l 256 190 b 509 -16 256 38 338 -16 b 731 19 601 -16 673 0 l 744 155 b 567 132 697 144 627 132 b 437 229 461 132 437 166 l 437 592 l 729 592 l 756 731 l 431 731 l 431 903 l 374 903 l 63 676 z "},"ŧ":{"ha":861,"x_min":0,"x_max":0,"o":"m 63 400 l 256 400 l 256 190 b 509 -16 256 38 338 -16 b 731 19 601 -16 673 0 l 744 155 b 567 132 697 144 627 132 b 437 229 461 132 437 166 l 437 400 l 729 400 l 756 516 l 437 516 l 437 655 l 729 655 l 756 770 l 431 770 l 431 942 l 374 942 l 63 715 l 63 655 l 256 655 l 256 516 l 63 516 z "},"ť":{"ha":861,"x_min":0,"x_max":0,"o":"m 642 856 l 779 856 l 808 1117 l 654 1117 z m 63 592 l 256 592 l 256 190 b 509 -16 256 38 338 -16 b 731 19 601 -16 673 0 l 744 155 b 567 132 697 144 627 132 b 437 229 461 132 437 166 l 437 592 l 729 592 l 756 731 l 431 731 l 431 903 l 374 903 l 63 676 z "},"ţ":{"ha":861,"x_min":0,"x_max":0,"o":"m 63 592 l 256 592 l 256 190 b 440 -12 256 60 316 2 l 440 -184 b 537 -261 498 -190 537 -209 b 435 -329 537 -304 510 -329 l 394 -329 l 394 -426 l 453 -426 b 669 -272 624 -426 669 -366 b 547 -113 669 -178 626 -133 l 545 -15 b 731 19 620 -12 681 3 l 744 155 b 567 132 697 144 627 132 b 437 229 461 132 437 166 l 437 592 l 729 592 l 756 731 l 431 731 l 431 903 l 374 903 l 63 676 z "},"ț":{"ha":861,"x_min":0,"x_max":0,"o":"m 492 -353 b 512 -352 499 -353 506 -353 b 366 -470 487 -404 428 -437 l 420 -537 b 618 -285 521 -492 618 -412 b 492 -142 618 -187 563 -142 b 376 -247 425 -142 376 -182 b 492 -353 376 -313 425 -353 z m 63 592 l 256 592 l 256 190 b 509 -16 256 38 338 -16 b 731 19 601 -16 673 0 l 744 155 b 567 132 697 144 627 132 b 437 229 461 132 437 166 l 437 592 l 729 592 l 756 731 l 431 731 l 431 903 l 374 903 l 63 676 z "},"u":{"ha":861,"x_min":0,"x_max":0,"o":"m 106 731 l 108 178 b 314 -16 109 58 183 -16 b 576 100 418 -16 517 29 l 585 100 l 585 -1 l 756 -1 l 756 731 l 575 731 l 575 188 b 396 124 522 150 462 124 b 288 228 329 124 288 151 l 288 731 z "},"ú":{"ha":861,"x_min":0,"x_max":0,"o":"m 106 731 l 108 178 b 314 -16 109 58 183 -16 b 576 100 418 -16 517 29 l 585 100 l 585 -1 l 756 -1 l 756 731 l 575 731 l 575 188 b 396 124 522 150 462 124 b 288 228 329 124 288 151 l 288 731 z m 353 885 l 490 1131 l 681 1131 l 508 885 z "},"ŭ":{"ha":861,"x_min":0,"x_max":0,"o":"m 106 731 l 108 178 b 314 -16 109 58 183 -16 b 576 100 418 -16 517 29 l 585 100 l 585 -1 l 756 -1 l 756 731 l 575 731 l 575 188 b 396 124 522 150 462 124 b 288 228 329 124 288 151 l 288 731 z m 202 1131 b 431 878 197 967 274 878 b 659 1131 588 878 665 967 l 547 1131 b 431 990 547 1041 513 990 b 315 1131 348 990 315 1041 z "},"û":{"ha":861,"x_min":0,"x_max":0,"o":"m 106 731 l 108 178 b 314 -16 109 58 183 -16 b 576 100 418 -16 517 29 l 585 100 l 585 -1 l 756 -1 l 756 731 l 575 731 l 575 188 b 396 124 522 150 462 124 b 288 228 329 124 288 151 l 288 731 z m 161 885 l 316 885 l 431 1063 l 545 885 l 700 885 l 531 1131 l 330 1131 z "},"ü":{"ha":861,"x_min":0,"x_max":0,"o":"m 106 731 l 108 178 b 314 -16 109 58 183 -16 b 576 100 418 -16 517 29 l 585 100 l 585 -1 l 756 -1 l 756 731 l 575 731 l 575 188 b 396 124 522 150 462 124 b 288 228 329 124 288 151 l 288 731 z m 135 983 b 244 872 135 915 179 872 b 352 983 308 872 352 915 b 244 1092 352 1051 308 1092 b 135 983 179 1092 135 1051 z m 509 983 b 617 872 509 915 553 872 b 726 983 682 872 726 915 b 617 1092 726 1051 682 1092 b 509 983 553 1092 509 1051 z "},"ụ":{"ha":861,"x_min":0,"x_max":0,"o":"m 106 731 l 108 178 b 314 -16 109 58 183 -16 b 576 100 418 -16 517 29 l 585 100 l 585 -1 l 756 -1 l 756 731 l 575 731 l 575 188 b 396 124 522 150 462 124 b 288 228 329 124 288 151 l 288 731 z m 310 -251 b 431 -362 310 -319 359 -362 b 551 -251 502 -362 551 -319 b 431 -142 551 -183 502 -142 b 310 -251 359 -142 310 -183 z "},"ù":{"ha":861,"x_min":0,"x_max":0,"o":"m 106 731 l 108 178 b 314 -16 109 58 183 -16 b 576 100 418 -16 517 29 l 585 100 l 585 -1 l 756 -1 l 756 731 l 575 731 l 575 188 b 396 124 522 150 462 124 b 288 228 329 124 288 151 l 288 731 z m 180 1131 l 353 885 l 508 885 l 372 1131 z "},"ű":{"ha":861,"x_min":0,"x_max":0,"o":"m 106 731 l 108 178 b 314 -16 109 58 183 -16 b 576 100 418 -16 517 29 l 585 100 l 585 -1 l 756 -1 l 756 731 l 575 731 l 575 188 b 396 124 522 150 462 124 b 288 228 329 124 288 151 l 288 731 z m 229 885 l 348 885 l 465 1131 l 322 1131 z m 508 885 l 626 885 l 744 1131 l 601 1131 z "},"ū":{"ha":861,"x_min":0,"x_max":0,"o":"m 106 731 l 108 178 b 314 -16 109 58 183 -16 b 576 100 418 -16 517 29 l 585 100 l 585 -1 l 756 -1 l 756 731 l 575 731 l 575 188 b 396 124 522 150 462 124 b 288 228 329 124 288 151 l 288 731 z m 198 911 l 663 911 l 663 1024 l 198 1024 z "},"ų":{"ha":861,"x_min":0,"x_max":0,"o":"m 106 731 l 108 178 b 314 -16 109 58 183 -16 b 576 100 418 -16 517 29 l 585 100 l 585 -1 l 601 -1 b 499 -172 533 -60 499 -111 b 692 -298 499 -235 537 -298 l 756 -298 l 756 -189 l 735 -189 b 656 -135 676 -189 656 -167 b 756 -1 656 -99 681 -57 l 756 731 l 575 731 l 575 188 b 396 124 522 150 462 124 b 288 228 329 124 288 151 l 288 731 z "},"ů":{"ha":861,"x_min":0,"x_max":0,"o":"m 106 731 l 108 178 b 314 -16 109 58 183 -16 b 576 100 418 -16 517 29 l 585 100 l 585 -1 l 756 -1 l 756 731 l 575 731 l 575 188 b 396 124 522 150 462 124 b 288 228 329 124 288 151 l 288 731 z m 267 1010 b 431 842 267 913 334 842 b 594 1010 527 842 594 913 b 431 1178 594 1107 527 1178 b 267 1010 334 1178 267 1107 z m 342 1010 b 431 1101 342 1062 376 1101 b 519 1010 485 1101 519 1062 b 431 919 519 958 485 919 b 342 1010 376 919 342 958 z "},"ũ":{"ha":861,"x_min":0,"x_max":0,"o":"m 106 731 l 108 178 b 314 -16 109 58 183 -16 b 576 100 418 -16 517 29 l 585 100 l 585 -1 l 756 -1 l 756 731 l 575 731 l 575 188 b 396 124 522 150 462 124 b 288 228 329 124 288 151 l 288 731 z m 140 906 l 258 874 b 335 994 268 950 294 994 b 551 865 403 994 443 865 b 713 1092 638 865 699 948 l 594 1125 b 519 1004 585 1047 558 1004 b 301 1133 449 1004 409 1133 b 140 906 214 1133 153 1050 z "},"v":{"ha":861,"x_min":0,"x_max":0,"o":"m 249 731 l 59 731 b 352 0 112 486 203 247 l 513 0 b 802 731 660 243 753 490 l 629 731 b 447 185 593 529 527 344 l 432 185 b 249 731 351 344 285 529 z "},"w":{"ha":861,"x_min":0,"x_max":0,"o":"m 556 1 l 669 1 b 845 731 765 235 826 469 l 684 731 b 591 266 668 565 633 410 l 578 266 b 488 610 537 386 509 508 l 386 610 b 285 266 363 508 331 386 l 273 266 b 186 731 231 413 199 565 l 15 731 b 191 1 35 469 96 235 l 294 1 b 422 412 351 142 393 281 l 435 412 b 556 1 463 281 503 142 z "},"ẃ":{"ha":861,"x_min":0,"x_max":0,"o":"m 556 1 l 669 1 b 845 731 765 235 826 469 l 684 731 b 591 266 668 565 633 410 l 578 266 b 488 610 537 386 509 508 l 386 610 b 285 266 363 508 331 386 l 273 266 b 186 731 231 413 199 565 l 15 731 b 191 1 35 469 96 235 l 294 1 b 422 412 351 142 393 281 l 435 412 b 556 1 463 281 503 142 z m 353 885 l 490 1131 l 681 1131 l 508 885 z "},"ŵ":{"ha":861,"x_min":0,"x_max":0,"o":"m 556 1 l 669 1 b 845 731 765 235 826 469 l 684 731 b 591 266 668 565 633 410 l 578 266 b 488 610 537 386 509 508 l 386 610 b 285 266 363 508 331 386 l 273 266 b 186 731 231 413 199 565 l 15 731 b 191 1 35 469 96 235 l 294 1 b 422 412 351 142 393 281 l 435 412 b 556 1 463 281 503 142 z m 161 885 l 316 885 l 431 1063 l 545 885 l 700 885 l 531 1131 l 330 1131 z "},"ẅ":{"ha":861,"x_min":0,"x_max":0,"o":"m 556 1 l 669 1 b 845 731 765 235 826 469 l 684 731 b 591 266 668 565 633 410 l 578 266 b 488 610 537 386 509 508 l 386 610 b 285 266 363 508 331 386 l 273 266 b 186 731 231 413 199 565 l 15 731 b 191 1 35 469 96 235 l 294 1 b 422 412 351 142 393 281 l 435 412 b 556 1 463 281 503 142 z m 135 983 b 244 872 135 915 179 872 b 352 983 308 872 352 915 b 244 1092 352 1051 308 1092 b 135 983 179 1092 135 1051 z m 509 983 b 617 872 509 915 553 872 b 726 983 682 872 726 915 b 617 1092 726 1051 682 1092 b 509 983 553 1092 509 1051 z "},"ẁ":{"ha":861,"x_min":0,"x_max":0,"o":"m 556 1 l 669 1 b 845 731 765 235 826 469 l 684 731 b 591 266 668 565 633 410 l 578 266 b 488 610 537 386 509 508 l 386 610 b 285 266 363 508 331 386 l 273 266 b 186 731 231 413 199 565 l 15 731 b 191 1 35 469 96 235 l 294 1 b 422 412 351 142 393 281 l 435 412 b 556 1 463 281 503 142 z m 180 1131 l 353 885 l 508 885 l 372 1131 z "},"x":{"ha":861,"x_min":0,"x_max":0,"o":"m 49 731 l 324 374 l 39 1 l 238 1 l 415 257 l 613 1 l 819 1 l 530 374 l 815 731 l 626 731 l 447 481 l 253 731 z "},"y":{"ha":861,"x_min":0,"x_max":0,"o":"m 240 731 l 55 731 b 353 7 128 456 221 242 l 342 -15 b 135 -140 307 -83 247 -140 b 34 -127 99 -140 63 -133 l 72 -283 b 150 -294 92 -289 119 -294 b 549 53 320 -294 472 -110 l 574 105 b 805 731 656 278 755 509 l 624 731 b 449 202 581 517 524 355 l 439 202 b 240 731 359 354 286 538 z "},"ý":{"ha":861,"x_min":0,"x_max":0,"o":"m 240 731 l 55 731 b 353 7 128 456 221 242 l 342 -15 b 135 -140 307 -83 247 -140 b 34 -127 99 -140 63 -133 l 72 -283 b 150 -294 92 -289 119 -294 b 549 53 320 -294 472 -110 l 574 105 b 805 731 656 278 755 509 l 624 731 b 449 202 581 517 524 355 l 439 202 b 240 731 359 354 286 538 z m 353 885 l 490 1131 l 681 1131 l 508 885 z "},"ŷ":{"ha":861,"x_min":0,"x_max":0,"o":"m 240 731 l 55 731 b 353 7 128 456 221 242 l 342 -15 b 135 -140 307 -83 247 -140 b 34 -127 99 -140 63 -133 l 72 -283 b 150 -294 92 -289 119 -294 b 549 53 320 -294 472 -110 l 574 105 b 805 731 656 278 755 509 l 624 731 b 449 202 581 517 524 355 l 439 202 b 240 731 359 354 286 538 z m 161 885 l 316 885 l 431 1063 l 545 885 l 700 885 l 531 1131 l 330 1131 z "},"ÿ":{"ha":861,"x_min":0,"x_max":0,"o":"m 240 731 l 55 731 b 353 7 128 456 221 242 l 342 -15 b 135 -140 307 -83 247 -140 b 34 -127 99 -140 63 -133 l 72 -283 b 150 -294 92 -289 119 -294 b 549 53 320 -294 472 -110 l 574 105 b 805 731 656 278 755 509 l 624 731 b 449 202 581 517 524 355 l 439 202 b 240 731 359 354 286 538 z m 135 983 b 244 872 135 915 179 872 b 352 983 308 872 352 915 b 244 1092 352 1051 308 1092 b 135 983 179 1092 135 1051 z m 509 983 b 617 872 509 915 553 872 b 726 983 682 872 726 915 b 617 1092 726 1051 682 1092 b 509 983 553 1092 509 1051 z "},"ỳ":{"ha":861,"x_min":0,"x_max":0,"o":"m 240 731 l 55 731 b 353 7 128 456 221 242 l 342 -15 b 135 -140 307 -83 247 -140 b 34 -127 99 -140 63 -133 l 72 -283 b 150 -294 92 -289 119 -294 b 549 53 320 -294 472 -110 l 574 105 b 805 731 656 278 755 509 l 624 731 b 449 202 581 517 524 355 l 439 202 b 240 731 359 354 286 538 z m 180 1131 l 353 885 l 508 885 l 372 1131 z "},"ȳ":{"ha":861,"x_min":0,"x_max":0,"o":"m 240 731 l 55 731 b 353 7 128 456 221 242 l 342 -15 b 135 -140 307 -83 247 -140 b 34 -127 99 -140 63 -133 l 72 -283 b 150 -294 92 -289 119 -294 b 549 53 320 -294 472 -110 l 574 105 b 805 731 656 278 755 509 l 624 731 b 449 202 581 517 524 355 l 439 202 b 240 731 359 354 286 538 z m 198 911 l 663 911 l 663 1024 l 198 1024 z "},"ỹ":{"ha":861,"x_min":0,"x_max":0,"o":"m 240 731 l 55 731 b 353 7 128 456 221 242 l 342 -15 b 135 -140 307 -83 247 -140 b 34 -127 99 -140 63 -133 l 72 -283 b 150 -294 92 -289 119 -294 b 549 53 320 -294 472 -110 l 574 105 b 805 731 656 278 755 509 l 624 731 b 449 202 581 517 524 355 l 439 202 b 240 731 359 354 286 538 z m 140 906 l 258 874 b 335 994 268 950 294 994 b 551 865 403 994 443 865 b 713 1092 638 865 699 948 l 594 1125 b 519 1004 585 1047 558 1004 b 301 1133 449 1004 409 1133 b 140 906 214 1133 153 1050 z "},"z":{"ha":861,"x_min":0,"x_max":0,"o":"m 140 733 l 85 590 l 488 590 l 98 99 l 106 1 l 723 1 l 785 154 l 342 154 l 728 640 l 717 733 z "},"ź":{"ha":861,"x_min":0,"x_max":0,"o":"m 140 733 l 85 590 l 488 590 l 98 99 l 106 1 l 723 1 l 785 154 l 342 154 l 728 640 l 717 733 z m 353 885 l 490 1131 l 681 1131 l 508 885 z "},"ž":{"ha":861,"x_min":0,"x_max":0,"o":"m 140 733 l 85 590 l 488 590 l 98 99 l 106 1 l 723 1 l 785 154 l 342 154 l 728 640 l 717 733 z m 161 1131 l 316 1131 l 431 952 l 545 1131 l 700 1131 l 531 885 l 330 885 z "},"ż":{"ha":861,"x_min":0,"x_max":0,"o":"m 140 733 l 85 590 l 488 590 l 98 99 l 106 1 l 723 1 l 785 154 l 342 154 l 728 640 l 717 733 z m 310 985 b 431 874 310 917 359 874 b 551 985 502 874 551 917 b 431 1094 551 1053 502 1094 b 310 985 359 1094 310 1053 z "},"ª":{"ha":861,"x_min":0,"x_max":0,"o":"m 351 1074 b 176 951 224 1074 176 1024 l 176 931 l 280 931 l 280 946 b 345 995 280 979 308 996 b 410 938 383 994 410 980 l 410 880 b 162 746 303 882 162 865 b 281 633 162 677 210 633 b 407 692 335 633 379 657 l 419 692 b 501 633 423 658 442 633 b 569 642 522 633 545 636 l 569 726 b 528 756 536 725 528 731 l 528 942 b 351 1074 528 1038 459 1074 z m 285 763 b 388 820 285 799 321 820 b 410 819 396 820 403 820 l 410 739 b 342 717 390 725 367 717 b 285 763 307 717 285 735 z "},"º":{"ha":861,"x_min":0,"x_max":0,"o":"m 577 851 b 367 1074 577 1006 481 1074 b 156 851 252 1074 156 1006 b 367 633 156 695 252 633 b 577 851 481 633 577 695 z m 275 852 b 367 983 275 951 316 983 b 458 852 417 983 458 951 b 367 724 458 754 417 724 b 275 852 316 724 275 754 z "},"⁄":{"ha":861,"x_min":0,"x_max":0,"o":"m 665 790 l 125 297 l 198 219 l 738 713 z "},"½":{"ha":861,"x_min":0,"x_max":0,"o":"m 66 962 l 66 863 b 165 902 101 863 136 878 l 165 707 l 56 707 l 56 628 l 372 628 l 372 707 l 264 707 l 264 1014 l 165 1014 b 66 962 153 978 99 962 z m 150 297 l 223 219 l 763 713 l 690 790 z m 491 269 l 581 260 b 656 317 585 301 609 317 b 716 274 697 317 716 306 b 631 206 716 236 673 225 b 492 78 557 174 492 142 l 492 0 l 824 0 l 824 78 l 586 78 b 672 140 592 103 616 115 b 814 281 733 167 814 196 b 654 391 814 359 747 391 b 491 269 547 391 488 343 z "},"⅓":{"ha":861,"x_min":0,"x_max":0,"o":"m 66 962 l 66 863 b 165 902 101 863 136 878 l 165 707 l 56 707 l 56 628 l 372 628 l 372 707 l 264 707 l 264 1014 l 165 1014 b 66 962 153 978 99 962 z m 150 297 l 223 219 l 763 713 l 690 790 z m 478 110 b 653 -6 479 19 547 -6 b 828 109 755 -6 828 24 b 743 193 828 163 791 185 b 818 285 785 207 818 234 b 658 392 818 356 759 392 b 491 272 545 392 490 347 l 578 263 b 654 317 585 304 610 317 b 724 275 700 317 724 303 b 630 220 724 241 697 220 l 608 220 l 608 157 l 629 157 b 728 113 703 157 728 141 b 654 70 728 87 710 70 b 568 119 600 70 577 85 z "},"⅔":{"ha":861,"x_min":0,"x_max":0,"o":"m 224 1019 b 60 897 117 1019 57 972 l 150 889 b 226 946 154 930 178 946 b 285 903 266 946 285 934 b 201 835 285 865 242 853 b 62 707 126 802 62 771 l 62 628 l 393 628 l 393 707 l 156 707 b 242 769 161 731 185 744 b 383 910 303 796 383 824 b 224 1019 383 988 317 1019 z m 150 297 l 223 219 l 763 713 l 690 790 z m 478 110 b 653 -6 479 19 547 -6 b 828 109 755 -6 828 24 b 743 193 828 163 791 185 b 818 285 785 207 818 234 b 658 392 818 356 759 392 b 491 272 545 392 490 347 l 578 263 b 654 317 585 304 610 317 b 724 275 700 317 724 303 b 630 220 724 241 697 220 l 608 220 l 608 157 l 629 157 b 728 113 703 157 728 141 b 654 70 728 87 710 70 b 568 119 600 70 577 85 z "},"¼":{"ha":861,"x_min":0,"x_max":0,"o":"m 66 962 l 66 863 b 165 902 101 863 136 878 l 165 707 l 56 707 l 56 628 l 372 628 l 372 707 l 264 707 l 264 1014 l 165 1014 b 66 962 153 978 99 962 z m 157 297 l 230 219 l 770 713 l 697 790 z m 434 84 l 641 84 l 641 0 l 736 0 l 736 84 l 790 84 l 790 163 l 736 163 l 736 385 l 633 385 l 434 163 z m 528 156 l 641 276 l 641 156 z "},"¾":{"ha":861,"x_min":0,"x_max":0,"o":"m 225 1020 b 58 901 113 1020 58 976 l 145 892 b 222 946 152 933 177 946 b 291 903 267 946 291 932 b 197 849 291 869 264 849 l 175 849 l 175 785 l 197 785 b 295 741 271 785 295 769 b 222 699 295 715 277 699 b 135 747 167 699 144 713 l 46 738 b 221 622 47 648 115 622 b 395 738 322 622 395 652 b 310 822 395 791 358 813 b 385 914 352 835 385 863 b 225 1020 385 984 326 1020 z m 157 297 l 230 219 l 770 713 l 697 790 z m 434 84 l 641 84 l 641 0 l 736 0 l 736 84 l 790 84 l 790 163 l 736 163 l 736 385 l 633 385 l 434 163 z m 528 156 l 641 276 l 641 156 z "},"⅛":{"ha":861,"x_min":0,"x_max":0,"o":"m 66 962 l 66 863 b 165 902 101 863 136 878 l 165 707 l 56 707 l 56 628 l 372 628 l 372 707 l 264 707 l 264 1014 l 165 1014 b 66 962 153 978 99 962 z m 150 297 l 223 219 l 763 713 l 690 790 z m 471 103 b 647 -6 471 28 528 -6 b 828 110 764 -6 828 32 b 748 203 828 155 792 183 b 814 288 784 218 814 244 b 649 392 814 353 747 392 b 485 283 550 391 485 352 b 549 192 485 244 511 214 b 471 103 505 176 471 149 z m 565 113 b 617 167 565 143 590 157 b 726 108 676 152 726 135 b 651 67 726 83 699 67 b 565 113 610 67 565 76 z m 578 283 b 647 322 578 312 603 322 b 727 281 694 322 727 310 b 662 229 727 247 692 237 b 578 283 610 243 578 261 z "},"⅜":{"ha":861,"x_min":0,"x_max":0,"o":"m 225 1020 b 58 901 113 1020 58 976 l 145 892 b 222 946 152 933 177 946 b 291 903 267 946 291 932 b 197 849 291 869 264 849 l 175 849 l 175 785 l 197 785 b 295 741 271 785 295 769 b 222 699 295 715 277 699 b 135 747 167 699 144 713 l 46 738 b 221 622 47 648 115 622 b 395 738 322 622 395 652 b 310 822 395 791 358 813 b 385 914 352 835 385 863 b 225 1020 385 984 326 1020 z m 150 297 l 223 219 l 763 713 l 690 790 z m 471 103 b 647 -6 471 28 528 -6 b 828 110 764 -6 828 32 b 748 203 828 155 792 183 b 814 288 784 218 814 244 b 649 392 814 353 747 392 b 485 283 550 391 485 352 b 549 192 485 244 511 214 b 471 103 505 176 471 149 z m 565 113 b 617 167 565 143 590 157 b 726 108 676 152 726 135 b 651 67 726 83 699 67 b 565 113 610 67 565 76 z m 578 283 b 647 322 578 312 603 322 b 727 281 694 322 727 310 b 662 229 727 247 692 237 b 578 283 610 243 578 261 z "},"⅝":{"ha":861,"x_min":0,"x_max":0,"o":"m 94 1014 l 63 804 l 149 794 b 226 819 169 810 198 819 b 305 760 283 819 305 795 b 225 699 305 718 276 699 b 145 747 183 699 153 712 l 53 738 b 225 623 53 651 127 623 b 402 759 333 623 402 665 b 253 878 402 841 344 878 b 156 859 213 878 183 871 l 171 935 l 378 935 l 378 1014 z m 150 297 l 223 219 l 763 713 l 690 790 z m 471 103 b 647 -6 471 28 528 -6 b 828 110 764 -6 828 32 b 748 203 828 155 792 183 b 814 288 784 218 814 244 b 649 392 814 353 747 392 b 485 283 550 391 485 352 b 549 192 485 244 511 214 b 471 103 505 176 471 149 z m 565 113 b 617 167 565 143 590 157 b 726 108 676 152 726 135 b 651 67 726 83 699 67 b 565 113 610 67 565 76 z m 578 283 b 647 322 578 312 603 322 b 727 281 694 322 727 310 b 662 229 727 247 692 237 b 578 283 610 243 578 261 z "},"⅞":{"ha":861,"x_min":0,"x_max":0,"o":"m 109 1014 l 109 935 l 326 935 l 185 628 l 284 628 l 436 962 l 436 1014 z m 129 297 l 202 219 l 742 713 l 669 790 z m 471 103 b 647 -6 471 28 528 -6 b 828 110 764 -6 828 32 b 748 203 828 155 792 183 b 814 288 784 218 814 244 b 649 392 814 353 747 392 b 485 283 550 391 485 352 b 549 192 485 244 511 214 b 471 103 505 176 471 149 z m 565 113 b 617 167 565 143 590 157 b 726 108 676 152 726 135 b 651 67 726 83 699 67 b 565 113 610 67 565 76 z m 578 283 b 647 322 578 312 603 322 b 727 281 694 322 727 310 b 662 229 727 247 692 237 b 578 283 610 243 578 261 z "},"₀":{"ha":861,"x_min":0,"x_max":0,"o":"m 611 -2 b 431 198 611 142 546 198 b 250 -2 316 198 250 142 b 431 -201 250 -137 316 -201 b 611 -2 546 -201 611 -137 z m 352 -2 b 431 115 352 88 374 115 b 509 -2 488 115 509 88 b 431 -119 509 -91 488 -119 b 352 -2 374 -119 352 -91 z m 392 -5 b 431 36 392 22 405 36 b 469 -5 456 36 469 22 b 431 -46 469 -31 456 -46 b 392 -5 405 -46 392 -30 z "},"₁":{"ha":861,"x_min":0,"x_max":0,"o":"m 292 139 l 292 40 b 391 79 326 40 362 56 l 391 -116 l 281 -116 l 281 -194 l 597 -194 l 597 -116 l 490 -116 l 490 191 l 391 191 b 292 139 379 156 325 139 z "},"₂":{"ha":861,"x_min":0,"x_max":0,"o":"m 417 197 b 253 74 310 197 250 149 l 343 66 b 419 123 347 107 372 123 b 478 80 459 123 478 111 b 394 12 478 42 435 31 b 255 -116 319 -21 255 -52 l 255 -194 l 586 -194 l 586 -116 l 349 -116 b 435 -54 354 -92 378 -79 b 576 87 496 -27 576 1 b 417 197 576 165 510 197 z "},"₃":{"ha":861,"x_min":0,"x_max":0,"o":"m 423 197 b 256 78 310 197 256 153 l 343 69 b 419 123 350 110 375 123 b 489 81 465 123 489 109 b 395 26 489 47 462 26 l 373 26 l 373 -37 l 394 -37 b 493 -82 469 -37 493 -53 b 419 -124 493 -108 475 -124 b 333 -76 365 -124 342 -110 l 244 -85 b 419 -201 244 -175 313 -201 b 593 -85 520 -201 593 -171 b 508 -1 593 -32 556 -10 b 583 91 550 13 583 40 b 423 197 583 161 524 197 z "},"₄":{"ha":861,"x_min":0,"x_max":0,"o":"m 548 -194 l 548 -110 l 601 -110 l 601 -32 l 548 -32 l 548 191 l 444 191 l 246 -32 l 246 -110 l 453 -110 l 453 -194 z m 340 -39 l 453 81 l 453 -39 z "},"₅":{"ha":861,"x_min":0,"x_max":0,"o":"m 292 191 l 261 -19 l 347 -29 b 424 -4 367 -12 396 -4 b 503 -62 481 -4 503 -28 b 423 -124 503 -105 474 -124 b 343 -76 381 -124 351 -111 l 251 -85 b 423 -200 251 -172 325 -200 b 600 -64 531 -200 600 -158 b 451 56 600 18 542 56 b 354 36 410 56 381 48 l 369 112 l 576 112 l 576 191 z "},"₆":{"ha":861,"x_min":0,"x_max":0,"o":"m 442 197 b 254 -1 328 197 254 145 b 436 -200 254 -150 331 -200 b 608 -72 538 -200 608 -160 b 475 38 608 13 547 38 b 356 3 422 38 385 22 b 441 123 359 95 385 123 b 507 78 481 123 503 110 l 597 88 b 442 197 589 160 539 197 z m 358 -48 b 446 -25 382 -35 412 -25 b 510 -71 485 -25 510 -40 b 436 -124 510 -106 483 -124 b 358 -48 394 -124 366 -107 z "},"₇":{"ha":861,"x_min":0,"x_max":0,"o":"m 268 191 l 268 112 l 485 112 l 344 -194 l 443 -194 l 595 139 l 595 191 z "},"₈":{"ha":861,"x_min":0,"x_max":0,"o":"m 431 197 b 266 88 331 197 266 158 b 331 -2 266 50 292 19 b 252 -92 286 -19 252 -46 b 428 -200 252 -166 310 -200 b 609 -85 545 -200 609 -162 b 529 8 609 -40 574 -11 b 595 93 565 24 595 50 b 431 197 595 159 528 198 z m 346 -81 b 399 -27 346 -51 372 -37 b 508 -87 457 -42 508 -59 b 433 -128 508 -111 480 -128 b 346 -81 392 -128 346 -119 z m 360 88 b 428 127 360 117 385 127 b 508 86 476 127 508 115 b 443 35 508 53 473 42 b 360 88 392 49 360 67 z "},"₉":{"ha":861,"x_min":0,"x_max":0,"o":"m 419 -201 b 608 -2 533 -201 608 -149 b 426 197 608 147 530 197 b 254 69 324 197 254 156 b 387 -42 254 -17 315 -42 b 505 -7 439 -42 476 -26 b 420 -126 502 -99 476 -126 b 355 -81 381 -126 359 -113 l 265 -91 b 419 -201 273 -164 324 -201 z m 351 67 b 426 121 351 102 379 121 b 503 44 467 121 496 103 b 416 22 479 32 450 22 b 351 67 376 22 351 36 z "},"⁰":{"ha":861,"x_min":0,"x_max":0,"o":"m 611 956 b 431 1156 611 1100 546 1156 b 250 956 316 1156 250 1100 b 431 757 250 822 316 757 b 611 956 546 757 611 822 z m 352 956 b 431 1074 352 1046 374 1074 b 509 956 488 1074 509 1046 b 431 840 509 867 488 840 b 352 956 374 840 352 867 z m 392 953 b 431 994 392 980 405 994 b 469 953 456 994 469 980 b 431 913 469 928 456 913 b 392 953 405 913 392 928 z "},"¹":{"ha":861,"x_min":0,"x_max":0,"o":"m 292 1097 l 292 998 b 391 1038 326 998 362 1014 l 391 842 l 281 842 l 281 764 l 597 764 l 597 842 l 490 842 l 490 1149 l 391 1149 b 292 1097 379 1114 325 1097 z "},"²":{"ha":861,"x_min":0,"x_max":0,"o":"m 417 1155 b 253 1033 310 1155 250 1107 l 343 1024 b 419 1081 347 1065 372 1081 b 478 1038 459 1081 478 1069 b 394 970 478 1000 435 989 b 255 842 319 938 255 906 l 255 764 l 586 764 l 586 842 l 349 842 b 435 904 354 867 378 879 b 576 1045 496 931 576 960 b 417 1155 576 1123 510 1155 z "},"³":{"ha":861,"x_min":0,"x_max":0,"o":"m 423 1156 b 256 1036 310 1156 256 1111 l 343 1027 b 419 1081 350 1068 375 1081 b 489 1039 465 1081 489 1067 b 395 984 489 1005 462 984 l 373 984 l 373 921 l 394 921 b 493 876 469 921 493 905 b 419 834 493 851 475 834 b 333 883 365 834 342 849 l 244 874 b 419 758 244 783 313 758 b 593 873 520 758 593 788 b 508 957 593 926 556 949 b 583 1049 550 971 583 998 b 423 1156 583 1119 524 1156 z "},"⁴":{"ha":861,"x_min":0,"x_max":0,"o":"m 548 764 l 548 848 l 601 848 l 601 926 l 548 926 l 548 1149 l 444 1149 l 246 926 l 246 848 l 453 848 l 453 764 z m 340 919 l 453 1040 l 453 919 z "},"⁵":{"ha":861,"x_min":0,"x_max":0,"o":"m 292 1149 l 261 940 l 347 929 b 424 954 367 946 396 954 b 503 896 481 954 503 931 b 423 834 503 853 474 834 b 343 883 381 834 351 847 l 251 874 b 423 758 251 787 325 758 b 600 894 531 758 600 801 b 451 1014 600 976 542 1014 b 354 994 410 1014 381 1006 l 369 1070 l 576 1070 l 576 1149 z "},"⁶":{"ha":861,"x_min":0,"x_max":0,"o":"m 442 1156 b 254 957 328 1156 254 1103 b 436 758 254 808 331 758 b 608 886 538 758 608 799 b 475 997 608 972 547 997 b 356 961 422 997 385 981 b 441 1081 359 1053 385 1081 b 507 1036 481 1081 503 1069 l 597 1046 b 442 1156 589 1119 539 1156 z m 358 910 b 446 933 382 924 412 933 b 510 888 485 933 510 919 b 436 834 510 853 483 834 b 358 910 394 834 366 851 z "},"⁷":{"ha":861,"x_min":0,"x_max":0,"o":"m 268 1149 l 268 1070 l 485 1070 l 344 764 l 443 764 l 595 1097 l 595 1149 z "},"⁸":{"ha":861,"x_min":0,"x_max":0,"o":"m 431 1156 b 266 1047 331 1155 266 1116 b 331 956 266 1008 292 978 b 252 867 286 940 252 913 b 428 758 252 792 310 758 b 609 874 545 758 609 796 b 529 967 609 919 574 947 b 595 1051 565 982 595 1008 b 431 1156 595 1117 528 1156 z m 346 877 b 399 931 346 907 372 921 b 508 872 457 916 508 899 b 433 831 508 847 480 831 b 346 877 392 831 346 840 z m 360 1047 b 428 1085 360 1076 385 1085 b 508 1044 476 1085 508 1074 b 443 993 508 1011 473 1001 b 360 1047 392 1007 360 1025 z "},"⁹":{"ha":861,"x_min":0,"x_max":0,"o":"m 419 758 b 608 956 533 758 608 810 b 426 1155 608 1105 530 1155 b 254 1027 324 1155 254 1115 b 387 917 254 942 315 917 b 505 951 439 917 476 932 b 420 832 502 859 476 832 b 355 877 381 832 359 845 l 265 867 b 419 758 273 794 324 758 z m 351 1026 b 426 1079 351 1060 379 1079 b 503 1002 467 1079 496 1062 b 416 980 479 990 450 980 b 351 1026 376 980 351 994 z "},".":{"ha":861,"x_min":0,"x_max":0,"o":"m 428 -26 b 574 116 508 -26 574 28 b 428 258 574 206 508 258 b 281 116 347 258 281 206 b 428 -26 281 28 347 -26 z "},",":{"ha":861,"x_min":0,"x_max":0,"o":"m 430 -27 b 459 -25 440 -27 449 -26 b 260 -258 432 -109 360 -185 l 344 -324 b 592 65 474 -237 592 -104 b 430 258 592 198 520 258 b 281 117 344 258 281 205 b 430 -27 281 28 344 -27 z "},":":{"ha":861,"x_min":0,"x_max":0,"o":"m 431 -22 b 578 122 512 -22 578 33 b 431 263 578 211 512 263 b 284 122 351 263 284 211 b 431 -22 284 33 351 -22 z m 284 659 b 431 516 284 570 351 516 b 578 659 512 516 578 570 b 431 801 578 749 512 801 b 284 659 351 801 284 749 z "},";":{"ha":861,"x_min":0,"x_max":0,"o":"m 430 -27 b 459 -25 440 -27 449 -26 b 260 -258 432 -109 360 -185 l 344 -324 b 592 65 474 -237 592 -104 b 430 258 592 198 520 258 b 281 117 344 258 281 205 b 430 -27 281 28 344 -27 z m 282 659 b 429 516 282 570 348 516 b 575 659 510 516 575 570 b 429 801 575 749 510 801 b 282 659 348 801 282 749 z "},"…":{"ha":861,"x_min":0,"x_max":0,"o":"m 149 -18 b 252 86 206 -18 252 22 b 149 189 252 151 206 189 b 46 86 92 189 46 151 b 149 -18 46 22 92 -18 z m 328 86 b 431 -18 328 22 374 -18 b 534 86 488 -18 534 22 b 431 189 534 151 488 189 b 328 86 374 189 328 151 z m 609 86 b 713 -18 609 22 656 -18 b 815 86 769 -18 815 22 b 713 189 815 151 769 189 b 609 86 656 189 609 151 z "},"!":{"ha":861,"x_min":0,"x_max":0,"o":"m 507 425 l 524 1014 l 338 1014 l 355 425 z m 302 103 b 431 -18 302 28 360 -18 b 559 103 501 -18 559 28 b 431 224 559 180 501 224 b 302 103 360 224 302 180 z "},"¡":{"ha":861,"x_min":0,"x_max":0,"o":"m 353 307 l 336 -282 l 524 -282 l 506 307 z m 301 628 b 429 508 301 552 359 508 b 558 628 500 508 558 552 b 429 751 558 704 500 751 b 301 628 359 751 301 704 z "},"?":{"ha":861,"x_min":0,"x_max":0,"o":"m 431 -18 b 559 103 501 -18 559 28 b 431 224 559 180 501 224 b 302 103 360 224 302 180 b 431 -18 302 28 360 -18 z m 83 737 l 249 720 b 414 885 258 839 313 885 b 559 751 505 885 559 847 b 351 560 559 633 478 592 l 355 406 l 507 406 l 510 503 b 739 762 626 529 739 592 b 415 1030 739 944 608 1030 b 83 737 207 1030 79 933 z "},"¿":{"ha":861,"x_min":0,"x_max":0,"o":"m 429 751 b 301 628 359 751 301 704 b 429 508 301 552 359 508 b 558 628 500 508 558 552 b 429 751 558 704 500 751 z m 122 -30 b 445 -298 122 -212 252 -298 b 778 -4 654 -298 781 -201 l 611 13 b 447 -153 603 -106 547 -153 b 301 -19 356 -153 301 -115 b 510 172 301 99 382 140 l 506 326 l 353 326 l 351 228 b 122 -30 234 203 122 140 z "},"·":{"ha":861,"x_min":0,"x_max":0,"o":"m 428 319 b 574 461 508 319 574 373 b 428 603 574 551 508 603 b 281 461 347 603 281 551 b 428 319 281 373 347 319 z "},"•":{"ha":861,"x_min":0,"x_max":0,"o":"m 431 265 b 632 461 542 265 632 340 b 431 656 632 585 542 656 b 228 461 319 656 228 585 b 431 265 228 340 319 265 z "},"*":{"ha":861,"x_min":0,"x_max":0,"o":"m 58 728 l 317 663 l 144 457 l 285 354 l 431 585 l 575 354 l 716 457 l 543 663 l 803 728 l 749 894 l 499 794 l 518 1063 l 343 1063 l 362 794 l 112 894 z "},"#":{"ha":861,"x_min":0,"x_max":0,"o":"m 290 -139 l 316 142 l 491 142 l 465 -139 l 617 -139 l 642 142 l 783 142 l 783 294 l 656 294 l 683 581 l 823 581 l 823 733 l 697 733 l 723 1014 l 571 1014 l 545 733 l 370 733 l 396 1014 l 244 1014 l 219 733 l 78 733 l 78 581 l 205 581 l 178 294 l 39 294 l 39 142 l 164 142 l 138 -139 z m 330 294 l 356 581 l 531 581 l 505 294 z "},"/":{"ha":861,"x_min":0,"x_max":0,"o":"m 288 -139 l 731 1014 l 543 1014 l 99 -139 z "},"\\":{"ha":861,"x_min":0,"x_max":0,"o":"m 573 -139 l 130 1014 l 318 1014 l 762 -139 z "},"‣":{"ha":861,"x_min":0,"x_max":0,"o":"m 233 715 l 233 206 l 678 461 z "},"-":{"ha":861,"x_min":0,"x_max":0,"o":"m 104 385 l 757 385 l 757 536 l 104 536 z "},"­":{"ha":861,"x_min":0,"x_max":0,"o":"m 104 385 l 757 385 l 757 536 l 104 536 z "},"–":{"ha":861,"x_min":0,"x_max":0,"o":"m 104 385 l 757 385 l 757 536 l 104 536 z "},"—":{"ha":861,"x_min":0,"x_max":0,"o":"m 0 385 l 861 385 l 861 536 l 0 536 z "},"_":{"ha":861,"x_min":0,"x_max":0,"o":"m 0 -250 l 861 -250 l 861 -160 l 0 -160 z "},"(":{"ha":861,"x_min":0,"x_max":0,"o":"m 406 417 b 753 1113 406 758 563 941 l 590 1113 b 231 417 426 986 231 787 b 590 -278 231 47 426 -151 l 753 -278 b 406 417 563 -106 406 77 z "},")":{"ha":861,"x_min":0,"x_max":0,"o":"m 456 417 b 108 -278 456 77 299 -106 l 271 -278 b 631 417 435 -151 631 48 b 271 1113 631 788 435 986 l 108 1113 b 456 417 299 941 456 758 z "},"{":{"ha":861,"x_min":0,"x_max":0,"o":"m 83 335 b 352 74 324 330 394 248 l 341 28 b 582 -278 293 -170 376 -278 l 778 -278 l 778 -144 l 658 -144 b 519 67 536 -144 488 -92 l 529 113 b 306 418 562 279 489 388 b 529 723 489 448 562 556 l 519 768 b 658 978 488 928 536 978 l 778 978 l 778 1113 l 582 1113 b 341 807 376 1113 293 1005 l 352 760 b 83 500 394 587 324 505 z "},"}":{"ha":861,"x_min":0,"x_max":0,"o":"m 83 -278 l 279 -278 b 520 28 485 -278 568 -170 l 509 74 b 778 335 467 248 538 330 l 778 500 b 509 760 538 505 467 587 l 520 807 b 279 1113 568 1005 485 1113 l 83 1113 l 83 978 l 203 978 b 342 768 325 978 374 928 l 332 723 b 555 418 299 556 372 448 b 332 113 372 388 299 279 l 342 67 b 203 -144 373 -92 325 -144 l 83 -144 z "},"[":{"ha":861,"x_min":0,"x_max":0,"o":"m 231 -278 l 708 -278 l 708 -144 l 404 -144 l 404 978 l 708 978 l 708 1113 l 231 1113 z "},"]":{"ha":861,"x_min":0,"x_max":0,"o":"m 630 -278 l 630 1113 l 153 1113 l 153 978 l 457 978 l 457 -144 l 153 -144 l 153 -278 z "},"‚":{"ha":861,"x_min":0,"x_max":0,"o":"m 430 -27 b 459 -25 440 -27 449 -26 b 260 -258 432 -109 360 -185 l 344 -324 b 592 65 474 -237 592 -104 b 430 258 592 198 520 258 b 281 117 344 258 281 205 b 430 -27 281 28 344 -27 z "},"„":{"ha":861,"x_min":0,"x_max":0,"o":"m 244 -27 b 274 -25 254 -27 264 -26 b 74 -258 247 -109 174 -185 l 158 -324 b 406 65 288 -237 406 -104 b 244 258 406 198 335 258 b 95 117 159 258 95 205 b 244 -27 95 28 159 -27 z m 464 -258 l 548 -324 b 797 65 678 -237 797 -104 b 633 258 797 198 724 258 b 485 117 549 258 485 205 b 634 -27 485 28 549 -27 b 663 -25 644 -27 654 -26 b 464 -258 636 -109 564 -184 z "},"“":{"ha":861,"x_min":0,"x_max":0,"o":"m 236 740 b 207 738 226 740 217 739 b 406 970 233 822 306 897 l 322 1038 b 74 647 193 951 74 817 b 237 455 74 515 146 455 b 385 597 322 455 385 508 b 236 740 385 685 322 740 z m 464 647 b 626 455 464 515 536 455 b 775 597 712 455 775 508 b 626 740 775 685 712 740 b 597 738 616 740 606 739 b 797 970 624 822 697 897 l 712 1038 b 464 647 583 951 464 817 z "},"”":{"ha":861,"x_min":0,"x_max":0,"o":"m 244 746 b 274 748 254 746 264 747 b 74 515 247 664 174 588 l 158 448 b 406 838 288 535 406 668 b 244 1031 406 970 335 1031 b 95 889 159 1031 95 977 b 244 746 95 801 159 746 z m 464 515 l 548 448 b 797 838 678 535 797 668 b 633 1031 797 970 724 1031 b 485 889 549 1031 485 977 b 634 746 485 801 549 746 b 663 748 644 746 654 747 b 464 515 637 664 564 588 z "},"‘":{"ha":861,"x_min":0,"x_max":0,"o":"m 431 740 b 402 738 421 740 411 739 b 601 970 428 822 501 897 l 517 1038 b 269 647 388 951 269 817 b 431 455 269 515 341 455 b 580 597 517 455 580 508 b 431 740 580 685 517 740 z "},"’":{"ha":861,"x_min":0,"x_max":0,"o":"m 430 746 b 459 748 440 746 450 747 b 260 515 433 664 360 588 l 344 448 b 592 838 474 535 592 668 b 430 1031 592 970 520 1031 b 281 889 344 1031 281 977 b 430 746 281 801 344 746 z "},"«":{"ha":861,"x_min":0,"x_max":0,"o":"m 415 38 l 210 371 l 415 697 l 251 727 l 33 366 l 251 6 z m 396 365 l 615 5 l 778 36 l 573 370 l 778 696 l 615 726 z "},"»":{"ha":861,"x_min":0,"x_max":0,"o":"m 447 695 l 651 362 l 447 36 l 610 5 l 828 367 l 610 726 z m 83 37 l 246 6 l 465 367 l 246 727 l 83 696 l 288 363 z "},"‹":{"ha":861,"x_min":0,"x_max":0,"o":"m 625 67 l 410 369 l 625 666 l 473 749 l 208 365 l 472 -17 z "},"›":{"ha":861,"x_min":0,"x_max":0,"o":"m 236 665 l 451 363 l 236 67 l 388 -17 l 653 367 l 389 749 z "},"\"":{"ha":861,"x_min":0,"x_max":0,"o":"m 310 534 l 325 1014 l 146 1014 l 162 534 z m 536 1014 l 552 534 l 700 534 l 715 1014 z "},"'":{"ha":861,"x_min":0,"x_max":0,"o":"m 505 534 l 520 1014 l 342 1014 l 357 534 z "},"ƒ":{"ha":861,"x_min":0,"x_max":0,"o":"m 748 617 l 748 478 l 357 478 l 373 617 l 549 617 l 472 -17 b 210 -294 447 -231 353 -294 b 90 -272 168 -294 127 -289 l 103 -136 b 167 -146 123 -142 141 -146 b 303 36 248 -146 286 -115 l 357 478 l 157 478 l 157 617 l 373 617 l 390 753 b 651 1030 414 967 508 1030 b 771 1008 693 1030 734 1024 l 758 872 b 694 881 738 878 720 881 b 560 700 613 881 577 850 l 549 617 z "},"@":{"ha":861,"x_min":0,"x_max":0,"o":"m 307 444 l 307 303 b 494 -17 307 76 369 -17 b 647 67 572 -17 612 19 l 668 67 b 761 -17 677 14 708 -17 b 831 1 783 -17 808 -12 l 831 127 b 785 183 796 119 785 127 l 785 597 b 447 1019 785 875 698 1019 b 52 513 179 1019 52 860 l 52 199 b 480 -276 52 -170 219 -276 b 775 -226 587 -276 680 -259 l 775 -110 b 488 -162 695 -137 601 -162 b 172 203 301 -162 172 -92 l 172 519 b 447 903 172 794 274 903 b 658 669 594 903 653 824 l 647 669 b 494 748 609 717 565 748 b 307 444 378 748 307 667 z m 438 328 l 438 425 b 550 631 438 587 476 631 b 659 573 591 631 626 617 l 659 165 b 551 100 626 115 591 100 b 438 328 474 100 438 154 z "},"&":{"ha":861,"x_min":0,"x_max":0,"o":"m 592 523 b 578 358 592 463 588 407 l 447 535 b 306 797 376 633 306 715 b 408 895 306 856 343 895 b 524 781 471 895 504 858 l 681 817 b 406 1030 654 961 558 1030 b 131 791 226 1030 131 933 b 215 567 131 703 168 633 b 47 265 116 503 47 408 b 334 -17 47 91 150 -17 b 578 79 440 -17 519 19 l 637 0 l 845 0 l 672 234 b 715 449 694 298 709 372 l 820 449 l 820 596 l 592 596 z m 220 308 b 284 474 220 383 245 435 l 501 183 b 373 131 467 149 425 131 b 220 308 274 131 220 197 z "},"¶":{"ha":861,"x_min":0,"x_max":0,"o":"m 340 0 l 475 0 l 475 863 l 599 863 l 599 0 l 735 0 l 735 863 l 803 863 l 803 1014 l 324 1014 b 58 766 158 1014 58 935 b 340 466 58 589 163 473 z "},"§":{"ha":861,"x_min":0,"x_max":0,"o":"m 214 618 l 326 544 b 286 513 310 535 297 525 b 169 589 240 533 200 557 b 214 618 183 600 198 610 z m 45 10 l 216 35 b 410 -144 237 -110 317 -144 b 580 -14 525 -144 580 -93 b 364 151 580 74 515 101 b 85 413 210 202 85 267 b 169 589 85 485 115 546 b 107 756 131 630 107 683 b 460 1030 107 926 236 1030 b 772 741 651 1030 776 943 l 610 724 b 442 885 597 848 544 885 b 281 765 338 885 281 848 b 480 608 281 674 353 649 b 785 344 662 549 785 494 b 702 164 785 272 755 210 b 661 134 690 153 676 143 l 554 225 b 572 243 561 231 567 237 b 702 164 626 221 669 197 b 763 3 741 125 763 74 b 399 -294 763 -176 621 -294 b 45 10 188 -294 70 -197 z m 260 434 b 458 283 260 347 331 325 b 572 243 499 270 538 257 b 601 323 590 265 601 292 b 385 474 601 397 536 424 b 286 513 351 486 317 498 b 260 434 269 492 260 465 z "},"©":{"ha":861,"x_min":0,"x_max":0,"o":"m 366 508 b 443 655 366 615 397 655 b 510 572 481 655 505 628 l 615 581 b 440 758 603 703 536 758 b 255 508 328 758 255 681 b 438 258 255 335 325 258 b 615 438 534 258 603 313 l 510 446 b 443 360 503 388 481 360 b 366 508 397 360 366 401 z m 41 508 b 431 -17 41 176 203 -17 b 820 508 658 -17 820 176 b 431 1031 820 838 658 1031 b 41 508 203 1031 41 838 z m 103 508 b 431 970 103 808 242 970 b 758 508 619 970 758 808 b 431 44 758 207 619 44 b 103 508 242 44 103 207 z "},"®":{"ha":861,"x_min":0,"x_max":0,"o":"m 386 274 l 386 426 l 401 426 b 454 430 420 426 438 428 l 507 274 l 626 274 l 546 460 b 616 596 594 490 616 539 b 454 742 616 693 554 742 l 283 741 l 283 274 z m 41 508 b 431 -17 41 176 203 -17 b 820 508 658 -17 820 176 b 431 1031 820 838 658 1031 b 41 508 203 1031 41 838 z m 103 508 b 431 970 103 808 242 970 b 758 508 619 970 758 808 b 431 44 758 207 619 44 b 103 508 242 44 103 207 z m 386 498 l 386 670 l 424 670 b 508 588 483 670 508 638 b 399 498 508 542 488 498 z "},"™":{"ha":861,"x_min":0,"x_max":0,"o":"m 248 595 l 248 971 l 347 971 l 347 1063 l 49 1063 l 49 971 l 147 971 l 147 595 z m 406 595 l 503 595 l 503 880 l 506 880 l 585 715 l 607 715 l 687 880 l 692 880 l 692 595 l 788 595 l 788 1063 l 688 1063 l 601 881 l 597 881 l 513 1063 l 406 1063 z "},"°":{"ha":861,"x_min":0,"x_max":0,"o":"m 431 600 b 663 840 567 600 663 699 b 431 1079 663 981 567 1079 b 198 840 293 1079 198 981 b 431 600 198 699 293 600 z m 299 840 b 431 981 299 921 350 981 b 561 840 511 981 561 921 b 431 699 561 758 511 699 b 299 840 350 699 299 758 z "},"|":{"ha":861,"x_min":0,"x_max":0,"o":"m 522 -278 l 522 1113 l 340 1113 l 340 -278 z "},"¦":{"ha":861,"x_min":0,"x_max":0,"o":"m 522 510 l 522 1113 l 340 1113 l 340 510 z m 340 -278 l 522 -278 l 522 324 l 340 324 z "},"†":{"ha":861,"x_min":0,"x_max":0,"o":"m 522 -148 l 522 583 l 763 583 l 763 734 l 522 734 l 522 1014 l 340 1014 l 340 734 l 97 734 l 97 583 l 340 583 l 340 -148 z "},"ℓ":{"ha":861,"x_min":0,"x_max":0,"o":"m 529 -15 b 766 32 611 -15 690 3 l 740 170 b 577 134 685 147 629 134 b 413 309 485 134 434 174 b 727 801 598 440 727 602 b 513 1031 727 942 659 1031 b 214 497 327 1031 214 900 b 222 327 214 433 217 376 b 65 243 172 298 120 270 l 110 139 b 242 205 155 160 199 182 b 529 -15 289 26 390 -15 z m 399 528 b 522 893 399 819 447 893 b 597 789 569 893 597 863 b 401 453 597 669 522 556 b 399 528 399 476 399 501 z "},"‡":{"ha":861,"x_min":0,"x_max":0,"o":"m 522 -148 l 522 132 l 763 132 l 763 283 l 522 283 l 522 583 l 763 583 l 763 734 l 522 734 l 522 1014 l 340 1014 l 340 734 l 97 734 l 97 583 l 340 583 l 340 283 l 97 283 l 97 132 l 340 132 l 340 -148 z "},"№":{"ha":861,"x_min":0,"x_max":0,"o":"m 342 0 l 468 0 l 468 1014 l 363 1014 l 363 334 l 351 334 l 188 1014 l 60 1014 l 60 0 l 165 0 l 165 678 l 178 678 z m 542 748 b 690 472 542 551 603 472 b 839 748 777 472 839 551 b 690 1031 839 944 777 1031 b 542 748 603 1031 542 944 z m 609 274 b 691 185 609 218 645 185 b 772 274 736 185 772 218 b 691 363 772 330 736 363 b 609 274 645 363 609 330 z m 628 749 b 690 908 628 860 650 908 b 753 749 730 908 753 860 b 690 594 753 639 730 594 b 628 749 650 594 628 639 z "},"℣":{"ha":5167,"x_min":0,"x_max":0,"o":"m 249 731 l 59 731 b 352 0 112 486 203 247 l 513 0 b 802 731 660 243 753 490 l 629 731 b 447 185 593 529 527 344 l 432 185 b 249 731 351 344 285 529 z m 953 151 l 976 0 l 1626 0 l 1649 151 l 1391 151 l 1391 1014 l 1328 1014 l 969 936 l 955 785 l 1210 834 l 1210 151 z m 2003 116 b 2151 -26 2003 28 2069 -26 b 2297 116 2231 -26 2297 28 b 2151 258 2297 206 2231 258 b 2003 116 2069 258 2003 206 z m 2651 513 b 3032 1026 2651 860 2808 1026 b 3377 501 3319 1026 3377 747 b 3000 -13 3377 153 3224 -13 b 2651 513 2713 -13 2651 267 z m 2824 578 b 3026 123 2824 266 2862 123 b 3145 163 3087 123 3124 142 b 3202 438 3167 184 3202 236 b 3001 885 3202 757 3165 885 b 2881 844 2940 885 2903 866 b 2824 578 2860 824 2824 770 z m 2925 522 b 3019 647 2925 606 2964 647 b 3103 519 3089 647 3103 579 b 3010 393 3103 434 3065 393 b 2925 522 2940 393 2925 462 z m 3512 513 b 3893 1026 3512 860 3669 1026 b 4238 501 4181 1026 4238 747 b 3861 -13 4238 153 4085 -13 b 3512 513 3574 -13 3512 267 z m 3685 578 b 3888 123 3685 266 3723 123 b 4006 163 3948 123 3985 142 b 4063 438 4028 184 4063 236 b 3863 885 4063 757 4026 885 b 3742 844 3801 885 3764 866 b 3685 578 3721 824 3685 770 z m 3786 522 b 3880 647 3786 606 3825 647 b 3964 519 3950 647 3964 579 b 3872 393 3964 434 3926 393 b 3786 522 3801 393 3786 462 z m 4373 513 b 4754 1026 4373 860 4531 1026 b 5099 501 5042 1026 5099 747 b 4722 -13 5099 153 4946 -13 b 4373 513 4435 -13 4373 267 z m 4547 578 b 4749 123 4547 266 4584 123 b 4867 163 4809 123 4846 142 b 4924 438 4889 184 4924 236 b 4724 885 4924 757 4887 885 b 4603 844 4662 885 4625 866 b 4547 578 4582 824 4547 770 z m 4647 522 b 4741 647 4647 606 4686 647 b 4825 519 4811 647 4825 579 b 4733 393 4825 434 4788 393 b 4647 522 4662 393 4647 462 z "},"₿":{"ha":861,"x_min":0,"x_max":0,"o":"m 508 -210 l 640 -210 l 640 38 b 813 295 748 85 813 173 b 535 535 813 475 665 528 l 535 541 b 760 794 640 554 760 632 b 627 989 760 900 710 959 l 627 1224 l 496 1224 l 496 1013 b 440 1014 478 1013 460 1014 l 344 1014 l 344 1224 l 212 1224 l 212 1014 l 103 1014 l 103 0 l 225 0 l 225 -210 l 357 -210 l 357 0 l 437 0 b 508 4 462 0 485 1 z m 288 132 l 288 462 l 389 462 b 626 303 531 462 626 430 b 389 132 626 175 535 132 z m 288 588 l 288 882 l 389 882 b 580 747 522 882 580 842 b 376 588 580 652 509 588 z "},"¢":{"ha":861,"x_min":0,"x_max":0,"o":"m 769 335 l 605 355 b 467 248 586 288 535 255 l 507 667 b 604 570 556 653 590 622 l 769 588 b 529 799 740 702 652 776 l 550 1000 l 419 1000 l 400 805 b 85 462 208 789 85 665 b 330 128 85 284 180 166 l 309 -79 l 439 -79 l 459 116 b 769 335 615 122 734 201 z m 250 461 b 392 671 250 590 303 655 l 352 263 b 250 461 288 289 250 352 z "},"₡":{"ha":861,"x_min":0,"x_max":0,"o":"m 352 -210 l 285 -210 l 339 208 b 401 169 358 192 378 178 l 379 -3 b 314 16 356 2 335 8 b 58 507 149 75 58 224 b 444 1026 58 854 199 1000 b 513 1031 467 1028 489 1030 l 492 867 b 422 853 467 865 444 860 l 470 1224 l 538 1224 l 513 1031 l 532 1031 b 603 1027 557 1031 581 1029 b 669 1017 626 1025 649 1022 l 649 859 b 583 868 628 863 606 866 l 628 1224 l 696 1224 l 669 1017 b 767 987 706 1010 738 1000 l 720 840 b 649 859 699 847 675 853 l 536 -16 l 525 -16 b 469 -14 506 -16 487 -15 l 490 147 b 542 144 506 145 524 144 l 557 144 b 725 174 624 147 681 160 l 767 29 b 536 -16 705 1 629 -15 l 511 -210 l 444 -210 l 469 -14 b 379 -3 438 -12 407 -8 z m 246 507 b 339 208 246 354 281 262 l 422 853 b 246 507 317 819 246 724 z m 401 169 b 490 147 428 157 458 151 l 583 868 b 542 869 569 869 556 869 b 492 867 524 869 508 869 z "},"¤":{"ha":861,"x_min":0,"x_max":0,"o":"m 431 153 b 588 192 490 153 543 167 l 690 85 l 806 201 l 697 307 b 732 462 719 351 732 404 b 697 615 732 519 719 572 l 806 721 l 690 837 l 588 730 b 431 769 543 755 490 769 b 274 730 372 769 319 755 l 171 837 l 55 721 l 165 615 b 129 462 142 572 129 519 b 165 307 129 404 142 351 l 55 201 l 171 85 l 274 192 b 431 153 319 167 372 153 z m 273 462 b 431 635 273 563 332 635 b 589 462 529 635 589 563 b 431 288 589 361 529 288 b 273 462 332 288 273 361 z "},"$":{"ha":861,"x_min":0,"x_max":0,"o":"m 606 724 l 772 741 b 498 1028 776 926 667 1015 l 498 1224 l 366 1224 l 366 1025 b 86 746 188 1003 86 907 b 373 440 86 577 215 499 b 374 440 374 440 374 440 l 374 135 b 221 312 296 147 238 190 l 45 287 b 366 -16 68 95 175 -3 l 366 -210 l 498 -210 l 498 -11 b 785 290 676 15 785 126 b 489 592 785 462 666 527 l 489 881 b 606 724 560 867 594 824 z m 266 772 b 374 881 266 835 307 870 l 374 635 b 266 772 304 667 266 700 z m 489 140 l 489 393 b 596 265 563 359 596 326 b 489 140 596 205 559 158 z "},"€":{"ha":861,"x_min":0,"x_max":0,"o":"m 594 448 l 574 340 l 142 340 b 131 448 136 373 133 409 l 319 448 b 333 340 321 407 326 371 b 571 144 367 187 454 144 b 722 169 625 144 673 153 l 767 24 b 555 -16 701 -5 635 -16 b 142 340 334 -16 184 80 l 47 340 l 47 448 l 131 448 b 129 507 130 467 129 487 b 131 566 129 527 130 547 b 142 675 133 605 136 642 l 333 675 b 319 566 326 644 321 608 l 47 566 l 47 675 l 142 675 b 560 1031 185 934 338 1031 b 767 992 638 1031 703 1019 l 717 845 b 571 869 667 860 625 869 b 333 675 454 869 367 828 l 635 675 l 616 566 l 319 566 b 317 507 318 547 317 528 b 319 448 317 486 318 467 z "},"₺":{"ha":861,"x_min":0,"x_max":0,"o":"m 329 1014 l 144 1014 l 144 738 l 35 697 l 35 599 l 144 640 l 144 541 l 35 499 l 35 401 l 144 443 l 144 0 l 335 0 b 799 473 627 0 790 145 l 612 473 b 329 138 603 263 518 149 l 329 514 l 556 601 l 556 699 l 329 612 l 329 711 l 556 798 l 556 896 l 329 809 z "},"₱":{"ha":861,"x_min":0,"x_max":0,"o":"m 326 0 l 326 283 l 367 283 b 717 513 567 283 675 367 l 819 513 l 819 602 l 733 602 b 737 676 735 626 737 651 l 737 699 l 819 699 l 819 788 l 728 788 b 435 1014 699 949 599 1014 l 142 1014 l 142 788 l 42 788 l 42 699 l 142 699 l 142 602 l 42 602 l 42 513 l 142 513 l 142 0 z m 326 422 l 326 513 l 528 513 b 376 422 504 455 458 422 z m 326 602 l 326 699 l 549 699 b 550 660 550 686 550 674 b 548 602 550 640 549 620 z m 326 788 l 326 878 l 395 878 b 535 788 469 878 514 855 z "},"₽":{"ha":861,"x_min":0,"x_max":0,"o":"m 350 0 l 350 143 l 638 143 l 638 274 l 350 274 l 350 389 l 392 389 b 796 731 683 389 796 533 b 480 1014 796 939 666 1014 l 165 1014 l 165 521 l 44 521 l 44 389 l 165 389 l 165 274 l 44 274 l 44 143 l 165 143 l 165 0 z m 350 521 l 350 885 l 430 885 b 615 717 551 885 615 846 b 408 521 615 599 563 521 z "},"£":{"ha":861,"x_min":0,"x_max":0,"o":"m 573 423 l 573 550 l 369 550 b 332 733 352 612 332 665 b 468 885 332 854 397 885 b 612 720 549 885 600 843 l 777 737 b 465 1030 780 934 659 1030 b 152 748 285 1030 152 951 b 189 550 152 672 172 611 l 97 550 l 97 423 l 217 423 b 220 373 219 407 220 390 b 97 132 220 264 181 186 l 97 0 l 765 0 l 765 151 l 304 151 b 392 400 360 213 392 297 b 391 423 392 408 392 415 z "},"₩":{"ha":861,"x_min":0,"x_max":0,"o":"m 74 1014 l 125 540 l 24 540 l 24 409 l 140 409 l 184 0 l 313 0 l 392 409 l 463 409 l 536 0 l 676 0 l 721 409 l 838 409 l 838 540 l 735 540 l 788 1014 l 630 1014 l 588 540 l 539 540 l 495 845 l 383 845 l 328 540 l 276 540 l 238 1014 z m 286 409 l 305 409 l 301 385 l 288 385 z m 418 540 l 425 576 l 433 576 l 440 540 z m 558 409 l 576 409 l 574 385 l 561 385 z "},"¥":{"ha":861,"x_min":0,"x_max":0,"o":"m 727 138 l 727 270 l 521 270 l 521 392 l 727 392 l 727 524 l 575 524 l 834 1014 l 651 1014 l 443 585 l 434 585 l 224 1014 l 28 1014 l 287 524 l 134 524 l 134 392 l 340 392 l 340 270 l 134 270 l 134 138 l 340 138 l 340 0 l 521 0 l 521 138 z "},"∠":{"ha":861,"x_min":0,"x_max":0,"o":"m 736 0 l 736 151 l 340 151 l 335 160 l 601 678 l 447 741 l 97 56 l 120 0 z "},"∐":{"ha":861,"x_min":0,"x_max":0,"o":"m 558 1014 l 558 -127 l 303 -127 l 303 1014 l 147 1014 l 147 -127 l 51 -127 l 51 -278 l 810 -278 l 810 -127 l 715 -127 l 715 1014 z "},"∈":{"ha":861,"x_min":0,"x_max":0,"o":"m 113 507 b 561 0 113 155 255 0 l 714 0 l 714 151 l 593 151 b 292 437 397 151 308 228 l 714 437 l 714 581 l 293 581 b 593 863 309 788 398 863 l 714 863 l 714 1014 l 561 1014 b 113 507 255 1014 113 859 z "},"≡":{"ha":861,"x_min":0,"x_max":0,"o":"m 104 714 l 757 714 l 757 837 l 104 837 z m 104 84 l 757 84 l 757 207 l 104 207 z m 104 399 l 757 399 l 757 522 l 104 522 z "},"∃":{"ha":861,"x_min":0,"x_max":0,"o":"m 97 0 l 745 0 l 745 1014 l 97 1014 l 97 863 l 564 863 l 564 581 l 183 581 l 183 438 l 564 438 l 564 151 l 97 151 z "},"∇":{"ha":861,"x_min":0,"x_max":0,"o":"m 68 864 l 335 1 l 530 1 l 794 864 l 794 1015 l 69 1015 z m 262 856 l 262 864 l 611 864 l 611 856 l 442 256 l 433 256 z "},"+":{"ha":861,"x_min":0,"x_max":0,"o":"m 85 385 l 349 385 l 349 113 l 512 113 l 512 385 l 776 385 l 776 536 l 512 536 l 512 809 l 349 809 l 349 536 l 85 536 z "},"−":{"ha":861,"x_min":0,"x_max":0,"o":"m 104 385 l 757 385 l 757 536 l 104 536 z "},"×":{"ha":861,"x_min":0,"x_max":0,"o":"m 97 683 l 322 459 l 99 236 l 206 130 l 428 352 l 653 128 l 764 239 l 540 463 l 762 685 l 655 792 l 433 570 l 208 794 z "},"÷":{"ha":861,"x_min":0,"x_max":0,"o":"m 431 99 b 533 194 487 99 533 135 b 431 288 533 253 487 288 b 329 194 375 288 329 253 b 431 99 329 135 375 99 z m 104 385 l 757 385 l 757 536 l 104 536 z m 329 728 b 431 634 329 670 375 634 b 533 728 487 634 533 670 b 431 823 533 788 487 823 b 329 728 375 823 329 788 z "},"=":{"ha":861,"x_min":0,"x_max":0,"o":"m 104 583 l 757 583 l 757 733 l 104 733 z m 104 188 l 757 188 l 757 339 l 104 339 z "},"≠":{"ha":861,"x_min":0,"x_max":0,"o":"m 400 0 l 440 188 l 757 188 l 757 339 l 472 339 l 524 583 l 757 583 l 757 733 l 556 733 l 595 922 l 461 922 l 422 733 l 104 733 l 104 583 l 390 583 l 338 339 l 104 339 l 104 188 l 306 188 l 266 0 z "},">":{"ha":861,"x_min":0,"x_max":0,"o":"m 214 17 l 743 398 l 743 530 l 214 910 l 125 788 l 570 468 l 570 460 l 125 140 z "},"<":{"ha":861,"x_min":0,"x_max":0,"o":"m 647 910 l 118 530 l 118 398 l 647 17 l 736 140 l 291 460 l 291 468 l 736 788 z "},"≥":{"ha":861,"x_min":0,"x_max":0,"o":"m 104 100 l 757 100 l 757 251 l 104 251 z m 90 897 l 529 719 l 529 704 l 91 528 l 144 387 l 757 630 l 756 794 l 144 1037 z "},"≤":{"ha":861,"x_min":0,"x_max":0,"o":"m 757 100 l 757 251 l 104 251 l 104 100 z m 104 630 l 717 387 l 771 528 l 332 705 l 332 720 l 770 897 l 717 1037 l 104 794 z "},"±":{"ha":861,"x_min":0,"x_max":0,"o":"m 104 636 l 349 636 l 349 419 l 512 419 l 512 636 l 757 636 l 757 787 l 512 787 l 512 1003 l 349 1003 l 349 787 l 104 787 z m 104 100 l 757 100 l 757 251 l 104 251 z "},"≈":{"ha":861,"x_min":0,"x_max":0,"o":"m 577 513 b 765 812 674 513 749 585 l 638 831 b 553 676 624 724 602 676 b 284 847 459 676 433 847 b 97 548 186 847 112 774 l 224 528 b 308 683 237 635 259 683 b 577 513 402 683 428 513 z m 97 111 l 224 92 b 308 247 237 199 259 247 b 577 76 402 247 428 76 b 765 375 674 76 749 149 l 638 394 b 553 240 624 287 602 240 b 284 410 459 240 433 410 b 97 111 186 410 112 337 z "},"~":{"ha":861,"x_min":0,"x_max":0,"o":"m 577 294 b 765 593 674 294 749 366 l 638 613 b 553 458 625 505 602 458 b 284 628 459 458 433 628 b 97 329 186 628 112 555 l 224 310 b 308 465 236 417 259 465 b 577 294 402 465 428 294 z "},"¬":{"ha":861,"x_min":0,"x_max":0,"o":"m 104 450 l 594 450 l 594 202 l 757 202 l 757 601 l 104 601 z "},"^":{"ha":861,"x_min":0,"x_max":0,"o":"m 63 549 l 194 474 l 424 872 l 437 872 l 667 474 l 797 549 l 501 1063 l 360 1063 z "},"∞":{"ha":861,"x_min":0,"x_max":0,"o":"m 382 413 l 437 468 l 456 437 l 449 416 l 406 487 l 412 508 l 437 468 l 478 510 l 493 478 b 467 386 482 451 474 420 l 449 416 b 419 342 440 389 431 365 b 382 413 406 363 394 387 z m 37 460 b 239 707 37 660 146 707 b 442 581 329 707 392 664 b 479 511 456 560 467 537 l 383 413 l 368 445 b 394 538 379 472 388 503 l 412 508 b 442 581 421 535 431 559 b 632 707 483 660 544 707 b 824 463 717 707 824 663 b 622 217 824 263 715 217 b 419 342 532 217 469 260 b 229 217 378 264 317 217 b 37 460 144 217 37 260 z m 142 465 b 242 332 142 373 189 332 b 368 445 297 332 340 375 b 235 590 320 549 284 590 b 142 465 188 590 142 553 z m 493 478 b 626 333 541 375 577 333 b 719 459 674 333 719 371 b 619 592 719 551 672 592 b 493 478 565 592 521 549 z "},"∧":{"ha":861,"x_min":0,"x_max":0,"o":"m 812 144 l 460 876 l 387 876 l 50 144 l 226 144 l 415 585 l 424 585 l 620 144 z "},"∨":{"ha":861,"x_min":0,"x_max":0,"o":"m 49 869 l 401 138 l 474 138 l 811 869 l 635 869 l 447 429 l 437 429 l 241 869 z "},"∫":{"ha":861,"x_min":0,"x_max":0,"o":"m 651 1030 b 771 1008 693 1030 734 1024 l 758 872 b 694 881 738 878 720 881 b 560 700 613 881 577 850 l 472 -17 b 210 -294 447 -231 353 -294 b 90 -272 168 -294 127 -289 l 103 -136 b 167 -146 123 -142 141 -146 b 303 36 248 -146 286 -115 l 390 753 b 651 1030 414 967 508 1030 z "},"∆":{"ha":861,"x_min":0,"x_max":0,"o":"m 794 151 l 526 1014 l 332 1014 l 68 151 l 68 0 l 792 0 z m 251 151 l 251 158 l 419 759 l 429 759 l 600 158 l 600 151 z "},"∏":{"ha":861,"x_min":0,"x_max":0,"o":"m 303 -278 l 303 863 l 558 863 l 558 -278 l 715 -278 l 715 863 l 810 863 l 810 1014 l 51 1014 l 51 863 l 147 863 l 147 -278 z "},"∑":{"ha":861,"x_min":0,"x_max":0,"o":"m 109 -147 l 112 -278 l 738 -278 l 738 -127 l 319 -127 l 594 372 l 324 863 l 738 863 l 738 1014 l 112 1014 l 109 883 l 394 368 z "},"√":{"ha":861,"x_min":0,"x_max":0,"o":"m 522 1014 l 280 -60 l 272 -60 l 158 337 l 10 298 l 174 -278 l 385 -278 l 641 863 l 808 863 l 808 1014 z "},"∂":{"ha":861,"x_min":0,"x_max":0,"o":"m 440 1031 b 195 983 354 1031 272 1012 l 221 845 b 392 881 276 867 337 881 b 609 593 521 881 597 813 l 600 589 b 378 683 533 651 464 683 b 74 306 185 683 74 525 b 377 -15 74 78 197 -15 b 793 565 618 -15 793 154 b 440 1031 793 929 642 1031 z m 253 314 b 449 567 253 469 324 567 b 611 505 506 567 564 546 b 397 121 607 211 509 121 b 253 314 308 121 253 178 z "},"µ":{"ha":861,"x_min":0,"x_max":0,"o":"m 286 -278 l 286 -15 b 316 -17 295 -16 306 -17 b 576 149 422 -17 521 32 l 584 149 l 584 0 l 752 0 l 752 733 l 575 733 l 575 256 b 394 125 547 178 482 125 b 286 235 334 125 286 151 l 286 733 l 109 733 l 109 -278 z "},"%":{"ha":861,"x_min":0,"x_max":0,"o":"m 219 660 b 385 846 318 660 385 734 b 219 1031 385 958 318 1031 b 52 846 119 1031 52 958 b 219 660 52 734 119 660 z m 104 0 l 216 0 l 757 1014 l 645 1014 z m 151 846 b 219 949 151 917 178 949 b 287 846 260 949 287 917 b 219 741 287 774 260 741 b 151 846 178 741 151 774 z m 476 169 b 642 -17 476 58 544 -17 b 809 169 742 -17 809 58 b 642 355 809 281 742 355 b 476 169 544 355 476 281 z m 574 169 b 642 273 574 241 601 273 b 710 169 683 273 710 241 b 642 65 710 98 683 65 b 574 169 601 65 574 98 z "},"‰":{"ha":861,"x_min":0,"x_max":0,"o":"m 219 660 b 385 846 318 660 385 734 b 219 1031 385 958 318 1031 b 52 846 119 1031 52 958 b 219 660 52 734 119 660 z m 52 484 l 92 391 l 715 663 l 675 757 z m 88 169 b 254 -17 88 58 156 -17 b 421 169 353 -17 421 58 b 254 355 421 281 353 355 b 88 169 156 355 88 281 z m 151 846 b 219 949 151 917 178 949 b 287 846 260 949 287 917 b 219 741 287 774 260 741 b 151 846 178 741 151 774 z m 187 169 b 254 273 187 241 214 273 b 322 169 296 273 322 241 b 254 65 322 98 296 65 b 187 169 214 65 187 98 z m 476 169 b 642 -17 476 58 544 -17 b 809 169 742 -17 809 58 b 642 355 809 281 742 355 b 476 169 544 355 476 281 z m 574 169 b 642 273 574 241 601 273 b 710 169 683 273 710 241 b 642 65 710 98 683 65 b 574 169 601 65 574 98 z "},"∷":{"ha":861,"x_min":0,"x_max":0,"o":"m 221 131 b 359 274 297 131 359 185 b 221 416 359 364 297 416 b 81 274 144 416 81 364 b 221 131 81 185 144 131 z m 81 748 b 221 605 81 659 144 605 b 359 748 297 605 359 659 b 221 890 359 838 297 890 b 81 748 144 890 81 838 z m 502 274 b 642 131 502 185 565 131 b 781 274 718 131 781 185 b 642 416 781 364 718 416 b 502 274 565 416 502 364 z m 502 748 b 642 605 502 659 565 605 b 781 748 718 605 781 659 b 642 890 781 838 718 890 b 502 748 565 890 502 838 z "},"⊂":{"ha":861,"x_min":0,"x_max":0,"o":"m 284 366 b 538 590 284 533 367 590 l 714 590 l 714 733 l 498 733 b 108 366 251 733 108 623 b 498 0 108 110 251 0 l 714 0 l 714 142 l 538 142 b 284 366 367 142 284 199 z "},"∴":{"ha":861,"x_min":0,"x_max":0,"o":"m 217 131 b 360 274 296 131 360 185 b 217 416 360 364 296 416 b 74 274 139 416 74 364 b 217 131 74 185 139 131 z m 288 748 b 431 605 288 659 352 605 b 574 748 510 605 574 659 b 431 890 574 838 510 890 b 288 748 352 890 288 838 z m 501 274 b 644 131 501 185 566 131 b 788 274 723 131 788 185 b 644 416 788 364 723 416 b 501 274 566 416 501 364 z "},"∀":{"ha":861,"x_min":0,"x_max":0,"o":"m 25 733 l 340 0 l 524 0 l 836 733 l 652 733 l 601 603 l 270 603 l 218 733 z m 323 470 l 549 470 l 442 197 l 432 197 z "},"⊕":{"ha":861,"x_min":0,"x_max":0,"o":"m 205 448 l 369 448 l 369 259 l 492 259 l 492 448 l 656 448 l 656 567 l 492 567 l 492 756 l 369 756 l 369 567 l 205 567 z m 41 508 b 431 -17 41 176 203 -17 b 820 508 658 -17 820 176 b 431 1031 820 838 658 1031 b 41 508 203 1031 41 838 z m 103 508 b 431 970 103 808 242 970 b 758 508 619 970 758 808 b 431 44 758 207 619 44 b 103 508 242 44 103 207 z "},"↑":{"ha":861,"x_min":0,"x_max":0,"o":"m 431 865 l 82 517 l 176 423 l 347 596 l 358 591 l 358 162 l 503 162 l 503 592 l 513 596 l 685 423 l 779 517 z "},"↗":{"ha":861,"x_min":0,"x_max":0,"o":"m 691 769 l 199 770 l 199 637 l 442 638 l 447 627 l 143 324 l 245 222 l 549 525 l 560 520 l 559 277 l 692 277 z "},"→":{"ha":861,"x_min":0,"x_max":0,"o":"m 793 507 l 446 856 l 352 761 l 524 590 l 520 579 l 91 579 l 91 435 l 520 435 l 524 424 l 352 253 l 446 158 z "},"↘":{"ha":861,"x_min":0,"x_max":0,"o":"m 690 245 l 692 738 l 558 738 l 559 494 l 548 490 l 245 793 l 143 692 l 447 388 l 442 377 l 199 378 l 199 244 z "},"↓":{"ha":861,"x_min":0,"x_max":0,"o":"m 431 149 l 779 497 l 685 591 l 514 418 l 503 423 l 503 852 l 358 852 l 358 422 l 348 418 l 176 591 l 82 497 z "},"↙":{"ha":861,"x_min":0,"x_max":0,"o":"m 170 245 l 662 244 l 662 378 l 419 376 l 414 388 l 718 691 l 616 793 l 312 489 l 301 494 l 302 737 l 169 737 z "},"←":{"ha":861,"x_min":0,"x_max":0,"o":"m 70 507 l 417 158 l 512 253 l 339 424 l 344 435 l 773 435 l 773 579 l 343 579 l 339 590 l 512 761 l 417 856 z "},"↖":{"ha":861,"x_min":0,"x_max":0,"o":"m 171 769 l 169 277 l 303 277 l 302 520 l 313 525 l 616 222 l 718 323 l 415 626 l 419 638 l 663 637 l 663 769 z "},"↔":{"ha":861,"x_min":0,"x_max":0,"o":"m 840 506 l 588 792 l 499 715 l 619 581 l 615 574 l 247 574 l 242 581 l 363 715 l 274 792 l 21 506 l 274 221 l 363 298 l 242 431 l 247 440 l 615 440 l 619 431 l 499 297 l 588 220 z "},"↕":{"ha":861,"x_min":0,"x_max":0,"o":"m 431 97 l 717 350 l 640 438 l 506 319 l 497 323 l 497 690 l 506 694 l 640 574 l 717 663 l 431 916 l 144 663 l 222 574 l 356 694 l 364 690 l 364 323 l 356 319 l 222 438 l 144 350 z "},"↩":{"ha":861,"x_min":0,"x_max":0,"o":"m 49 322 l 382 -12 l 474 81 l 304 250 l 433 250 b 794 613 686 250 794 350 b 433 973 794 875 686 973 l 97 973 l 97 828 l 439 828 b 635 613 576 828 635 766 b 439 394 635 459 576 394 l 303 394 l 474 564 l 382 656 z "},"↪":{"ha":861,"x_min":0,"x_max":0,"o":"m 813 322 l 479 656 l 387 564 l 558 394 l 422 394 b 226 613 285 394 226 459 b 422 828 226 766 285 828 l 765 828 l 765 973 l 428 973 b 67 613 175 973 67 875 b 428 250 67 350 175 250 l 557 250 l 387 81 l 479 -12 z "},"⬎":{"ha":861,"x_min":0,"x_max":0,"o":"m 462 122 l 801 460 l 708 552 l 544 388 l 534 392 l 534 879 l 88 879 l 88 732 l 390 732 l 390 392 l 379 388 l 215 552 l 123 460 z "},"⬏":{"ha":861,"x_min":0,"x_max":0,"o":"m 462 892 l 123 554 l 215 462 l 379 626 l 390 622 l 390 282 l 88 282 l 88 135 l 534 135 l 534 622 l 544 626 l 708 462 l 801 554 z "},"⬐":{"ha":861,"x_min":0,"x_max":0,"o":"m 399 122 l 738 460 l 646 552 l 482 388 l 471 392 l 471 732 l 773 732 l 773 879 l 327 879 l 327 392 l 317 388 l 153 552 l 60 460 z "},"⬑":{"ha":861,"x_min":0,"x_max":0,"o":"m 399 892 l 60 554 l 153 462 l 317 626 l 327 622 l 327 135 l 773 135 l 773 282 l 471 282 l 471 622 l 482 626 l 646 462 l 738 554 z "},"↺":{"ha":861,"x_min":0,"x_max":0,"o":"m 371 951 l 371 525 l 504 525 l 503 715 b 672 457 600 672 672 583 b 431 210 672 317 580 210 b 190 456 282 210 190 317 b 238 615 190 524 212 574 l 116 685 b 47 456 73 623 47 549 b 431 77 47 231 204 77 b 815 455 659 77 815 233 b 592 819 815 626 724 747 l 799 818 l 799 951 z "},"↻":{"ha":861,"x_min":0,"x_max":0,"o":"m 490 951 l 62 951 l 62 818 l 269 819 b 47 455 138 747 47 626 b 430 77 47 233 202 77 b 815 456 657 77 815 231 b 745 685 815 549 788 623 l 624 615 b 672 456 649 574 672 524 b 431 210 672 317 579 210 b 190 457 281 210 190 317 b 358 715 190 583 261 672 l 357 525 l 490 525 z "},"⇄":{"ha":861,"x_min":0,"x_max":0,"o":"m 42 283 l 308 15 l 395 102 l 290 206 l 295 217 l 789 217 l 789 350 l 295 350 l 290 360 l 395 465 l 308 551 z m 72 664 l 566 664 l 572 654 l 466 549 l 553 463 l 819 731 l 553 999 l 466 912 l 571 808 l 566 797 l 72 797 z "},"⇆":{"ha":861,"x_min":0,"x_max":0,"o":"m 819 283 l 553 551 l 466 465 l 572 360 l 566 350 l 72 350 l 72 217 l 566 217 l 571 206 l 466 102 l 553 15 z m 42 731 l 308 463 l 395 549 l 290 654 l 295 664 l 789 664 l 789 797 l 295 797 l 290 808 l 395 912 l 308 999 z "},"◊":{"ha":861,"x_min":0,"x_max":0,"o":"m 49 507 l 347 0 l 513 0 l 810 507 l 513 1014 l 347 1014 z m 224 507 l 424 867 l 435 867 l 635 507 l 435 147 l 424 147 z "},"▲":{"ha":861,"x_min":0,"x_max":0,"o":"m 53 184 l 808 184 l 430 845 z "},"▶":{"ha":861,"x_min":0,"x_max":0,"o":"m 127 883 l 127 128 l 788 506 z "},"▼":{"ha":861,"x_min":0,"x_max":0,"o":"m 808 828 l 53 828 l 431 167 z "},"◀":{"ha":861,"x_min":0,"x_max":0,"o":"m 734 128 l 734 883 l 73 505 z "},"▴":{"ha":861,"x_min":0,"x_max":0,"o":"m 176 292 l 685 292 l 430 738 z "},"▸":{"ha":861,"x_min":0,"x_max":0,"o":"m 233 760 l 233 251 l 678 506 z "},"▾":{"ha":861,"x_min":0,"x_max":0,"o":"m 685 719 l 176 719 l 431 274 z "},"◂":{"ha":861,"x_min":0,"x_max":0,"o":"m 628 252 l 628 761 l 183 506 z "},"̈":{"ha":0,"x_min":0,"x_max":0,"o":"m 244 872 b 352 983 308 872 352 915 b 244 1092 352 1051 308 1092 b 135 983 179 1092 135 1051 b 244 872 135 915 179 872 z m 509 983 b 617 872 509 915 553 872 b 726 983 682 872 726 915 b 617 1092 726 1051 682 1092 b 509 983 553 1092 509 1051 z "},"̇":{"ha":0,"x_min":0,"x_max":0,"o":"m 431 874 b 551 985 502 874 551 917 b 431 1094 551 1053 502 1094 b 310 985 359 1094 310 1053 b 431 874 310 917 359 874 z "},"̀":{"ha":0,"x_min":0,"x_max":0,"o":"m 508 885 l 372 1131 l 180 1131 l 353 885 z "},"́":{"ha":0,"x_min":0,"x_max":0,"o":"m 353 885 l 490 1131 l 681 1131 l 508 885 z "},"̋":{"ha":0,"x_min":0,"x_max":0,"o":"m 229 885 l 348 885 l 465 1131 l 322 1131 z m 508 885 l 626 885 l 744 1131 l 601 1131 z "},"̂":{"ha":0,"x_min":0,"x_max":0,"o":"m 161 885 l 316 885 l 431 1063 l 545 885 l 700 885 l 531 1131 l 330 1131 z "},"̌":{"ha":0,"x_min":0,"x_max":0,"o":"m 161 1131 l 316 1131 l 431 952 l 545 1131 l 700 1131 l 531 885 l 330 885 z "},"̆":{"ha":0,"x_min":0,"x_max":0,"o":"m 315 1131 l 202 1131 b 431 878 197 967 274 878 b 659 1131 588 878 665 967 l 547 1131 b 431 990 547 1041 513 990 b 315 1131 348 990 315 1041 z "},"̊":{"ha":0,"x_min":0,"x_max":0,"o":"m 431 842 b 594 1010 527 842 594 913 b 431 1178 594 1107 527 1178 b 267 1010 334 1178 267 1107 b 431 842 267 913 334 842 z m 342 1010 b 431 1101 342 1062 376 1101 b 519 1010 485 1101 519 1062 b 431 919 519 958 485 919 b 342 1010 376 919 342 958 z "},"̃":{"ha":0,"x_min":0,"x_max":0,"o":"m 305 1133 b 144 906 218 1133 158 1050 l 263 874 b 339 994 272 950 299 994 b 556 865 408 994 447 865 b 717 1092 642 865 703 948 l 599 1125 b 523 1004 589 1047 563 1004 b 305 1133 453 1004 413 1133 z "},"̄":{"ha":0,"x_min":0,"x_max":0,"o":"m 663 1024 l 198 1024 l 198 911 l 663 911 z "},"̣":{"ha":0,"x_min":0,"x_max":0,"o":"m 431 -362 b 551 -251 502 -362 551 -319 b 431 -142 551 -183 502 -142 b 310 -251 359 -142 310 -183 b 431 -362 310 -319 359 -362 z "},"̦":{"ha":0,"x_min":0,"x_max":0,"o":"m 428 -353 b 449 -352 435 -353 442 -353 b 303 -470 424 -404 365 -437 l 357 -537 b 555 -285 458 -492 555 -412 b 428 -142 555 -187 499 -142 b 313 -247 362 -142 313 -182 b 428 -353 313 -313 362 -353 z "},"̧":{"ha":0,"x_min":0,"x_max":0,"o":"m 331 -426 l 390 -426 b 606 -272 560 -426 606 -366 b 483 -113 606 -178 563 -133 l 481 33 l 377 33 l 377 -184 b 474 -261 435 -190 474 -209 b 372 -329 474 -304 447 -329 l 331 -329 z "},"̨":{"ha":0,"x_min":0,"x_max":0,"o":"m 431 0 l 308 26 b 174 -171 217 -44 174 -102 b 367 -298 174 -235 212 -298 l 431 -298 l 431 -188 l 410 -188 b 331 -134 351 -188 331 -167 b 431 0 331 -98 356 -57 z "},"¨":{"ha":861,"x_min":0,"x_max":0,"o":"m 244 872 b 352 983 308 872 352 915 b 244 1092 352 1051 308 1092 b 135 983 179 1092 135 1051 b 244 872 135 915 179 872 z m 509 983 b 617 872 509 915 553 872 b 726 983 682 872 726 915 b 617 1092 726 1051 682 1092 b 509 983 553 1092 509 1051 z "},"˙":{"ha":861,"x_min":0,"x_max":0,"o":"m 431 874 b 551 985 502 874 551 917 b 431 1094 551 1053 502 1094 b 310 985 359 1094 310 1053 b 431 874 310 917 359 874 z "},"`":{"ha":861,"x_min":0,"x_max":0,"o":"m 508 885 l 372 1131 l 180 1131 l 353 885 z "},"´":{"ha":861,"x_min":0,"x_max":0,"o":"m 353 885 l 490 1131 l 681 1131 l 508 885 z "},"˝":{"ha":861,"x_min":0,"x_max":0,"o":"m 229 885 l 348 885 l 465 1131 l 322 1131 z m 508 885 l 626 885 l 744 1131 l 601 1131 z "},"ˆ":{"ha":861,"x_min":0,"x_max":0,"o":"m 161 885 l 316 885 l 431 1063 l 545 885 l 700 885 l 531 1131 l 330 1131 z "},"ˇ":{"ha":861,"x_min":0,"x_max":0,"o":"m 161 1131 l 316 1131 l 431 952 l 545 1131 l 700 1131 l 531 885 l 330 885 z "},"˘":{"ha":861,"x_min":0,"x_max":0,"o":"m 315 1131 l 202 1131 b 431 878 197 967 274 878 b 659 1131 588 878 665 967 l 547 1131 b 431 990 547 1041 513 990 b 315 1131 348 990 315 1041 z "},"˚":{"ha":861,"x_min":0,"x_max":0,"o":"m 431 842 b 594 1010 527 842 594 913 b 431 1178 594 1107 527 1178 b 267 1010 334 1178 267 1107 b 431 842 267 913 334 842 z m 342 1010 b 431 1101 342 1062 376 1101 b 519 1010 485 1101 519 1062 b 431 919 519 958 485 919 b 342 1010 376 919 342 958 z "},"˜":{"ha":861,"x_min":0,"x_max":0,"o":"m 305 1133 b 144 906 218 1133 158 1050 l 263 874 b 339 994 272 950 299 994 b 556 865 408 994 447 865 b 717 1092 642 865 703 948 l 599 1125 b 523 1004 589 1047 563 1004 b 305 1133 453 1004 413 1133 z "},"¯":{"ha":861,"x_min":0,"x_max":0,"o":"m 663 1024 l 198 1024 l 198 911 l 663 911 z "},"¸":{"ha":861,"x_min":0,"x_max":0,"o":"m 331 -426 l 390 -426 b 606 -272 560 -426 606 -366 b 483 -113 606 -178 563 -133 l 481 33 l 377 33 l 377 -184 b 474 -261 435 -190 474 -209 b 372 -329 474 -304 447 -329 l 331 -329 z "},"˛":{"ha":861,"x_min":0,"x_max":0,"o":"m 431 0 l 308 26 b 174 -171 217 -44 174 -102 b 367 -298 174 -235 212 -298 l 431 -298 l 431 -188 l 410 -188 b 331 -134 351 -188 331 -167 b 431 0 331 -98 356 -57 z "},"Ω":{"ha":861,"x_min":0,"x_max":0,"o":"m 431 874 b 636 607 557 874 636 794 b 513 276 636 460 587 364 l 513 0 l 789 0 l 789 141 l 596 141 l 596 206 b 810 627 735 301 810 435 b 431 1031 810 895 664 1031 b 52 627 198 1031 52 895 b 266 206 52 435 127 301 l 266 141 l 73 141 l 73 0 l 350 0 l 350 276 b 226 607 275 364 226 460 b 431 874 226 794 305 874 z "}}}
